<svg xmlns="http://www.w3.org/2000/svg" fill="none" viewBox="0 0 180 70" height="70" width="180">
<rect fill="#303030" height="70" width="180"></rect>
<rect fill="#303030" height="70" width="70"></rect>
<path fill="white" d="M78.7031 35V24.0909H86.3736V26.4773H81.6648V28.3523H85.9048V30.7386H81.6648V35H78.7031ZM87.5055 35V26.8182H90.4458V35H87.5055ZM88.9757 25.9659C88.5779 25.9659 88.237 25.8345 87.9529 25.5717C87.6689 25.3089 87.5268 24.9929 87.5268 24.6236C87.5268 24.2543 87.6689 23.9382 87.9529 23.6754C88.237 23.4126 88.5779 23.2812 88.9757 23.2812C89.377 23.2812 89.7179 23.4126 89.9984 23.6754C90.2825 23.9382 90.4245 24.2543 90.4245 24.6236C90.4245 24.9929 90.2825 25.3089 89.9984 25.5717C89.7179 25.8345 89.377 25.9659 88.9757 25.9659ZM99.4227 29.4815H96.7167C96.7025 29.3146 96.6439 29.1708 96.5409 29.0501C96.4379 28.9293 96.3048 28.837 96.1414 28.7731C95.9816 28.7056 95.8041 28.6719 95.6088 28.6719C95.3566 28.6719 95.14 28.718 94.9589 28.8104C94.7778 28.9027 94.689 29.0341 94.6926 29.2045C94.689 29.3253 94.7405 29.4371 94.847 29.5401C94.9571 29.6431 95.1684 29.723 95.4809 29.7798L97.1428 30.0781C97.9809 30.2308 98.6041 30.4883 99.0125 30.8505C99.4244 31.2092 99.6322 31.6903 99.6357 32.294C99.6322 32.8764 99.4582 33.3825 99.1137 33.8121C98.7728 34.2383 98.3058 34.5685 97.7128 34.8029C97.1233 35.0337 96.4504 35.1491 95.694 35.1491C94.444 35.1491 93.4656 34.8935 92.759 34.3821C92.0558 33.8707 91.6634 33.196 91.5818 32.358H94.5008C94.5399 32.6172 94.6677 32.8178 94.8843 32.9599C95.1045 33.0984 95.3815 33.1676 95.7153 33.1676C95.9852 33.1676 96.2071 33.1214 96.3811 33.0291C96.5587 32.9368 96.6492 32.8054 96.6528 32.6349C96.6492 32.4787 96.5711 32.3544 96.4184 32.2621C96.2693 32.1697 96.0349 32.0952 95.7153 32.0384L94.2664 31.7827C93.4319 31.6371 92.8069 31.3601 92.3914 30.9517C91.9759 30.5433 91.77 30.0178 91.7735 29.375C91.77 28.8068 91.9191 28.3256 92.221 27.9315C92.5264 27.5337 92.9614 27.2319 93.526 27.0259C94.0942 26.8164 94.7671 26.7116 95.5448 26.7116C96.7274 26.7116 97.6595 26.9567 98.3414 27.4467C99.0267 27.9368 99.3872 28.6151 99.4227 29.4815ZM103.703 30.3977V35H100.762V24.0909H103.596V28.3736H103.681C103.866 27.8516 104.173 27.445 104.603 27.1538C105.033 26.859 105.549 26.7116 106.153 26.7116C106.732 26.7116 107.234 26.843 107.66 27.1058C108.09 27.3686 108.422 27.7308 108.657 28.1925C108.894 28.6541 109.012 29.1832 109.008 29.7798V35H106.068V30.3977C106.071 29.9929 105.97 29.6751 105.764 29.4442C105.562 29.2134 105.272 29.098 104.896 29.098C104.658 29.098 104.448 29.1513 104.267 29.2578C104.09 29.3608 103.951 29.5099 103.852 29.7053C103.756 29.897 103.706 30.1278 103.703 30.3977ZM110.46 35V26.8182H113.4V35H110.46ZM111.93 25.9659C111.532 25.9659 111.191 25.8345 110.907 25.5717C110.623 25.3089 110.481 24.9929 110.481 24.6236C110.481 24.2543 110.623 23.9382 110.907 23.6754C111.191 23.4126 111.532 23.2812 111.93 23.2812C112.331 23.2812 112.672 23.4126 112.953 23.6754C113.237 23.9382 113.379 24.2543 113.379 24.6236C113.379 24.9929 113.237 25.3089 112.953 25.5717C112.672 25.8345 112.331 25.9659 111.93 25.9659ZM117.838 30.3977V35H114.898V26.8182H117.689V28.3736H117.775C117.952 27.8551 118.265 27.4485 118.712 27.1538C119.163 26.859 119.689 26.7116 120.289 26.7116C120.868 26.7116 121.37 26.8448 121.796 27.1112C122.226 27.3739 122.558 27.7362 122.792 28.1978C123.03 28.6594 123.147 29.1868 123.144 29.7798V35H120.203V30.3977C120.207 29.9929 120.104 29.6751 119.895 29.4442C119.689 29.2134 119.401 29.098 119.032 29.098C118.79 29.098 118.579 29.1513 118.398 29.2578C118.22 29.3608 118.083 29.5099 117.988 29.7053C117.892 29.897 117.842 30.1278 117.838 30.3977ZM128.537 38.2386C127.717 38.2386 127.014 38.1214 126.428 37.8871C125.845 37.6562 125.393 37.3366 125.069 36.9283C124.75 36.5234 124.57 36.0582 124.531 35.5327H127.365C127.394 35.7067 127.465 35.8469 127.578 35.9535C127.692 36.06 127.838 36.1364 128.015 36.1825C128.196 36.2322 128.399 36.2571 128.622 36.2571C129.002 36.2571 129.317 36.1648 129.565 35.9801C129.817 35.7955 129.943 35.4616 129.943 34.9787V33.5938H129.858C129.752 33.8707 129.588 34.1069 129.368 34.3022C129.148 34.494 128.883 34.6413 128.574 34.7443C128.265 34.8437 127.926 34.8935 127.557 34.8935C126.975 34.8935 126.438 34.7585 125.948 34.4886C125.462 34.2187 125.071 33.7908 124.776 33.2049C124.485 32.619 124.34 31.8537 124.34 30.9091C124.34 29.9219 124.492 29.1193 124.798 28.5014C125.107 27.8835 125.504 27.4308 125.991 27.1431C126.481 26.8555 126.996 26.7116 127.536 26.7116C127.941 26.7116 128.296 26.7827 128.601 26.9247C128.906 27.0632 129.162 27.2496 129.368 27.484C129.574 27.7148 129.73 27.9687 129.837 28.2457H129.901V26.8182H132.841V34.9787C132.841 35.6712 132.662 36.2589 132.303 36.7418C131.948 37.2283 131.447 37.5994 130.801 37.8551C130.155 38.1108 129.4 38.2386 128.537 38.2386ZM128.644 32.8054C128.914 32.8054 129.144 32.7308 129.336 32.5817C129.531 32.429 129.681 32.2124 129.784 31.9318C129.89 31.6477 129.943 31.3068 129.943 30.9091C129.943 30.5043 129.89 30.158 129.784 29.8704C129.681 29.5792 129.531 29.3572 129.336 29.2045C129.144 29.0483 128.914 28.9702 128.644 28.9702C128.374 28.9702 128.143 29.0483 127.951 29.2045C127.763 29.3572 127.617 29.5792 127.514 29.8704C127.415 30.158 127.365 30.5043 127.365 30.9091C127.365 31.3139 127.415 31.6584 127.514 31.9425C127.617 32.223 127.763 32.4379 127.951 32.587C128.143 32.7326 128.374 32.8054 128.644 32.8054ZM137.282 35V24.0909H141.991C142.801 24.0909 143.509 24.2383 144.116 24.533C144.724 24.8278 145.196 25.2521 145.533 25.8061C145.871 26.3601 146.039 27.0241 146.039 27.7983C146.039 28.5795 145.865 29.2383 145.517 29.7745C145.173 30.3107 144.688 30.7156 144.063 30.989C143.442 31.2624 142.715 31.3991 141.884 31.3991H139.072V29.098H141.288C141.636 29.098 141.932 29.0554 142.177 28.9702C142.426 28.8814 142.616 28.7411 142.747 28.5494C142.882 28.3576 142.95 28.1072 142.95 27.7983C142.95 27.4858 142.882 27.2319 142.747 27.0366C142.616 26.8377 142.426 26.6921 142.177 26.5998C141.932 26.5039 141.636 26.456 141.288 26.456H140.244V35H137.282ZM143.674 29.9929L146.402 35H143.184L140.521 29.9929H143.674ZM151.11 35.1491C150.223 35.1491 149.463 34.9734 148.831 34.6218C148.198 34.2667 147.714 33.7731 147.376 33.141C147.039 32.5053 146.87 31.7685 146.87 30.9304C146.87 30.0923 147.039 29.3572 147.376 28.7251C147.714 28.0895 148.198 27.5959 148.831 27.2443C149.463 26.8892 150.223 26.7116 151.11 26.7116C151.998 26.7116 152.758 26.8892 153.39 27.2443C154.022 27.5959 154.507 28.0895 154.844 28.7251C155.182 29.3572 155.35 30.0923 155.35 30.9304C155.35 31.7685 155.182 32.5053 154.844 33.141C154.507 33.7731 154.022 34.2667 153.39 34.6218C152.758 34.9734 151.998 35.1491 151.11 35.1491ZM151.132 32.9759C151.38 32.9759 151.595 32.8924 151.776 32.7255C151.957 32.5586 152.098 32.3207 152.197 32.0117C152.296 31.7028 152.346 31.3352 152.346 30.9091C152.346 30.4794 152.296 30.1119 152.197 29.8065C152.098 29.4975 151.957 29.2596 151.776 29.0927C151.595 28.9258 151.38 28.8423 151.132 28.8423C150.869 28.8423 150.643 28.9258 150.455 29.0927C150.267 29.2596 150.123 29.4975 150.024 29.8065C149.924 30.1119 149.875 30.4794 149.875 30.9091C149.875 31.3352 149.924 31.7028 150.024 32.0117C150.123 32.3207 150.267 32.5586 150.455 32.7255C150.643 32.8924 150.869 32.9759 151.132 32.9759ZM159.505 35.1065C158.923 35.1065 158.387 34.9538 157.897 34.6484C157.41 34.343 157.019 33.8796 156.725 33.2582C156.434 32.6367 156.288 31.8537 156.288 30.9091C156.288 29.9219 156.441 29.1193 156.746 28.5014C157.055 27.8835 157.453 27.4308 157.939 27.1431C158.429 26.8555 158.944 26.7116 159.484 26.7116C159.889 26.7116 160.244 26.7827 160.549 26.9247C160.855 27.0632 161.11 27.2496 161.316 27.484C161.522 27.7148 161.679 27.9687 161.785 28.2457H161.828V24.0909H164.768V35H161.849V33.6577H161.785C161.671 33.9347 161.508 34.1832 161.295 34.4034C161.085 34.62 160.83 34.7923 160.528 34.9201C160.23 35.0444 159.889 35.1065 159.505 35.1065ZM160.592 32.848C160.862 32.848 161.093 32.7699 161.284 32.6136C161.48 32.4538 161.629 32.2301 161.732 31.9425C161.838 31.6513 161.892 31.3068 161.892 30.9091C161.892 30.5043 161.838 30.158 161.732 29.8704C161.629 29.5792 161.48 29.3572 161.284 29.2045C161.093 29.0483 160.862 28.9702 160.592 28.9702C160.322 28.9702 160.091 29.0483 159.899 29.2045C159.711 29.3572 159.566 29.5792 159.463 29.8704C159.363 30.158 159.313 30.5043 159.313 30.9091C159.313 31.3139 159.363 31.6619 159.463 31.9531C159.566 32.2408 159.711 32.4627 159.899 32.619C160.091 32.7717 160.322 32.848 160.592 32.848Z"></path>
<path fill="white" d="M80.6477 41.1818V47H79.9432V41.9205H79.9091L78.4886 42.8636V42.1477L79.9432 41.1818H80.6477ZM86.4119 47.0909C85.9915 47.0909 85.6288 46.9981 85.3239 46.8125C85.0208 46.625 84.7869 46.3636 84.6222 46.0284C84.4593 45.6913 84.3778 45.2992 84.3778 44.8523C84.3778 44.4053 84.4593 44.0114 84.6222 43.6705C84.7869 43.3277 85.0161 43.0606 85.3097 42.8693C85.6051 42.6761 85.9498 42.5795 86.3438 42.5795C86.571 42.5795 86.7955 42.6174 87.017 42.6932C87.2386 42.7689 87.4403 42.892 87.6222 43.0625C87.804 43.2311 87.9489 43.4545 88.0568 43.733C88.1648 44.0114 88.2188 44.3542 88.2188 44.7614V45.0455H84.8551V44.4659H87.5369C87.5369 44.2197 87.4877 44 87.3892 43.8068C87.2926 43.6136 87.1544 43.4612 86.9744 43.3494C86.7964 43.2377 86.5862 43.1818 86.3438 43.1818C86.0767 43.1818 85.8456 43.2481 85.6506 43.3807C85.4574 43.5114 85.3087 43.6818 85.2045 43.892C85.1004 44.1023 85.0483 44.3277 85.0483 44.5682V44.9545C85.0483 45.2841 85.1051 45.5634 85.2188 45.7926C85.3343 46.0199 85.4943 46.1932 85.6989 46.3125C85.9034 46.4299 86.1411 46.4886 86.4119 46.4886C86.5881 46.4886 86.7472 46.464 86.8892 46.4148C87.0331 46.3636 87.1572 46.2879 87.2614 46.1875C87.3655 46.0852 87.446 45.9583 87.5028 45.8068L88.1506 45.9886C88.0824 46.2083 87.9678 46.4015 87.8068 46.5682C87.6458 46.733 87.447 46.8617 87.2102 46.9545C86.9735 47.0455 86.7074 47.0909 86.4119 47.0909ZM89.9091 44.375V47H89.2386V42.6364H89.8864V43.3182H89.9432C90.0455 43.0966 90.2008 42.9186 90.4091 42.7841C90.6174 42.6477 90.8864 42.5795 91.2159 42.5795C91.5114 42.5795 91.7699 42.6402 91.9915 42.7614C92.2131 42.8807 92.3854 43.0625 92.5085 43.3068C92.6316 43.5492 92.6932 43.8561 92.6932 44.2273V47H92.0227V44.2727C92.0227 43.9299 91.9337 43.6629 91.7557 43.4716C91.5777 43.2784 91.3333 43.1818 91.0227 43.1818C90.8087 43.1818 90.6174 43.2282 90.4489 43.321C90.2822 43.4138 90.1506 43.5492 90.054 43.7273C89.9574 43.9053 89.9091 44.1212 89.9091 44.375ZM95.7479 47.0909C95.3274 47.0909 94.9647 46.9981 94.6598 46.8125C94.3568 46.625 94.1229 46.3636 93.9581 46.0284C93.7952 45.6913 93.7138 45.2992 93.7138 44.8523C93.7138 44.4053 93.7952 44.0114 93.9581 43.6705C94.1229 43.3277 94.352 43.0606 94.6456 42.8693C94.9411 42.6761 95.2857 42.5795 95.6797 42.5795C95.907 42.5795 96.1314 42.6174 96.353 42.6932C96.5746 42.7689 96.7763 42.892 96.9581 43.0625C97.1399 43.2311 97.2848 43.4545 97.3928 43.733C97.5007 44.0114 97.5547 44.3542 97.5547 44.7614V45.0455H94.1911V44.4659H96.8729C96.8729 44.2197 96.8236 44 96.7251 43.8068C96.6286 43.6136 96.4903 43.4612 96.3104 43.3494C96.1323 43.2377 95.9221 43.1818 95.6797 43.1818C95.4126 43.1818 95.1816 43.2481 94.9865 43.3807C94.7933 43.5114 94.6446 43.6818 94.5405 43.892C94.4363 44.1023 94.3842 44.3277 94.3842 44.5682V44.9545C94.3842 45.2841 94.4411 45.5634 94.5547 45.7926C94.6702 46.0199 94.8303 46.1932 95.0348 46.3125C95.2393 46.4299 95.477 46.4886 95.7479 46.4886C95.924 46.4886 96.0831 46.464 96.2251 46.4148C96.3691 46.3636 96.4931 46.2879 96.5973 46.1875C96.7015 46.0852 96.782 45.9583 96.8388 45.8068L97.4865 45.9886C97.4183 46.2083 97.3037 46.4015 97.1428 46.5682C96.9818 46.733 96.7829 46.8617 96.5462 46.9545C96.3094 47.0455 96.0433 47.0909 95.7479 47.0909ZM98.5746 47V42.6364H99.2223V43.2955H99.2678C99.3473 43.0795 99.4912 42.9044 99.6996 42.7699C99.9079 42.6354 100.143 42.5682 100.404 42.5682C100.453 42.5682 100.515 42.5691 100.589 42.571C100.663 42.5729 100.719 42.5758 100.756 42.5795V43.2614C100.734 43.2557 100.682 43.2472 100.6 43.2358C100.521 43.2225 100.436 43.2159 100.347 43.2159C100.135 43.2159 99.9458 43.2604 99.7791 43.3494C99.6143 43.4366 99.4837 43.5578 99.3871 43.7131C99.2924 43.8665 99.245 44.0417 99.245 44.2386V47H98.5746ZM103.18 48.7273C102.856 48.7273 102.577 48.6856 102.344 48.6023C102.112 48.5208 101.917 48.4129 101.762 48.2784C101.609 48.1458 101.487 48.0038 101.396 47.8523L101.93 47.4773C101.99 47.5568 102.067 47.6477 102.16 47.75C102.253 47.8542 102.379 47.9441 102.54 48.0199C102.703 48.0975 102.916 48.1364 103.18 48.1364C103.532 48.1364 103.823 48.0511 104.052 47.8807C104.281 47.7102 104.396 47.4432 104.396 47.0795V46.1932H104.339C104.29 46.2727 104.219 46.3712 104.129 46.4886C104.04 46.6042 103.911 46.7074 103.742 46.7983C103.576 46.8873 103.35 46.9318 103.066 46.9318C102.714 46.9318 102.397 46.8485 102.117 46.6818C101.839 46.5152 101.618 46.2727 101.455 45.9545C101.294 45.6364 101.214 45.25 101.214 44.7955C101.214 44.3485 101.292 43.9593 101.45 43.6278C101.607 43.2945 101.826 43.0369 102.106 42.8551C102.386 42.6714 102.71 42.5795 103.077 42.5795C103.362 42.5795 103.587 42.6269 103.754 42.7216C103.922 42.8144 104.051 42.9205 104.14 43.0398C104.231 43.1572 104.301 43.2538 104.35 43.3295H104.418V42.6364H105.066V47.125C105.066 47.5 104.981 47.8049 104.81 48.0398C104.642 48.2765 104.415 48.4498 104.129 48.5597C103.844 48.6714 103.528 48.7273 103.18 48.7273ZM103.157 46.3295C103.426 46.3295 103.653 46.268 103.839 46.1449C104.024 46.0218 104.165 45.8447 104.262 45.6136C104.359 45.3826 104.407 45.1061 104.407 44.7841C104.407 44.4697 104.36 44.1922 104.265 43.9517C104.17 43.7112 104.03 43.5227 103.844 43.3864C103.659 43.25 103.43 43.1818 103.157 43.1818C102.873 43.1818 102.636 43.2538 102.447 43.3977C102.259 43.5417 102.118 43.7348 102.023 43.9773C101.931 44.2197 101.884 44.4886 101.884 44.7841C101.884 45.0871 101.932 45.3551 102.026 45.5881C102.123 45.8191 102.265 46.0009 102.452 46.1335C102.642 46.2642 102.877 46.3295 103.157 46.3295ZM106.725 48.6364C106.612 48.6364 106.51 48.6269 106.421 48.608C106.332 48.5909 106.271 48.5739 106.237 48.5568L106.407 47.9659C106.57 48.0076 106.714 48.0227 106.839 48.0114C106.964 48 107.075 47.9441 107.171 47.8438C107.27 47.7453 107.36 47.5852 107.441 47.3636L107.566 47.0227L105.952 42.6364H106.68L107.884 46.1136H107.93L109.134 42.6364H109.862L108.009 47.6364C107.926 47.8617 107.823 48.0483 107.7 48.196C107.576 48.3456 107.433 48.4564 107.271 48.5284C107.11 48.6004 106.928 48.6364 106.725 48.6364ZM112.35 40.9091L110.475 47.875H109.862L111.737 40.9091H112.35ZM114.918 47.0909C114.509 47.0909 114.156 46.9943 113.861 46.8011C113.565 46.608 113.338 46.3419 113.179 46.0028C113.02 45.6638 112.94 45.2765 112.94 44.8409C112.94 44.3977 113.022 44.0066 113.185 43.6676C113.349 43.3267 113.579 43.0606 113.872 42.8693C114.168 42.6761 114.512 42.5795 114.906 42.5795C115.213 42.5795 115.49 42.6364 115.736 42.75C115.982 42.8636 116.184 43.0227 116.341 43.2273C116.498 43.4318 116.596 43.6705 116.634 43.9432H115.963C115.912 43.7443 115.798 43.5682 115.622 43.4148C115.448 43.2595 115.213 43.1818 114.918 43.1818C114.656 43.1818 114.427 43.25 114.23 43.3864C114.035 43.5208 113.883 43.7112 113.773 43.9574C113.665 44.2017 113.611 44.4886 113.611 44.8182C113.611 45.1553 113.664 45.4489 113.77 45.6989C113.878 45.9489 114.029 46.143 114.224 46.2812C114.421 46.4195 114.652 46.4886 114.918 46.4886C115.092 46.4886 115.25 46.4583 115.392 46.3977C115.534 46.3371 115.654 46.25 115.753 46.1364C115.851 46.0227 115.921 45.8864 115.963 45.7273H116.634C116.596 45.9848 116.502 46.2169 116.352 46.4233C116.205 46.6278 116.009 46.7907 115.764 46.9119C115.522 47.0312 115.24 47.0909 114.918 47.0909ZM118.284 41.1818V47H117.614V41.1818H118.284ZM119.512 47V42.6364H120.183V47H119.512ZM119.853 41.9091C119.722 41.9091 119.61 41.8646 119.515 41.7756C119.422 41.6866 119.376 41.5795 119.376 41.4545C119.376 41.3295 119.422 41.2225 119.515 41.1335C119.61 41.0445 119.722 41 119.853 41C119.984 41 120.095 41.0445 120.188 41.1335C120.283 41.2225 120.33 41.3295 120.33 41.4545C120.33 41.5795 120.283 41.6866 120.188 41.7756C120.095 41.8646 119.984 41.9091 119.853 41.9091ZM123.183 47.0909C122.774 47.0909 122.422 46.9943 122.126 46.8011C121.831 46.608 121.604 46.3419 121.445 46.0028C121.286 45.6638 121.206 45.2765 121.206 44.8409C121.206 44.3977 121.287 44.0066 121.45 43.6676C121.615 43.3267 121.844 43.0606 122.138 42.8693C122.433 42.6761 122.778 42.5795 123.172 42.5795C123.479 42.5795 123.755 42.6364 124.001 42.75C124.248 42.8636 124.449 43.0227 124.607 43.2273C124.764 43.4318 124.861 43.6705 124.899 43.9432H124.229C124.178 43.7443 124.064 43.5682 123.888 43.4148C123.714 43.2595 123.479 43.1818 123.183 43.1818C122.922 43.1818 122.693 43.25 122.496 43.3864C122.301 43.5208 122.148 43.7112 122.038 43.9574C121.93 44.2017 121.876 44.4886 121.876 44.8182C121.876 45.1553 121.929 45.4489 122.036 45.6989C122.143 45.9489 122.295 46.143 122.49 46.2812C122.687 46.4195 122.918 46.4886 123.183 46.4886C123.357 46.4886 123.516 46.4583 123.658 46.3977C123.8 46.3371 123.92 46.25 124.018 46.1364C124.117 46.0227 124.187 45.8864 124.229 45.7273H124.899C124.861 45.9848 124.768 46.2169 124.618 46.4233C124.47 46.6278 124.274 46.7907 124.03 46.9119C123.787 47.0312 123.505 47.0909 123.183 47.0909ZM126.504 45.4091L126.493 44.5795H126.629L128.538 42.6364H129.368L127.334 44.6932H127.277L126.504 45.4091ZM125.879 47V41.1818H126.55V47H125.879ZM128.652 47L126.947 44.8409L127.425 44.375L129.504 47H128.652Z"></path>
<path fill="#CCD6DD" d="M21.1111 32.2222C20.7428 32.2222 20.3895 32.0759 20.129 31.8154C19.8686 31.5549 19.7222 31.2016 19.7222 30.8333V15.5555C19.7222 15.1872 19.8686 14.8339 20.129 14.5734C20.3895 14.313 20.7428 14.1666 21.1111 14.1666C21.4795 14.1666 21.8327 14.313 22.0932 14.5734C22.3537 14.8339 22.5 15.1872 22.5 15.5555V30.8333C22.5 31.2016 22.3537 31.5549 22.0932 31.8154C21.8327 32.0759 21.4795 32.2222 21.1111 32.2222Z"></path>
<path fill="#3B88C3" d="M12.7778 55.8333C12.7778 52.7278 18.3333 47.5 22.5 47.5V54.4444C21.1111 54.4444 16.9444 55.8333 15.5555 57.2222C14.1667 58.6111 12.7778 57.2222 12.7778 55.8333ZM32.2222 55.8333C32.2222 52.7278 26.6667 47.5 22.5 47.5V54.4444C23.8889 54.4444 28.0555 55.8333 29.4444 57.2222C30.8333 58.6111 32.2222 57.2222 32.2222 55.8333Z"></path>
<path fill="#3B88C3" d="M30.8333 29.4445C33.6111 29.4445 36.3889 30.8333 36.3889 32.2222C36.3889 36.3889 31.9903 48.2528 25.0458 49.6417C18.1014 51.0306 30.8333 29.4445 30.8333 29.4445ZM14.1667 37.7778C12.7778 39.1667 11.3889 41.9445 11.3889 44.7222C11.3889 47.5 15.2083 41.8861 16.9444 43.3333C19.3306 45.3222 14.1667 37.7778 14.1667 37.7778Z"></path>
<path fill="black" d="M17.7542 27.0139C19.8375 27.7084 21.3417 27.1875 22.8472 25.9722C24.3528 24.757 24.5833 29.5028 22.5 31.0653C20.4167 32.6278 16.7708 36.2736 16.8292 33.0334C16.8861 29.7917 17.7542 27.0139 17.7542 27.0139Z"></path>
<path fill="#55ACEE" d="M22.5319 25.2792C21.7347 26.1542 19.9542 28.5181 19.0861 31.4111C17.8708 32.1056 17.9292 29.7333 18.1028 28.9806C18.4153 27.6264 18.8055 27.6236 18.5833 26.8681C18.2917 26.1028 17.4875 26.3625 17.0292 26.6472C14.65 28.0139 12.7778 30.5556 12.7778 35C12.7778 42.6695 19.7222 53.0556 22.5 53.0556C25.2778 53.0556 32.2222 42.6695 32.2222 35C32.2222 27.3486 26.6958 25.2889 22.5319 25.2792Z"></path>
<path fill="black" d="M25.9722 33.6111C27.1228 33.6111 28.0556 32.6784 28.0556 31.5278C28.0556 30.3772 27.1228 29.4445 25.9722 29.4445C24.8216 29.4445 23.8889 30.3772 23.8889 31.5278C23.8889 32.6784 24.8216 33.6111 25.9722 33.6111Z"></path>
<path fill="#226699" d="M22.4361 41.7042C20.3472 41.7042 18.5069 40.9569 16.8806 40.1083C16.5538 39.9378 16.3082 39.6444 16.1978 39.2928C16.0873 38.9412 16.1211 38.56 16.2917 38.2333C16.4622 37.9066 16.7556 37.661 17.1072 37.5506C17.4588 37.4401 17.8399 37.4739 18.1667 37.6444C20.7931 39.0167 23.1528 39.568 26.1319 37.7972C26.448 37.6257 26.8182 37.5834 27.1649 37.6791C27.5115 37.7748 27.8076 38.001 27.9909 38.3104C28.1743 38.6197 28.2306 38.9881 28.1481 39.3381C28.0657 39.6881 27.8508 39.9925 27.5486 40.1875C25.6958 41.2875 23.9958 41.7042 22.4361 41.7042Z"></path>
<path fill="#662113" d="M51.4361 58.9584C50.75 58.6153 49.9889 57.6278 50.4236 56.6015C52.2764 52.232 56.3653 33.1292 52.6514 22.2112C51.9556 20.1667 49.7097 17.1292 46.9847 15.457C38.1833 10.0584 25.032 13.0153 23.1945 13.9348C22.507 14.2792 20.3556 14.9681 20.0111 14.282C19.6681 13.5959 20.8292 12.8889 21.5153 12.5459C23.9542 11.3278 37.1597 7.15978 48.8306 13.6445C50.9139 14.8015 53.8167 16.9445 55.3625 21.0098C59.8861 32.9084 56.8167 53.532 54.2695 58.2626C53.4611 59.7681 51.6361 59.057 51.4361 58.9584Z"></path>
<path fill="#99AAB5" d="M48.8889 50.2777C51.9571 50.2777 54.4444 47.7904 54.4444 44.7222C54.4444 41.6539 51.9571 39.1666 48.8889 39.1666C45.8206 39.1666 43.3333 41.6539 43.3333 44.7222C43.3333 47.7904 45.8206 50.2777 48.8889 50.2777Z"></path>
<path fill="#66757F" d="M48.8889 47.5C50.423 47.5 51.6667 46.2564 51.6667 44.7222C51.6667 43.1881 50.423 41.9445 48.8889 41.9445C47.3548 41.9445 46.1111 43.1881 46.1111 44.7222C46.1111 46.2564 47.3548 47.5 48.8889 47.5Z"></path>
</svg>
