<svg xmlns="http://www.w3.org/2000/svg" fill="none" viewBox="0 0 180 70" height="70" width="180">
<rect fill="#303030" height="70" width="180"></rect>
<rect fill="#303030" height="70" width="70"></rect>
<path fill="#C3C3C3" d="M54.1107 37.8325C54.1107 36.4945 56.1486 29.5204 58.1878 27.4825C60.2243 25.4447 58.1878 23.2462 56.1499 23.2462C51.5938 23.2462 43.9213 32.4802 43.9213 37.8325C43.9213 44.5229 51.5924 51.7806 56.1499 51.7806C58.1878 51.7806 60.2257 49.9019 58.1878 47.8627C56.1499 45.8262 54.1107 40.5087 54.1107 37.8325Z"></path>
<path fill="#C3C3C3" d="M23.1584 24.9656C23.1584 20.8898 25.1615 16.8127 27.1994 16.8127C33.3131 16.8127 45.0252 23.2663 47.0631 33.457C49.1023 43.6478 23.1584 24.9656 23.1584 24.9656ZM29.6534 49.4229C31.6913 51.4607 35.7684 53.5 39.8455 53.5C43.9213 53.5 35.6828 47.8948 37.8076 45.3484C40.7246 41.8467 29.6534 49.4229 29.6534 49.4229Z"></path>
<path fill="#FF0000" d="M13.8589 44.1576C14.8771 41.1001 14.1131 38.8923 12.3294 36.6858C10.5458 34.4767 17.5105 34.1381 19.8026 37.1956C22.0947 40.2531 27.447 45.6 22.6901 45.5184C17.936 45.4315 13.8589 44.1576 13.8589 44.1576Z"></path>
<path fill="#EEEEEE" d="M11.3125 37.1474C12.5957 38.3169 20.9774 42.9132 20.8998 44.0211C20.8222 45.129 17.8503 43.9033 16.7451 43.6478C14.758 43.1901 14.196 42.8476 13.6448 42.9439C12.5208 43.3735 12.9035 44.551 13.3209 45.224C15.3254 48.7164 23.0701 51.4621 29.5919 51.4621C40.8477 51.4621 52.0741 41.2727 52.0741 37.1956C52.0741 33.1198 39.5699 22.9277 28.314 22.9277C17.0863 22.9264 11.3286 31.0378 11.3125 37.1474Z"></path>
<path fill="#FF0000" d="M20.4542 28.4659C21.9314 28.4659 23.1303 29.6622 23.1303 31.1421C23.1303 32.6207 21.9314 33.8182 20.4542 33.8182C18.9756 33.8182 17.7781 32.6193 17.7781 31.1421C17.7781 29.6622 18.9756 28.4659 20.4542 28.4659Z"></path>
<path fill="#999999" d="M31.2658 45.8341C31.0571 45.8341 30.8457 45.7859 30.6476 45.6829C29.992 45.3403 29.7391 44.5322 30.0816 43.8765C32.2025 39.8168 33.0495 36.1585 30.2877 31.5087C29.9104 30.8731 30.1191 30.0529 30.7547 29.6742C31.3903 29.2955 32.2105 29.5083 32.5892 30.1412C36.1926 36.2094 34.5428 41.1161 32.4527 45.1156C32.2145 45.5732 31.7475 45.8341 31.2658 45.8341Z"></path>
<path fill="white" d="M81.5369 35H78.3409L81.9418 24.0909H85.9901L89.5909 35H86.3949L84.0085 27.0952H83.9233L81.5369 35ZM80.9403 30.696H86.9489V32.9119H80.9403V30.696ZM95.9896 31.4205V26.8182H98.93V35H96.1388V33.4446H96.0535C95.876 33.9666 95.5653 34.375 95.1214 34.6697C94.6775 34.9609 94.1501 35.1065 93.5393 35.1065C92.9676 35.1065 92.4669 34.9751 92.0372 34.7124C91.6111 34.4496 91.279 34.0874 91.0411 33.6257C90.8067 33.1641 90.6878 32.6349 90.6842 32.0384V26.8182H93.6246V31.4205C93.6281 31.8253 93.7311 32.1431 93.9335 32.3739C94.1395 32.6048 94.4271 32.7202 94.7964 32.7202C95.0415 32.7202 95.2528 32.6687 95.4303 32.5657C95.6114 32.4592 95.7499 32.31 95.8458 32.1183C95.9452 31.9229 95.9932 31.6903 95.9896 31.4205ZM105.305 26.8182V28.9489H99.9141V26.8182H105.305ZM100.958 24.858H103.898V32.3686C103.898 32.4822 103.918 32.5781 103.957 32.6562C103.996 32.7308 104.056 32.7876 104.138 32.8267C104.22 32.8622 104.325 32.88 104.452 32.88C104.541 32.88 104.644 32.8693 104.761 32.848C104.882 32.8267 104.971 32.8089 105.028 32.7947L105.454 34.8615C105.322 34.9006 105.134 34.9485 104.889 35.0053C104.648 35.0621 104.36 35.0994 104.026 35.1172C103.352 35.1527 102.785 35.0835 102.327 34.9094C101.869 34.7319 101.525 34.4531 101.294 34.0732C101.063 33.6932 100.951 33.2173 100.958 32.6456V24.858ZM110.358 35.1491C109.471 35.1491 108.711 34.9734 108.079 34.6218C107.446 34.2667 106.962 33.7731 106.624 33.141C106.287 32.5053 106.118 31.7685 106.118 30.9304C106.118 30.0923 106.287 29.3572 106.624 28.7251C106.962 28.0895 107.446 27.5959 108.079 27.2443C108.711 26.8892 109.471 26.7116 110.358 26.7116C111.246 26.7116 112.006 26.8892 112.638 27.2443C113.27 27.5959 113.755 28.0895 114.092 28.7251C114.43 29.3572 114.598 30.0923 114.598 30.9304C114.598 31.7685 114.43 32.5053 114.092 33.141C113.755 33.7731 113.27 34.2667 112.638 34.6218C112.006 34.9734 111.246 35.1491 110.358 35.1491ZM110.38 32.9759C110.628 32.9759 110.843 32.8924 111.024 32.7255C111.205 32.5586 111.346 32.3207 111.445 32.0117C111.544 31.7028 111.594 31.3352 111.594 30.9091C111.594 30.4794 111.544 30.1119 111.445 29.8065C111.346 29.4975 111.205 29.2596 111.024 29.0927C110.843 28.9258 110.628 28.8423 110.38 28.8423C110.117 28.8423 109.891 28.9258 109.703 29.0927C109.515 29.2596 109.371 29.4975 109.272 29.8065C109.172 30.1119 109.123 30.4794 109.123 30.9091C109.123 31.3352 109.172 31.7028 109.272 32.0117C109.371 32.3207 109.515 32.5586 109.703 32.7255C109.891 32.8924 110.117 32.9759 110.38 32.9759ZM120.692 26.8182V28.9489H115.216V26.8182H120.692ZM116.26 35V26.5838C116.26 25.9091 116.381 25.3498 116.623 24.9059C116.864 24.462 117.205 24.13 117.645 23.9098C118.086 23.6896 118.604 23.5795 119.201 23.5795C119.574 23.5795 119.936 23.608 120.287 23.6648C120.642 23.7216 120.905 23.7713 121.076 23.8139L120.65 25.9233C120.543 25.8913 120.419 25.8665 120.277 25.8487C120.135 25.8274 120.01 25.8168 119.904 25.8168C119.627 25.8168 119.44 25.8754 119.345 25.9925C119.249 26.1097 119.201 26.2642 119.201 26.456V35H116.26ZM121.827 35V26.8182H124.767V35H121.827ZM123.297 25.9659C122.899 25.9659 122.558 25.8345 122.274 25.5717C121.99 25.3089 121.848 24.9929 121.848 24.6236C121.848 24.2543 121.99 23.9382 122.274 23.6754C122.558 23.4126 122.899 23.2812 123.297 23.2812C123.698 23.2812 124.039 23.4126 124.32 23.6754C124.604 23.9382 124.746 24.2543 124.746 24.6236C124.746 24.9929 124.604 25.3089 124.32 25.5717C124.039 25.8345 123.698 25.9659 123.297 25.9659ZM133.744 29.4815H131.038C131.024 29.3146 130.965 29.1708 130.862 29.0501C130.759 28.9293 130.626 28.837 130.463 28.7731C130.303 28.7056 130.125 28.6719 129.93 28.6719C129.678 28.6719 129.461 28.718 129.28 28.8104C129.099 28.9027 129.01 29.0341 129.014 29.2045C129.01 29.3253 129.062 29.4371 129.168 29.5401C129.278 29.6431 129.49 29.723 129.802 29.7798L131.464 30.0781C132.302 30.2308 132.925 30.4883 133.334 30.8505C133.746 31.2092 133.953 31.6903 133.957 32.294C133.953 32.8764 133.779 33.3825 133.435 33.8121C133.094 34.2383 132.627 34.5685 132.034 34.8029C131.445 35.0337 130.772 35.1491 130.015 35.1491C128.765 35.1491 127.787 34.8935 127.08 34.3821C126.377 33.8707 125.985 33.196 125.903 32.358H128.822C128.861 32.6172 128.989 32.8178 129.206 32.9599C129.426 33.0984 129.703 33.1676 130.037 33.1676C130.306 33.1676 130.528 33.1214 130.702 33.0291C130.88 32.9368 130.971 32.8054 130.974 32.6349C130.971 32.4787 130.892 32.3544 130.74 32.2621C130.591 32.1697 130.356 32.0952 130.037 32.0384L128.588 31.7827C127.753 31.6371 127.128 31.3601 126.713 30.9517C126.297 30.5433 126.091 30.0178 126.095 29.375C126.091 28.8068 126.24 28.3256 126.542 27.9315C126.848 27.5337 127.283 27.2319 127.847 27.0259C128.415 26.8164 129.088 26.7116 129.866 26.7116C131.049 26.7116 131.981 26.9567 132.663 27.4467C133.348 27.9368 133.708 28.6151 133.744 29.4815ZM138.024 30.3977V35H135.084V24.0909H137.917V28.3736H138.003C138.187 27.8516 138.494 27.445 138.924 27.1538C139.354 26.859 139.871 26.7116 140.474 26.7116C141.053 26.7116 141.556 26.843 141.982 27.1058C142.411 27.3686 142.743 27.7308 142.978 28.1925C143.216 28.6541 143.333 29.1832 143.329 29.7798V35H140.389V30.3977C140.393 29.9929 140.291 29.6751 140.085 29.4442C139.883 29.2134 139.594 29.098 139.217 29.098C138.979 29.098 138.77 29.1513 138.589 29.2578C138.411 29.3608 138.273 29.5099 138.173 29.7053C138.077 29.897 138.028 30.1278 138.024 30.3977Z"></path>
<path fill="white" d="M80.6477 41.1818V47H79.9432V41.9205H79.9091L78.4886 42.8636V42.1477L79.9432 41.1818H80.6477ZM86.4119 47.0909C85.9915 47.0909 85.6288 46.9981 85.3239 46.8125C85.0208 46.625 84.7869 46.3636 84.6222 46.0284C84.4593 45.6913 84.3778 45.2992 84.3778 44.8523C84.3778 44.4053 84.4593 44.0114 84.6222 43.6705C84.7869 43.3277 85.0161 43.0606 85.3097 42.8693C85.6051 42.6761 85.9498 42.5795 86.3438 42.5795C86.571 42.5795 86.7955 42.6174 87.017 42.6932C87.2386 42.7689 87.4403 42.892 87.6222 43.0625C87.804 43.2311 87.9489 43.4545 88.0568 43.733C88.1648 44.0114 88.2188 44.3542 88.2188 44.7614V45.0455H84.8551V44.4659H87.5369C87.5369 44.2197 87.4877 44 87.3892 43.8068C87.2926 43.6136 87.1544 43.4612 86.9744 43.3494C86.7964 43.2377 86.5862 43.1818 86.3438 43.1818C86.0767 43.1818 85.8456 43.2481 85.6506 43.3807C85.4574 43.5114 85.3087 43.6818 85.2045 43.892C85.1004 44.1023 85.0483 44.3277 85.0483 44.5682V44.9545C85.0483 45.2841 85.1051 45.5634 85.2188 45.7926C85.3343 46.0199 85.4943 46.1932 85.6989 46.3125C85.9034 46.4299 86.1411 46.4886 86.4119 46.4886C86.5881 46.4886 86.7472 46.464 86.8892 46.4148C87.0331 46.3636 87.1572 46.2879 87.2614 46.1875C87.3655 46.0852 87.446 45.9583 87.5028 45.8068L88.1506 45.9886C88.0824 46.2083 87.9678 46.4015 87.8068 46.5682C87.6458 46.733 87.447 46.8617 87.2102 46.9545C86.9735 47.0455 86.7074 47.0909 86.4119 47.0909ZM89.9091 44.375V47H89.2386V42.6364H89.8864V43.3182H89.9432C90.0455 43.0966 90.2008 42.9186 90.4091 42.7841C90.6174 42.6477 90.8864 42.5795 91.2159 42.5795C91.5114 42.5795 91.7699 42.6402 91.9915 42.7614C92.2131 42.8807 92.3854 43.0625 92.5085 43.3068C92.6316 43.5492 92.6932 43.8561 92.6932 44.2273V47H92.0227V44.2727C92.0227 43.9299 91.9337 43.6629 91.7557 43.4716C91.5777 43.2784 91.3333 43.1818 91.0227 43.1818C90.8087 43.1818 90.6174 43.2282 90.4489 43.321C90.2822 43.4138 90.1506 43.5492 90.054 43.7273C89.9574 43.9053 89.9091 44.1212 89.9091 44.375ZM95.7479 47.0909C95.3274 47.0909 94.9647 46.9981 94.6598 46.8125C94.3568 46.625 94.1229 46.3636 93.9581 46.0284C93.7952 45.6913 93.7138 45.2992 93.7138 44.8523C93.7138 44.4053 93.7952 44.0114 93.9581 43.6705C94.1229 43.3277 94.352 43.0606 94.6456 42.8693C94.9411 42.6761 95.2857 42.5795 95.6797 42.5795C95.907 42.5795 96.1314 42.6174 96.353 42.6932C96.5746 42.7689 96.7763 42.892 96.9581 43.0625C97.1399 43.2311 97.2848 43.4545 97.3928 43.733C97.5007 44.0114 97.5547 44.3542 97.5547 44.7614V45.0455H94.1911V44.4659H96.8729C96.8729 44.2197 96.8236 44 96.7251 43.8068C96.6286 43.6136 96.4903 43.4612 96.3104 43.3494C96.1323 43.2377 95.9221 43.1818 95.6797 43.1818C95.4126 43.1818 95.1816 43.2481 94.9865 43.3807C94.7933 43.5114 94.6446 43.6818 94.5405 43.892C94.4363 44.1023 94.3842 44.3277 94.3842 44.5682V44.9545C94.3842 45.2841 94.4411 45.5634 94.5547 45.7926C94.6702 46.0199 94.8303 46.1932 95.0348 46.3125C95.2393 46.4299 95.477 46.4886 95.7479 46.4886C95.924 46.4886 96.0831 46.464 96.2251 46.4148C96.3691 46.3636 96.4931 46.2879 96.5973 46.1875C96.7015 46.0852 96.782 45.9583 96.8388 45.8068L97.4865 45.9886C97.4183 46.2083 97.3037 46.4015 97.1428 46.5682C96.9818 46.733 96.7829 46.8617 96.5462 46.9545C96.3094 47.0455 96.0433 47.0909 95.7479 47.0909ZM98.5746 47V42.6364H99.2223V43.2955H99.2678C99.3473 43.0795 99.4912 42.9044 99.6996 42.7699C99.9079 42.6354 100.143 42.5682 100.404 42.5682C100.453 42.5682 100.515 42.5691 100.589 42.571C100.663 42.5729 100.719 42.5758 100.756 42.5795V43.2614C100.734 43.2557 100.682 43.2472 100.6 43.2358C100.521 43.2225 100.436 43.2159 100.347 43.2159C100.135 43.2159 99.9458 43.2604 99.7791 43.3494C99.6143 43.4366 99.4837 43.5578 99.3871 43.7131C99.2924 43.8665 99.245 44.0417 99.245 44.2386V47H98.5746ZM103.18 48.7273C102.856 48.7273 102.577 48.6856 102.344 48.6023C102.112 48.5208 101.917 48.4129 101.762 48.2784C101.609 48.1458 101.487 48.0038 101.396 47.8523L101.93 47.4773C101.99 47.5568 102.067 47.6477 102.16 47.75C102.253 47.8542 102.379 47.9441 102.54 48.0199C102.703 48.0975 102.916 48.1364 103.18 48.1364C103.532 48.1364 103.823 48.0511 104.052 47.8807C104.281 47.7102 104.396 47.4432 104.396 47.0795V46.1932H104.339C104.29 46.2727 104.219 46.3712 104.129 46.4886C104.04 46.6042 103.911 46.7074 103.742 46.7983C103.576 46.8873 103.35 46.9318 103.066 46.9318C102.714 46.9318 102.397 46.8485 102.117 46.6818C101.839 46.5152 101.618 46.2727 101.455 45.9545C101.294 45.6364 101.214 45.25 101.214 44.7955C101.214 44.3485 101.292 43.9593 101.45 43.6278C101.607 43.2945 101.826 43.0369 102.106 42.8551C102.386 42.6714 102.71 42.5795 103.077 42.5795C103.362 42.5795 103.587 42.6269 103.754 42.7216C103.922 42.8144 104.051 42.9205 104.14 43.0398C104.231 43.1572 104.301 43.2538 104.35 43.3295H104.418V42.6364H105.066V47.125C105.066 47.5 104.981 47.8049 104.81 48.0398C104.642 48.2765 104.415 48.4498 104.129 48.5597C103.844 48.6714 103.528 48.7273 103.18 48.7273ZM103.157 46.3295C103.426 46.3295 103.653 46.268 103.839 46.1449C104.024 46.0218 104.165 45.8447 104.262 45.6136C104.359 45.3826 104.407 45.1061 104.407 44.7841C104.407 44.4697 104.36 44.1922 104.265 43.9517C104.17 43.7112 104.03 43.5227 103.844 43.3864C103.659 43.25 103.43 43.1818 103.157 43.1818C102.873 43.1818 102.636 43.2538 102.447 43.3977C102.259 43.5417 102.118 43.7348 102.023 43.9773C101.931 44.2197 101.884 44.4886 101.884 44.7841C101.884 45.0871 101.932 45.3551 102.026 45.5881C102.123 45.8191 102.265 46.0009 102.452 46.1335C102.642 46.2642 102.877 46.3295 103.157 46.3295ZM106.725 48.6364C106.612 48.6364 106.51 48.6269 106.421 48.608C106.332 48.5909 106.271 48.5739 106.237 48.5568L106.407 47.9659C106.57 48.0076 106.714 48.0227 106.839 48.0114C106.964 48 107.075 47.9441 107.171 47.8438C107.27 47.7453 107.36 47.5852 107.441 47.3636L107.566 47.0227L105.952 42.6364H106.68L107.884 46.1136H107.93L109.134 42.6364H109.862L108.009 47.6364C107.926 47.8617 107.823 48.0483 107.7 48.196C107.576 48.3456 107.433 48.4564 107.271 48.5284C107.11 48.6004 106.928 48.6364 106.725 48.6364ZM112.35 40.9091L110.475 47.875H109.862L111.737 40.9091H112.35ZM116.236 43.6136L115.634 43.7841C115.596 43.6837 115.54 43.5862 115.466 43.4915C115.394 43.3949 115.295 43.3153 115.17 43.2528C115.045 43.1903 114.885 43.1591 114.69 43.1591C114.423 43.1591 114.201 43.2206 114.023 43.3438C113.847 43.465 113.759 43.6193 113.759 43.8068C113.759 43.9735 113.819 44.1051 113.94 44.2017C114.062 44.2983 114.251 44.3788 114.509 44.4432L115.156 44.6023C115.546 44.697 115.837 44.8419 116.028 45.0369C116.22 45.2301 116.315 45.4792 116.315 45.7841C116.315 46.0341 116.243 46.2576 116.099 46.4545C115.957 46.6515 115.759 46.8068 115.503 46.9205C115.247 47.0341 114.95 47.0909 114.611 47.0909C114.166 47.0909 113.797 46.9943 113.506 46.8011C113.214 46.608 113.029 46.3258 112.952 45.9545L113.588 45.7955C113.649 46.0303 113.763 46.2064 113.932 46.3239C114.102 46.4413 114.325 46.5 114.599 46.5C114.912 46.5 115.16 46.4337 115.344 46.3011C115.529 46.1667 115.622 46.0057 115.622 45.8182C115.622 45.6667 115.569 45.5398 115.463 45.4375C115.357 45.3333 115.194 45.2557 114.974 45.2045L114.247 45.0341C113.848 44.9394 113.554 44.7926 113.366 44.5938C113.181 44.393 113.088 44.142 113.088 43.8409C113.088 43.5947 113.157 43.3769 113.295 43.1875C113.436 42.9981 113.626 42.8494 113.866 42.7415C114.109 42.6335 114.384 42.5795 114.69 42.5795C115.122 42.5795 115.461 42.6742 115.707 42.8636C115.955 43.053 116.132 43.303 116.236 43.6136ZM119.154 47.0909C118.734 47.0909 118.371 46.9981 118.066 46.8125C117.763 46.625 117.529 46.3636 117.364 46.0284C117.201 45.6913 117.12 45.2992 117.12 44.8523C117.12 44.4053 117.201 44.0114 117.364 43.6705C117.529 43.3277 117.758 43.0606 118.052 42.8693C118.347 42.6761 118.692 42.5795 119.086 42.5795C119.313 42.5795 119.538 42.6174 119.759 42.6932C119.981 42.7689 120.183 42.892 120.364 43.0625C120.546 43.2311 120.691 43.4545 120.799 43.733C120.907 44.0114 120.961 44.3542 120.961 44.7614V45.0455H117.597V44.4659H120.279C120.279 44.2197 120.23 44 120.131 43.8068C120.035 43.6136 119.897 43.4612 119.717 43.3494C119.539 43.2377 119.328 43.1818 119.086 43.1818C118.819 43.1818 118.588 43.2481 118.393 43.3807C118.2 43.5114 118.051 43.6818 117.947 43.892C117.843 44.1023 117.79 44.3277 117.79 44.5682V44.9545C117.79 45.2841 117.847 45.5634 117.961 45.7926C118.076 46.0199 118.237 46.1932 118.441 46.3125C118.646 46.4299 118.883 46.4886 119.154 46.4886C119.33 46.4886 119.489 46.464 119.631 46.4148C119.775 46.3636 119.899 46.2879 120.004 46.1875C120.108 46.0852 120.188 45.9583 120.245 45.8068L120.893 45.9886C120.825 46.2083 120.71 46.4015 120.549 46.5682C120.388 46.733 120.189 46.8617 119.952 46.9545C119.716 47.0455 119.45 47.0909 119.154 47.0909ZM123.754 47.0909C123.344 47.0909 122.992 46.9943 122.697 46.8011C122.401 46.608 122.174 46.3419 122.015 46.0028C121.856 45.6638 121.776 45.2765 121.776 44.8409C121.776 44.3977 121.858 44.0066 122.021 43.6676C122.185 43.3267 122.415 43.0606 122.708 42.8693C123.004 42.6761 123.348 42.5795 123.742 42.5795C124.049 42.5795 124.326 42.6364 124.572 42.75C124.818 42.8636 125.02 43.0227 125.177 43.2273C125.334 43.4318 125.432 43.6705 125.469 43.9432H124.799C124.748 43.7443 124.634 43.5682 124.458 43.4148C124.284 43.2595 124.049 43.1818 123.754 43.1818C123.492 43.1818 123.263 43.25 123.066 43.3864C122.871 43.5208 122.719 43.7112 122.609 43.9574C122.501 44.2017 122.447 44.4886 122.447 44.8182C122.447 45.1553 122.5 45.4489 122.606 45.6989C122.714 45.9489 122.865 46.143 123.06 46.2812C123.257 46.4195 123.488 46.4886 123.754 46.4886C123.928 46.4886 124.086 46.4583 124.228 46.3977C124.37 46.3371 124.49 46.25 124.589 46.1364C124.687 46.0227 124.757 45.8864 124.799 45.7273H125.469C125.432 45.9848 125.338 46.2169 125.188 46.4233C125.04 46.6278 124.844 46.7907 124.6 46.9119C124.358 47.0312 124.076 47.0909 123.754 47.0909ZM128.222 47.0909C127.828 47.0909 127.483 46.9972 127.185 46.8097C126.89 46.6222 126.659 46.3598 126.492 46.0227C126.327 45.6856 126.245 45.2917 126.245 44.8409C126.245 44.3864 126.327 43.9896 126.492 43.6506C126.659 43.3116 126.89 43.0483 127.185 42.8608C127.483 42.6733 127.828 42.5795 128.222 42.5795C128.616 42.5795 128.961 42.6733 129.256 42.8608C129.554 43.0483 129.785 43.3116 129.95 43.6506C130.116 43.9896 130.2 44.3864 130.2 44.8409C130.2 45.2917 130.116 45.6856 129.95 46.0227C129.785 46.3598 129.554 46.6222 129.256 46.8097C128.961 46.9972 128.616 47.0909 128.222 47.0909ZM128.222 46.4886C128.522 46.4886 128.768 46.4119 128.961 46.2585C129.154 46.1051 129.297 45.9034 129.39 45.6534C129.483 45.4034 129.529 45.1326 129.529 44.8409C129.529 44.5492 129.483 44.2775 129.39 44.0256C129.297 43.7737 129.154 43.5701 128.961 43.4148C128.768 43.2595 128.522 43.1818 128.222 43.1818C127.923 43.1818 127.677 43.2595 127.484 43.4148C127.29 43.5701 127.147 43.7737 127.055 44.0256C126.962 44.2775 126.915 44.5492 126.915 44.8409C126.915 45.1326 126.962 45.4034 127.055 45.6534C127.147 45.9034 127.29 46.1051 127.484 46.2585C127.677 46.4119 127.923 46.4886 128.222 46.4886ZM131.893 44.375V47H131.223V42.6364H131.871V43.3182H131.928C132.03 43.0966 132.185 42.9186 132.393 42.7841C132.602 42.6477 132.871 42.5795 133.2 42.5795C133.496 42.5795 133.754 42.6402 133.976 42.7614C134.197 42.8807 134.37 43.0625 134.493 43.3068C134.616 43.5492 134.678 43.8561 134.678 44.2273V47H134.007V44.2727C134.007 43.9299 133.918 43.6629 133.74 43.4716C133.562 43.2784 133.318 43.1818 133.007 43.1818C132.793 43.1818 132.602 43.2282 132.433 43.321C132.267 43.4138 132.135 43.5492 132.038 43.7273C131.942 43.9053 131.893 44.1212 131.893 44.375ZM137.55 47.0909C137.187 47.0909 136.866 46.9991 136.587 46.8153C136.309 46.6297 136.091 46.3684 135.934 46.0312C135.777 45.6922 135.698 45.2917 135.698 44.8295C135.698 44.3712 135.777 43.9735 135.934 43.6364C136.091 43.2992 136.31 43.0388 136.59 42.8551C136.871 42.6714 137.194 42.5795 137.562 42.5795C137.846 42.5795 138.07 42.6269 138.235 42.7216C138.402 42.8144 138.529 42.9205 138.616 43.0398C138.705 43.1572 138.774 43.2538 138.823 43.3295H138.88V41.1818H139.55V47H138.903V46.3295H138.823C138.774 46.4091 138.704 46.5095 138.613 46.6307C138.522 46.75 138.392 46.857 138.224 46.9517C138.055 47.0445 137.831 47.0909 137.55 47.0909ZM137.641 46.4886C137.91 46.4886 138.138 46.4186 138.323 46.2784C138.509 46.1364 138.65 45.9403 138.746 45.6903C138.843 45.4384 138.891 45.1477 138.891 44.8182C138.891 44.4924 138.844 44.2074 138.749 43.9631C138.655 43.7169 138.514 43.5256 138.329 43.3892C138.143 43.2509 137.914 43.1818 137.641 43.1818C137.357 43.1818 137.121 43.2547 136.931 43.4006C136.744 43.5445 136.603 43.7405 136.508 43.9886C136.415 44.2348 136.369 44.5114 136.369 44.8182C136.369 45.1288 136.416 45.411 136.511 45.6648C136.607 45.9167 136.749 46.1174 136.937 46.267C137.126 46.4148 137.361 46.4886 137.641 46.4886Z"></path>
</svg>
