<svg xmlns="http://www.w3.org/2000/svg" fill="none" viewBox="0 0 240 70" height="70" width="240">
<path fill="black" d="M82.9006 35H78.7031V24.0909H82.858C83.9801 24.0909 84.9496 24.3093 85.7663 24.7461C86.5866 25.1793 87.2188 25.8043 87.6626 26.6211C88.1101 27.4343 88.3338 28.4091 88.3338 29.5455C88.3338 30.6818 88.1119 31.6584 87.668 32.4751C87.2241 33.2884 86.5955 33.9134 85.7823 34.3501C84.9691 34.7834 84.0085 35 82.9006 35ZM81.6648 32.4858H82.794C83.3338 32.4858 83.7937 32.3988 84.1737 32.2248C84.5572 32.0508 84.8484 31.7507 85.0472 31.3246C85.2496 30.8984 85.3509 30.3054 85.3509 29.5455C85.3509 28.7855 85.2479 28.1925 85.0419 27.7663C84.8395 27.3402 84.5412 27.0401 84.147 26.8661C83.7564 26.6921 83.277 26.6051 82.7088 26.6051H81.6648V32.4858ZM93.6672 35.1491C92.7936 35.1491 92.0407 34.9822 91.4086 34.6484C90.7801 34.3111 90.2954 33.8281 89.9545 33.1996C89.6171 32.5675 89.4484 31.8111 89.4484 30.9304C89.4484 30.0852 89.6189 29.3466 89.9598 28.7145C90.3007 28.0824 90.7819 27.5906 91.4033 27.239C92.0248 26.8874 92.7581 26.7116 93.6032 26.7116C94.2211 26.7116 94.7805 26.8075 95.2812 26.9993C95.7819 27.1911 96.2098 27.4698 96.5649 27.8356C96.92 28.1978 97.1934 28.6381 97.3852 29.1566C97.577 29.6751 97.6729 30.2592 97.6729 30.9091V31.5909H90.3646V29.9716H94.9669C94.9633 29.7372 94.903 29.5312 94.7858 29.3537C94.6721 29.1726 94.5177 29.0323 94.3224 28.9329C94.1306 28.8299 93.9122 28.7784 93.6672 28.7784C93.4292 28.7784 93.2108 28.8299 93.012 28.9329C92.8131 29.0323 92.6533 29.1708 92.5326 29.3484C92.4154 29.5259 92.3532 29.7337 92.3461 29.9716V31.7188C92.3461 31.9815 92.4012 32.2159 92.5113 32.4219C92.6214 32.6278 92.7794 32.7894 92.9854 32.9066C93.1913 33.0238 93.4399 33.0824 93.7311 33.0824C93.9335 33.0824 94.1182 33.054 94.2851 32.9972C94.4555 32.9403 94.6011 32.8587 94.7219 32.7521C94.8426 32.642 94.9314 32.5107 94.9882 32.358H97.6729C97.5805 32.9261 97.3621 33.4197 97.0177 33.8388C96.6732 34.2543 96.2169 34.5774 95.6487 34.8082C95.0841 35.0355 94.4236 35.1491 93.6672 35.1491ZM102.793 35.1491C101.92 35.1491 101.167 34.9822 100.535 34.6484C99.9061 34.3111 99.4213 33.8281 99.0804 33.1996C98.7431 32.5675 98.5744 31.8111 98.5744 30.9304C98.5744 30.0852 98.7449 29.3466 99.0858 28.7145C99.4267 28.0824 99.9078 27.5906 100.529 27.239C101.151 26.8874 101.884 26.7116 102.729 26.7116C103.347 26.7116 103.906 26.8075 104.407 26.9993C104.908 27.1911 105.336 27.4698 105.691 27.8356C106.046 28.1978 106.319 28.6381 106.511 29.1566C106.703 29.6751 106.799 30.2592 106.799 30.9091V31.5909H99.4906V29.9716H104.093C104.089 29.7372 104.029 29.5312 103.912 29.3537C103.798 29.1726 103.644 29.0323 103.448 28.9329C103.257 28.8299 103.038 28.7784 102.793 28.7784C102.555 28.7784 102.337 28.8299 102.138 28.9329C101.939 29.0323 101.779 29.1708 101.659 29.3484C101.541 29.5259 101.479 29.7337 101.472 29.9716V31.7188C101.472 31.9815 101.527 32.2159 101.637 32.4219C101.747 32.6278 101.905 32.7894 102.111 32.9066C102.317 33.0238 102.566 33.0824 102.857 33.0824C103.059 33.0824 103.244 33.054 103.411 32.9972C103.581 32.9403 103.727 32.8587 103.848 32.7521C103.969 32.642 104.057 32.5107 104.114 32.358H106.799C106.706 32.9261 106.488 33.4197 106.144 33.8388C105.799 34.2543 105.343 34.5774 104.775 34.8082C104.21 35.0355 103.55 35.1491 102.793 35.1491ZM107.999 38.0682V26.8182H110.918V28.2457H110.982C111.088 27.9687 111.244 27.7148 111.45 27.484C111.656 27.2496 111.912 27.0632 112.217 26.9247C112.523 26.7827 112.878 26.7116 113.283 26.7116C113.823 26.7116 114.336 26.8555 114.822 27.1431C115.312 27.4308 115.71 27.8835 116.015 28.5014C116.324 29.1193 116.479 29.9219 116.479 30.9091C116.479 31.8537 116.331 32.6367 116.037 33.2582C115.745 33.8796 115.355 34.343 114.865 34.6484C114.378 34.9538 113.844 35.1065 113.261 35.1065C112.878 35.1065 112.535 35.0444 112.233 34.9201C111.935 34.7923 111.679 34.62 111.466 34.4034C111.257 34.1832 111.095 33.9347 110.982 33.6577H110.939V38.0682H107.999ZM110.875 30.9091C110.875 31.3068 110.927 31.6513 111.03 31.9425C111.136 32.2301 111.285 32.4538 111.477 32.6136C111.672 32.7699 111.905 32.848 112.175 32.848C112.445 32.848 112.674 32.7717 112.862 32.619C113.054 32.4627 113.199 32.2408 113.299 31.9531C113.402 31.6619 113.453 31.3139 113.453 30.9091C113.453 30.5043 113.402 30.158 113.299 29.8704C113.199 29.5792 113.054 29.3572 112.862 29.2045C112.674 29.0483 112.445 28.9702 112.175 28.9702C111.905 28.9702 111.672 29.0483 111.477 29.2045C111.285 29.3572 111.136 29.5792 111.03 29.8704C110.927 30.158 110.875 30.5043 110.875 30.9091ZM130.841 28.1818H127.837C127.815 27.9332 127.759 27.7077 127.666 27.5053C127.577 27.3029 127.453 27.1289 127.293 26.9833C127.137 26.8342 126.947 26.7205 126.723 26.6424C126.5 26.5607 126.246 26.5199 125.962 26.5199C125.464 26.5199 125.044 26.6406 124.699 26.8821C124.358 27.1236 124.099 27.4698 123.922 27.9208C123.748 28.3718 123.661 28.9134 123.661 29.5455C123.661 30.2131 123.749 30.7724 123.927 31.2234C124.108 31.6708 124.369 32.0082 124.71 32.2354C125.051 32.4592 125.461 32.571 125.94 32.571C126.214 32.571 126.459 32.5373 126.675 32.4698C126.892 32.3988 127.08 32.2976 127.24 32.1662C127.4 32.0348 127.529 31.8768 127.629 31.6921C127.732 31.5039 127.801 31.2926 127.837 31.0582L130.841 31.0795C130.805 31.5412 130.676 32.0117 130.452 32.4911C130.228 32.967 129.911 33.4073 129.499 33.8121C129.09 34.2134 128.584 34.5366 127.98 34.7816C127.377 35.0266 126.675 35.1491 125.876 35.1491C124.875 35.1491 123.977 34.9343 123.181 34.5046C122.389 34.0749 121.762 33.4428 121.301 32.6083C120.843 31.7738 120.614 30.7528 120.614 29.5455C120.614 28.331 120.848 27.3082 121.317 26.4773C121.786 25.6428 122.418 25.0124 123.213 24.5863C124.009 24.1566 124.896 23.9418 125.876 23.9418C126.565 23.9418 127.199 24.0359 127.778 24.2241C128.357 24.4123 128.865 24.6875 129.301 25.0497C129.738 25.4084 130.09 25.8505 130.356 26.3761C130.623 26.9016 130.784 27.5036 130.841 28.1818ZM135.168 24.0909V35H132.227V24.0909H135.168ZM140.586 35.1491C139.713 35.1491 138.96 34.9822 138.328 34.6484C137.699 34.3111 137.214 33.8281 136.873 33.1996C136.536 32.5675 136.367 31.8111 136.367 30.9304C136.367 30.0852 136.538 29.3466 136.879 28.7145C137.22 28.0824 137.701 27.5906 138.322 27.239C138.944 26.8874 139.677 26.7116 140.522 26.7116C141.14 26.7116 141.699 26.8075 142.2 26.9993C142.701 27.1911 143.129 27.4698 143.484 27.8356C143.839 28.1978 144.112 28.6381 144.304 29.1566C144.496 29.6751 144.592 30.2592 144.592 30.9091V31.5909H137.284V29.9716H141.886C141.882 29.7372 141.822 29.5312 141.705 29.3537C141.591 29.1726 141.437 29.0323 141.241 28.9329C141.05 28.8299 140.831 28.7784 140.586 28.7784C140.348 28.7784 140.13 28.8299 139.931 28.9329C139.732 29.0323 139.572 29.1708 139.452 29.3484C139.334 29.5259 139.272 29.7337 139.265 29.9716V31.7188C139.265 31.9815 139.32 32.2159 139.43 32.4219C139.54 32.6278 139.698 32.7894 139.904 32.9066C140.11 33.0238 140.359 33.0824 140.65 33.0824C140.852 33.0824 141.037 33.054 141.204 32.9972C141.374 32.9403 141.52 32.8587 141.641 32.7521C141.762 32.642 141.85 32.5107 141.907 32.358H144.592C144.499 32.9261 144.281 33.4197 143.937 33.8388C143.592 34.2543 143.136 34.5774 142.568 34.8082C142.003 35.0355 141.343 35.1491 140.586 35.1491ZM148.071 35.1278C147.549 35.1278 147.088 35.0426 146.687 34.8722C146.289 34.6982 145.976 34.4354 145.749 34.0838C145.522 33.7322 145.408 33.2848 145.408 32.7415C145.408 32.294 145.484 31.9123 145.637 31.5962C145.79 31.2766 146.003 31.0156 146.276 30.8132C146.55 30.6108 146.868 30.4563 147.23 30.3498C147.596 30.2433 147.99 30.174 148.412 30.142C148.87 30.1065 149.238 30.0639 149.515 30.0142C149.796 29.9609 149.998 29.8881 150.122 29.7958C150.247 29.6999 150.309 29.5739 150.309 29.4176V29.3963C150.309 29.1832 150.227 29.0199 150.064 28.9062C149.9 28.7926 149.691 28.7358 149.435 28.7358C149.155 28.7358 148.926 28.7979 148.748 28.9222C148.574 29.043 148.469 29.2294 148.434 29.4815H145.728C145.763 28.9844 145.921 28.5263 146.202 28.1072C146.486 27.6847 146.9 27.3473 147.443 27.0952C147.986 26.8395 148.665 26.7116 149.478 26.7116C150.064 26.7116 150.589 26.7809 151.054 26.9194C151.52 27.0543 151.916 27.2443 152.242 27.4893C152.569 27.7308 152.818 28.0149 152.988 28.3416C153.162 28.6648 153.249 29.0163 153.249 29.3963V35H150.5V33.8494H150.437C150.273 34.1548 150.074 34.4016 149.84 34.5898C149.609 34.7781 149.345 34.9148 149.046 35C148.752 35.0852 148.427 35.1278 148.071 35.1278ZM149.03 33.2741C149.254 33.2741 149.464 33.228 149.659 33.1357C149.858 33.0433 150.019 32.9102 150.144 32.7362C150.268 32.5621 150.33 32.3509 150.33 32.1023V31.4205C150.252 31.4524 150.168 31.4826 150.08 31.511C149.994 31.5394 149.902 31.5661 149.803 31.5909C149.707 31.6158 149.604 31.6388 149.494 31.6602C149.387 31.6815 149.275 31.701 149.158 31.7188C148.931 31.7543 148.744 31.8129 148.599 31.8945C148.457 31.9727 148.35 32.0703 148.279 32.1875C148.212 32.3011 148.178 32.429 148.178 32.571C148.178 32.7983 148.258 32.9723 148.418 33.093C148.578 33.2138 148.782 33.2741 149.03 33.2741ZM154.654 35V26.8182H157.509V28.3736H157.594C157.743 27.7983 157.98 27.3775 158.303 27.1112C158.629 26.8448 159.011 26.7116 159.448 26.7116C159.576 26.7116 159.702 26.7223 159.826 26.7436C159.954 26.7614 160.077 26.788 160.194 26.8235V29.3324C160.048 29.2827 159.869 29.2454 159.656 29.2205C159.443 29.1957 159.26 29.1832 159.107 29.1832C158.819 29.1832 158.56 29.2489 158.329 29.3803C158.102 29.5082 157.923 29.6893 157.791 29.9237C157.66 30.1545 157.594 30.4261 157.594 30.7386V35H154.654ZM164.104 35V24.0909H171.966V26.4773H167.065V28.3523H171.561V30.7386H167.065V32.6136H171.944V35H164.104ZM175.267 38.0682C174.93 38.0682 174.608 38.0415 174.303 37.9883C173.997 37.9386 173.729 37.8693 173.498 37.7805L174.138 35.6925C174.379 35.7777 174.599 35.8327 174.798 35.8576C175.001 35.8825 175.173 35.8683 175.315 35.815C175.46 35.7617 175.565 35.6605 175.629 35.5114L175.693 35.3622L172.817 26.8182H175.885L177.206 32.4858H177.291L178.633 26.8182H181.723L178.74 35.6818C178.591 36.1328 178.374 36.5376 178.09 36.8963C177.81 37.2585 177.44 37.5444 176.982 37.7539C176.524 37.9634 175.952 38.0682 175.267 38.0682ZM186.231 35.1491C185.357 35.1491 184.604 34.9822 183.972 34.6484C183.344 34.3111 182.859 33.8281 182.518 33.1996C182.181 32.5675 182.012 31.8111 182.012 30.9304C182.012 30.0852 182.182 29.3466 182.523 28.7145C182.864 28.0824 183.345 27.5906 183.967 27.239C184.588 26.8874 185.322 26.7116 186.167 26.7116C186.785 26.7116 187.344 26.8075 187.845 26.9993C188.345 27.1911 188.773 27.4698 189.128 27.8356C189.483 28.1978 189.757 28.6381 189.949 29.1566C190.14 29.6751 190.236 30.2592 190.236 30.9091V31.5909H182.928V29.9716H187.53C187.527 29.7372 187.466 29.5312 187.349 29.3537C187.236 29.1726 187.081 29.0323 186.886 28.9329C186.694 28.8299 186.476 28.7784 186.231 28.7784C185.993 28.7784 185.774 28.8299 185.575 28.9329C185.377 29.0323 185.217 29.1708 185.096 29.3484C184.979 29.5259 184.917 29.7337 184.91 29.9716V31.7188C184.91 31.9815 184.965 32.2159 185.075 32.4219C185.185 32.6278 185.343 32.7894 185.549 32.9066C185.755 33.0238 186.003 33.0824 186.295 33.0824C186.497 33.0824 186.682 33.054 186.849 32.9972C187.019 32.9403 187.165 32.8587 187.285 32.7521C187.406 32.642 187.495 32.5107 187.552 32.358H190.236C190.144 32.9261 189.926 33.4197 189.581 33.8388C189.237 34.2543 188.78 34.5774 188.212 34.8082C187.648 35.0355 186.987 35.1491 186.231 35.1491ZM198.915 29.4815H196.209C196.195 29.3146 196.136 29.1708 196.033 29.0501C195.93 28.9293 195.797 28.837 195.634 28.7731C195.474 28.7056 195.296 28.6719 195.101 28.6719C194.849 28.6719 194.632 28.718 194.451 28.8104C194.27 28.9027 194.181 29.0341 194.185 29.2045C194.181 29.3253 194.233 29.4371 194.339 29.5401C194.449 29.6431 194.661 29.723 194.973 29.7798L196.635 30.0781C197.473 30.2308 198.096 30.4883 198.505 30.8505C198.917 31.2092 199.124 31.6903 199.128 32.294C199.124 32.8764 198.95 33.3825 198.606 33.8121C198.265 34.2383 197.798 34.5685 197.205 34.8029C196.616 35.0337 195.943 35.1491 195.186 35.1491C193.936 35.1491 192.958 34.8935 192.251 34.3821C191.548 33.8707 191.156 33.196 191.074 32.358H193.993C194.032 32.6172 194.16 32.8178 194.377 32.9599C194.597 33.0984 194.874 33.1676 195.207 33.1676C195.477 33.1676 195.699 33.1214 195.873 33.0291C196.051 32.9368 196.141 32.8054 196.145 32.6349C196.141 32.4787 196.063 32.3544 195.911 32.2621C195.761 32.1697 195.527 32.0952 195.207 32.0384L193.759 31.7827C192.924 31.6371 192.299 31.3601 191.884 30.9517C191.468 30.5433 191.262 30.0178 191.266 29.375C191.262 28.8068 191.411 28.3256 191.713 27.9315C192.019 27.5337 192.454 27.2319 193.018 27.0259C193.586 26.8164 194.259 26.7116 195.037 26.7116C196.22 26.7116 197.152 26.9567 197.834 27.4467C198.519 27.9368 198.879 28.6151 198.915 29.4815Z"></path>
<path fill="black" d="M80.8182 45.1818H81.5909L82.2386 46.0341L82.4091 46.2614L83.375 47.5455H82.6023L81.9659 46.6932L81.8068 46.4773L80.8182 45.1818ZM83.6136 44.0909C83.6136 44.7045 83.5028 45.2348 83.2812 45.6818C83.0597 46.1288 82.7557 46.4735 82.3693 46.7159C81.983 46.9583 81.5417 47.0795 81.0455 47.0795C80.5492 47.0795 80.108 46.9583 79.7216 46.7159C79.3352 46.4735 79.0313 46.1288 78.8097 45.6818C78.5881 45.2348 78.4773 44.7045 78.4773 44.0909C78.4773 43.4773 78.5881 42.947 78.8097 42.5C79.0313 42.053 79.3352 41.7083 79.7216 41.4659C80.108 41.2235 80.5492 41.1023 81.0455 41.1023C81.5417 41.1023 81.983 41.2235 82.3693 41.4659C82.7557 41.7083 83.0597 42.053 83.2812 42.5C83.5028 42.947 83.6136 43.4773 83.6136 44.0909ZM82.9318 44.0909C82.9318 43.5871 82.8475 43.1619 82.679 42.8153C82.5123 42.4688 82.286 42.2064 82 42.0284C81.7159 41.8504 81.3977 41.7614 81.0455 41.7614C80.6932 41.7614 80.3741 41.8504 80.0881 42.0284C79.804 42.2064 79.5777 42.4688 79.4091 42.8153C79.2424 43.1619 79.1591 43.5871 79.1591 44.0909C79.1591 44.5947 79.2424 45.0199 79.4091 45.3665C79.5777 45.7131 79.804 45.9754 80.0881 46.1534C80.3741 46.3314 80.6932 46.4205 81.0455 46.4205C81.3977 46.4205 81.7159 46.3314 82 46.1534C82.286 45.9754 82.5123 45.7131 82.679 45.3665C82.8475 45.0199 82.9318 44.5947 82.9318 44.0909ZM88.6165 41.1818H89.321V45.0341C89.321 45.4318 89.2273 45.7869 89.0398 46.0994C88.8542 46.41 88.5919 46.6553 88.2528 46.8352C87.9138 47.0133 87.5161 47.1023 87.0597 47.1023C86.6032 47.1023 86.2055 47.0133 85.8665 46.8352C85.5275 46.6553 85.2642 46.41 85.0767 46.0994C84.8911 45.7869 84.7983 45.4318 84.7983 45.0341V41.1818H85.5028V44.9773C85.5028 45.2614 85.5653 45.5142 85.6903 45.7358C85.8153 45.9555 85.9934 46.1288 86.2244 46.2557C86.4574 46.3807 86.7358 46.4432 87.0597 46.4432C87.3835 46.4432 87.6619 46.3807 87.8949 46.2557C88.1278 46.1288 88.3059 45.9555 88.429 45.7358C88.554 45.5142 88.6165 45.2614 88.6165 44.9773V41.1818ZM90.9666 47H90.228L92.3643 41.1818H93.0916L95.228 47H94.4893L92.7507 42.1023H92.7053L90.9666 47ZM91.2393 44.7273H94.2166V45.3523H91.2393V44.7273ZM97.9297 47H96.1342V41.1818H98.0092C98.5736 41.1818 99.0566 41.2983 99.4581 41.5312C99.8596 41.7623 100.167 42.0947 100.381 42.5284C100.595 42.9602 100.702 43.4773 100.702 44.0795C100.702 44.6856 100.594 45.2074 100.379 45.6449C100.163 46.0805 99.8482 46.4157 99.4354 46.6506C99.0225 46.8835 98.5206 47 97.9297 47ZM96.8388 46.375H97.8842C98.3653 46.375 98.764 46.2822 99.0803 46.0966C99.3965 45.911 99.6323 45.6468 99.7876 45.304C99.9429 44.9612 100.021 44.553 100.021 44.0795C100.021 43.6098 99.9439 43.2055 99.7905 42.8665C99.6371 42.5256 99.4079 42.2642 99.103 42.0824C98.7981 41.8987 98.4183 41.8068 97.9638 41.8068H96.8388V46.375ZM101.884 47V41.1818H103.85C104.305 41.1818 104.678 41.2595 104.969 41.4148C105.261 41.5682 105.477 41.7794 105.617 42.0483C105.757 42.3172 105.827 42.6231 105.827 42.9659C105.827 43.3087 105.757 43.6127 105.617 43.8778C105.477 44.143 105.262 44.3513 104.972 44.5028C104.683 44.6525 104.312 44.7273 103.862 44.7273H102.271V44.0909H103.839C104.149 44.0909 104.399 44.0455 104.589 43.9545C104.78 43.8636 104.918 43.7348 105.004 43.5682C105.091 43.3996 105.134 43.1989 105.134 42.9659C105.134 42.733 105.091 42.5294 105.004 42.3551C104.916 42.1809 104.777 42.0464 104.586 41.9517C104.395 41.8551 104.142 41.8068 103.827 41.8068H102.589V47H101.884ZM104.623 44.3864L106.055 47H105.237L103.827 44.3864H104.623ZM107.24 47H106.501L108.638 41.1818H109.365L111.501 47H110.763L109.024 42.1023H108.979L107.24 47ZM107.513 44.7273H110.49V45.3523H107.513V44.7273Z"></path>
<path fill="black" d="M52.685 17.1011C53.0962 17.4494 53.3333 17.9611 53.3333 18.5V42.3333C53.3333 43.3458 52.5125 44.1666 51.5 44.1666C50.4875 44.1666 49.6667 43.3458 49.6667 42.3333V20.6642L31.3333 23.7197V46C31.3333 47.0125 30.5125 47.8333 29.5 47.8333C28.4875 47.8333 27.6667 47.0125 27.6667 46V22.1666C27.6667 21.2704 28.3146 20.5056 29.1986 20.3583L51.1986 16.6916C51.7302 16.603 52.2738 16.7528 52.685 17.1011Z" clip-rule="evenodd" fill-rule="evenodd"></path>
<path fill="black" d="M24 42.3333C21.975 42.3333 20.3333 43.9749 20.3333 46C20.3333 48.025 21.975 49.6666 24 49.6666C26.025 49.6666 27.6667 48.025 27.6667 46C27.6667 43.9749 26.025 42.3333 24 42.3333ZM16.6667 46C16.6667 41.9499 19.9499 38.6666 24 38.6666C28.0501 38.6666 31.3333 41.9499 31.3333 46C31.3333 50.05 28.0501 53.3333 24 53.3333C19.9499 53.3333 16.6667 50.05 16.6667 46Z" clip-rule="evenodd" fill-rule="evenodd"></path>
<path fill="black" d="M46 38.6667C43.975 38.6667 42.3333 40.3083 42.3333 42.3333C42.3333 44.3584 43.975 46 46 46C48.025 46 49.6667 44.3584 49.6667 42.3333C49.6667 40.3083 48.025 38.6667 46 38.6667ZM38.6667 42.3333C38.6667 38.2832 41.9499 35 46 35C50.0501 35 53.3333 38.2832 53.3333 42.3333C53.3333 46.3834 50.0501 49.6667 46 49.6667C41.9499 49.6667 38.6667 46.3834 38.6667 42.3333Z" clip-rule="evenodd" fill-rule="evenodd"></path>
</svg>
