<svg xmlns="http://www.w3.org/2000/svg" fill="none" viewBox="0 0 240 70" height="70" width="240">
<path fill="black" d="M88.8878 28.1818H85.8835C85.8622 27.9332 85.8054 27.7077 85.7131 27.5053C85.6243 27.3029 85.5 27.1289 85.3402 26.9833C85.1839 26.8342 84.994 26.7205 84.7702 26.6424C84.5465 26.5607 84.2926 26.5199 84.0085 26.5199C83.5114 26.5199 83.0906 26.6406 82.7461 26.8821C82.4052 27.1236 82.146 27.4698 81.9684 27.9208C81.7944 28.3718 81.7074 28.9134 81.7074 29.5455C81.7074 30.2131 81.7962 30.7724 81.9737 31.2234C82.1548 31.6708 82.4158 32.0082 82.7567 32.2354C83.0977 32.4592 83.5078 32.571 83.9872 32.571C84.2607 32.571 84.5057 32.5373 84.7223 32.4698C84.9389 32.3988 85.1271 32.2976 85.2869 32.1662C85.4467 32.0348 85.5763 31.8768 85.6758 31.6921C85.7788 31.5039 85.848 31.2926 85.8835 31.0582L88.8878 31.0795C88.8523 31.5412 88.7227 32.0117 88.4989 32.4911C88.2752 32.967 87.9574 33.4073 87.5455 33.8121C87.1371 34.2134 86.631 34.5366 86.0273 34.7816C85.4237 35.0266 84.7223 35.1491 83.9233 35.1491C82.9219 35.1491 82.0234 34.9343 81.228 34.5046C80.4361 34.0749 79.8093 33.4428 79.3477 32.6083C78.8896 31.7738 78.6605 30.7528 78.6605 29.5455C78.6605 28.331 78.8949 27.3082 79.3636 26.4773C79.8324 25.6428 80.4645 25.0124 81.2599 24.5863C82.0554 24.1566 82.9432 23.9418 83.9233 23.9418C84.6122 23.9418 85.2461 24.0359 85.8249 24.2241C86.4038 24.4123 86.9116 24.6875 87.3484 25.0497C87.7852 25.4084 88.1367 25.8505 88.4031 26.3761C88.6694 26.9016 88.831 27.5036 88.8878 28.1818ZM94.2158 35.1491C93.328 35.1491 92.5681 34.9734 91.936 34.6218C91.3039 34.2667 90.8192 33.7731 90.4818 33.141C90.1444 32.5053 89.9758 31.7685 89.9758 30.9304C89.9758 30.0923 90.1444 29.3572 90.4818 28.7251C90.8192 28.0895 91.3039 27.5959 91.936 27.2443C92.5681 26.8892 93.328 26.7116 94.2158 26.7116C95.1036 26.7116 95.8635 26.8892 96.4957 27.2443C97.1278 27.5959 97.6125 28.0895 97.9498 28.7251C98.2872 29.3572 98.4559 30.0923 98.4559 30.9304C98.4559 31.7685 98.2872 32.5053 97.9498 33.141C97.6125 33.7731 97.1278 34.2667 96.4957 34.6218C95.8635 34.9734 95.1036 35.1491 94.2158 35.1491ZM94.2371 32.9759C94.4857 32.9759 94.7006 32.8924 94.8817 32.7255C95.0628 32.5586 95.203 32.3207 95.3025 32.0117C95.4019 31.7028 95.4516 31.3352 95.4516 30.9091C95.4516 30.4794 95.4019 30.1119 95.3025 29.8065C95.203 29.4975 95.0628 29.2596 94.8817 29.0927C94.7006 28.9258 94.4857 28.8423 94.2371 28.8423C93.9743 28.8423 93.7488 28.9258 93.5606 29.0927C93.3724 29.2596 93.2286 29.4975 93.1292 29.8065C93.0297 30.1119 92.98 30.4794 92.98 30.9091C92.98 31.3352 93.0297 31.7028 93.1292 32.0117C93.2286 32.3207 93.3724 32.5586 93.5606 32.7255C93.7488 32.8924 93.9743 32.9759 94.2371 32.9759ZM102.589 30.3977V35H99.6491V26.8182H102.44V28.3736H102.525C102.703 27.8551 103.016 27.4485 103.463 27.1538C103.914 26.859 104.44 26.7116 105.04 26.7116C105.619 26.7116 106.121 26.8448 106.547 27.1112C106.977 27.3739 107.309 27.7362 107.543 28.1978C107.781 28.6594 107.898 29.1868 107.895 29.7798V35H104.954V30.3977C104.958 29.9929 104.855 29.6751 104.646 29.4442C104.44 29.2134 104.152 29.098 103.783 29.098C103.541 29.098 103.33 29.1513 103.149 29.2578C102.971 29.3608 102.834 29.5099 102.739 29.7053C102.643 29.897 102.593 30.1278 102.589 30.3977ZM113.288 35.1491C112.4 35.1491 111.64 34.9734 111.008 34.6218C110.376 34.2667 109.891 33.7731 109.554 33.141C109.217 32.5053 109.048 31.7685 109.048 30.9304C109.048 30.0923 109.217 29.3572 109.554 28.7251C109.891 28.0895 110.376 27.5959 111.008 27.2443C111.64 26.8892 112.4 26.7116 113.288 26.7116C114.091 26.7116 114.785 26.8572 115.371 27.1484C115.96 27.4361 116.417 27.8445 116.74 28.3736C117.063 28.8991 117.226 29.517 117.23 30.2273H114.503C114.464 29.7976 114.339 29.4709 114.13 29.2472C113.924 29.0199 113.657 28.9062 113.331 28.9062C113.075 28.9062 112.851 28.9808 112.66 29.13C112.468 29.2756 112.319 29.4975 112.212 29.7958C112.106 30.0906 112.052 30.4616 112.052 30.9091C112.052 31.3565 112.106 31.7294 112.212 32.0277C112.319 32.3224 112.468 32.5444 112.66 32.6935C112.851 32.8391 113.075 32.9119 113.331 32.9119C113.547 32.9119 113.739 32.8622 113.906 32.7628C114.073 32.6598 114.208 32.5107 114.311 32.3153C114.417 32.1165 114.481 31.875 114.503 31.5909H117.23C117.219 32.3118 117.054 32.9403 116.734 33.4766C116.415 34.0092 115.962 34.4212 115.376 34.7124C114.794 35.0036 114.098 35.1491 113.288 35.1491ZM123.748 31.4205V26.8182H126.689V35H123.898V33.4446H123.812C123.635 33.9666 123.324 34.375 122.88 34.6697C122.436 34.9609 121.909 35.1065 121.298 35.1065C120.726 35.1065 120.226 34.9751 119.796 34.7124C119.37 34.4496 119.038 34.0874 118.8 33.6257C118.566 33.1641 118.447 32.6349 118.443 32.0384V26.8182H121.383V31.4205C121.387 31.8253 121.49 32.1431 121.692 32.3739C121.898 32.6048 122.186 32.7202 122.555 32.7202C122.8 32.7202 123.012 32.6687 123.189 32.5657C123.37 32.4592 123.509 32.31 123.605 32.1183C123.704 31.9229 123.752 31.6903 123.748 31.4205ZM135.663 29.4815H132.957C132.943 29.3146 132.884 29.1708 132.781 29.0501C132.678 28.9293 132.545 28.837 132.382 28.7731C132.222 28.7056 132.044 28.6719 131.849 28.6719C131.597 28.6719 131.38 28.718 131.199 28.8104C131.018 28.9027 130.929 29.0341 130.933 29.2045C130.929 29.3253 130.981 29.4371 131.087 29.5401C131.197 29.6431 131.409 29.723 131.721 29.7798L133.383 30.0781C134.221 30.2308 134.844 30.4883 135.253 30.8505C135.665 31.2092 135.872 31.6903 135.876 32.294C135.872 32.8764 135.698 33.3825 135.354 33.8121C135.013 34.2383 134.546 34.5685 133.953 34.8029C133.364 35.0337 132.691 35.1491 131.934 35.1491C130.684 35.1491 129.706 34.8935 128.999 34.3821C128.296 33.8707 127.904 33.196 127.822 32.358H130.741C130.78 32.6172 130.908 32.8178 131.125 32.9599C131.345 33.0984 131.622 33.1676 131.956 33.1676C132.225 33.1676 132.447 33.1214 132.621 33.0291C132.799 32.9368 132.889 32.8054 132.893 32.6349C132.889 32.4787 132.811 32.3544 132.659 32.2621C132.509 32.1697 132.275 32.0952 131.956 32.0384L130.507 31.7827C129.672 31.6371 129.047 31.3601 128.632 30.9517C128.216 30.5433 128.01 30.0178 128.014 29.375C128.01 28.8068 128.159 28.3256 128.461 27.9315C128.767 27.5337 129.202 27.2319 129.766 27.0259C130.334 26.8164 131.007 26.7116 131.785 26.7116C132.968 26.7116 133.9 26.9567 134.582 27.4467C135.267 27.9368 135.627 28.6151 135.663 29.4815ZM144.481 29.4815H141.775C141.761 29.3146 141.703 29.1708 141.6 29.0501C141.497 28.9293 141.363 28.837 141.2 28.7731C141.04 28.7056 140.863 28.6719 140.667 28.6719C140.415 28.6719 140.199 28.718 140.017 28.8104C139.836 28.9027 139.748 29.0341 139.751 29.2045C139.748 29.3253 139.799 29.4371 139.906 29.5401C140.016 29.6431 140.227 29.723 140.54 29.7798L142.201 30.0781C143.04 30.2308 143.663 30.4883 144.071 30.8505C144.483 31.2092 144.691 31.6903 144.694 32.294C144.691 32.8764 144.517 33.3825 144.172 33.8121C143.831 34.2383 143.364 34.5685 142.771 34.8029C142.182 35.0337 141.509 35.1491 140.753 35.1491C139.503 35.1491 138.524 34.8935 137.818 34.3821C137.114 33.8707 136.722 33.196 136.64 32.358H139.559C139.598 32.6172 139.726 32.8178 139.943 32.9599C140.163 33.0984 140.44 33.1676 140.774 33.1676C141.044 33.1676 141.266 33.1214 141.44 33.0291C141.617 32.9368 141.708 32.8054 141.711 32.6349C141.708 32.4787 141.63 32.3544 141.477 32.2621C141.328 32.1697 141.093 32.0952 140.774 32.0384L139.325 31.7827C138.491 31.6371 137.866 31.3601 137.45 30.9517C137.035 30.5433 136.829 30.0178 136.832 29.375C136.829 28.8068 136.978 28.3256 137.28 27.9315C137.585 27.5337 138.02 27.2319 138.585 27.0259C139.153 26.8164 139.826 26.7116 140.603 26.7116C141.786 26.7116 142.718 26.9567 143.4 27.4467C144.085 27.9368 144.446 28.6151 144.481 29.4815ZM145.821 35V26.8182H148.761V35H145.821ZM147.291 25.9659C146.893 25.9659 146.552 25.8345 146.268 25.5717C145.984 25.3089 145.842 24.9929 145.842 24.6236C145.842 24.2543 145.984 23.9382 146.268 23.6754C146.552 23.4126 146.893 23.2812 147.291 23.2812C147.692 23.2812 148.033 23.4126 148.314 23.6754C148.598 23.9382 148.74 24.2543 148.74 24.6236C148.74 24.9929 148.598 25.3089 148.314 25.5717C148.033 25.8345 147.692 25.9659 147.291 25.9659ZM154.201 35.1491C153.313 35.1491 152.553 34.9734 151.921 34.6218C151.289 34.2667 150.805 33.7731 150.467 33.141C150.13 32.5053 149.961 31.7685 149.961 30.9304C149.961 30.0923 150.13 29.3572 150.467 28.7251C150.805 28.0895 151.289 27.5959 151.921 27.2443C152.553 26.8892 153.313 26.7116 154.201 26.7116C155.089 26.7116 155.849 26.8892 156.481 27.2443C157.113 27.5959 157.598 28.0895 157.935 28.7251C158.273 29.3572 158.441 30.0923 158.441 30.9304C158.441 31.7685 158.273 32.5053 157.935 33.141C157.598 33.7731 157.113 34.2667 156.481 34.6218C155.849 34.9734 155.089 35.1491 154.201 35.1491ZM154.222 32.9759C154.471 32.9759 154.686 32.8924 154.867 32.7255C155.048 32.5586 155.188 32.3207 155.288 32.0117C155.387 31.7028 155.437 31.3352 155.437 30.9091C155.437 30.4794 155.387 30.1119 155.288 29.8065C155.188 29.4975 155.048 29.2596 154.867 29.0927C154.686 28.9258 154.471 28.8423 154.222 28.8423C153.96 28.8423 153.734 28.9258 153.546 29.0927C153.358 29.2596 153.214 29.4975 153.115 29.8065C153.015 30.1119 152.965 30.4794 152.965 30.9091C152.965 31.3352 153.015 31.7028 153.115 32.0117C153.214 32.3207 153.358 32.5586 153.546 32.7255C153.734 32.8924 153.96 32.9759 154.222 32.9759ZM162.575 30.3977V35H159.634V26.8182H162.426V28.3736H162.511C162.688 27.8551 163.001 27.4485 163.448 27.1538C163.899 26.859 164.425 26.7116 165.025 26.7116C165.604 26.7116 166.106 26.8448 166.532 27.1112C166.962 27.3739 167.294 27.7362 167.529 28.1978C167.767 28.6594 167.884 29.1868 167.88 29.7798V35H164.94V30.3977C164.943 29.9929 164.84 29.6751 164.631 29.4442C164.425 29.2134 164.137 29.098 163.768 29.098C163.526 29.098 163.315 29.1513 163.134 29.2578C162.956 29.3608 162.82 29.5099 162.724 29.7053C162.628 29.897 162.578 30.1278 162.575 30.3977Z"></path>
<path fill="black" d="M83.3182 41.1818V47H82.6364L79.4659 42.4318H79.4091V47H78.7045V41.1818H79.3864L82.5682 45.7614H82.625V41.1818H83.3182ZM89.6371 44.0909C89.6371 44.7045 89.5263 45.2348 89.3047 45.6818C89.0831 46.1288 88.7791 46.4735 88.3928 46.7159C88.0064 46.9583 87.5651 47.0795 87.0689 47.0795C86.5727 47.0795 86.1314 46.9583 85.745 46.7159C85.3587 46.4735 85.0547 46.1288 84.8331 45.6818C84.6115 45.2348 84.5007 44.7045 84.5007 44.0909C84.5007 43.4773 84.6115 42.947 84.8331 42.5C85.0547 42.053 85.3587 41.7083 85.745 41.4659C86.1314 41.2235 86.5727 41.1023 87.0689 41.1023C87.5651 41.1023 88.0064 41.2235 88.3928 41.4659C88.7791 41.7083 89.0831 42.053 89.3047 42.5C89.5263 42.947 89.6371 43.4773 89.6371 44.0909ZM88.9553 44.0909C88.9553 43.5871 88.871 43.1619 88.7024 42.8153C88.5357 42.4688 88.3094 42.2064 88.0234 42.0284C87.7393 41.8504 87.4212 41.7614 87.0689 41.7614C86.7166 41.7614 86.3975 41.8504 86.1115 42.0284C85.8274 42.2064 85.6011 42.4688 85.4325 42.8153C85.2659 43.1619 85.1825 43.5871 85.1825 44.0909C85.1825 44.5947 85.2659 45.0199 85.4325 45.3665C85.6011 45.7131 85.8274 45.9754 86.1115 46.1534C86.3975 46.3314 86.7166 46.4205 87.0689 46.4205C87.4212 46.4205 87.7393 46.3314 88.0234 46.1534C88.3094 45.9754 88.5357 45.7131 88.7024 45.3665C88.871 45.0199 88.9553 44.5947 88.9553 44.0909ZM91.5263 41.1818V47H90.8217V41.1818H91.5263ZM96.1207 42.6364C96.0866 42.3485 95.9484 42.125 95.706 41.9659C95.4635 41.8068 95.1662 41.7273 94.8139 41.7273C94.5563 41.7273 94.331 41.7689 94.1378 41.8523C93.9465 41.9356 93.7969 42.0502 93.6889 42.196C93.5829 42.3419 93.5298 42.5076 93.5298 42.6932C93.5298 42.8485 93.5668 42.982 93.6406 43.0938C93.7164 43.2036 93.813 43.2955 93.9304 43.3693C94.0478 43.4413 94.1709 43.5009 94.2997 43.5483C94.4285 43.5937 94.5469 43.6307 94.6548 43.6591L95.2457 43.8182C95.3973 43.858 95.5658 43.9129 95.7514 43.983C95.9389 44.053 96.1179 44.1487 96.2884 44.2699C96.4607 44.3892 96.6027 44.5426 96.7145 44.7301C96.8262 44.9176 96.8821 45.1477 96.8821 45.4205C96.8821 45.7348 96.7997 46.0189 96.6349 46.2727C96.4721 46.5265 96.2334 46.7282 95.919 46.8778C95.6065 47.0275 95.2268 47.1023 94.7798 47.1023C94.3632 47.1023 94.0024 47.035 93.6974 46.9006C93.3944 46.7661 93.1558 46.5786 92.9815 46.3381C92.8092 46.0975 92.7116 45.8182 92.6889 45.5H93.4162C93.4351 45.7197 93.509 45.9015 93.6378 46.0455C93.7685 46.1875 93.9332 46.2936 94.1321 46.3636C94.3329 46.4318 94.5488 46.4659 94.7798 46.4659C95.0488 46.4659 95.2902 46.4223 95.5043 46.3352C95.7183 46.2462 95.8878 46.1231 96.0128 45.9659C96.1378 45.8068 96.2003 45.6212 96.2003 45.4091C96.2003 45.2159 96.1463 45.0587 96.0384 44.9375C95.9304 44.8163 95.7884 44.7178 95.6122 44.642C95.4361 44.5663 95.2457 44.5 95.0412 44.4432L94.3253 44.2386C93.8707 44.108 93.5109 43.9214 93.2457 43.679C92.9806 43.4366 92.848 43.1193 92.848 42.7273C92.848 42.4015 92.9361 42.1174 93.1122 41.875C93.2902 41.6307 93.5289 41.4413 93.8281 41.3068C94.1293 41.1705 94.4654 41.1023 94.8366 41.1023C95.2116 41.1023 95.545 41.1695 95.8366 41.304C96.1283 41.4366 96.3594 41.6184 96.5298 41.8494C96.7022 42.0805 96.7931 42.3428 96.8026 42.6364H96.1207ZM98.745 41.1818V47H98.0405V41.1818H98.745ZM100.396 47H99.6577L101.794 41.1818H102.521L104.658 47H103.919L102.18 42.1023H102.135L100.396 47ZM100.669 44.7273H103.646V45.3523H100.669V44.7273Z"></path>
<path fill="black" d="M52.685 17.1011C53.0962 17.4494 53.3333 17.9611 53.3333 18.5V42.3333C53.3333 43.3458 52.5125 44.1666 51.5 44.1666C50.4875 44.1666 49.6667 43.3458 49.6667 42.3333V20.6642L31.3333 23.7197V46C31.3333 47.0125 30.5125 47.8333 29.5 47.8333C28.4875 47.8333 27.6667 47.0125 27.6667 46V22.1666C27.6667 21.2704 28.3146 20.5056 29.1986 20.3583L51.1986 16.6916C51.7302 16.603 52.2738 16.7528 52.685 17.1011Z" clip-rule="evenodd" fill-rule="evenodd"></path>
<path fill="black" d="M24 42.3333C21.975 42.3333 20.3333 43.9749 20.3333 46C20.3333 48.025 21.975 49.6666 24 49.6666C26.025 49.6666 27.6667 48.025 27.6667 46C27.6667 43.9749 26.025 42.3333 24 42.3333ZM16.6667 46C16.6667 41.9499 19.9499 38.6666 24 38.6666C28.0501 38.6666 31.3333 41.9499 31.3333 46C31.3333 50.05 28.0501 53.3333 24 53.3333C19.9499 53.3333 16.6667 50.05 16.6667 46Z" clip-rule="evenodd" fill-rule="evenodd"></path>
<path fill="black" d="M46 38.6667C43.9749 38.6667 42.3333 40.3083 42.3333 42.3333C42.3333 44.3584 43.9749 46 46 46C48.025 46 49.6667 44.3584 49.6667 42.3333C49.6667 40.3083 48.025 38.6667 46 38.6667ZM38.6667 42.3333C38.6667 38.2832 41.9499 35 46 35C50.0501 35 53.3333 38.2832 53.3333 42.3333C53.3333 46.3834 50.0501 49.6667 46 49.6667C41.9499 49.6667 38.6667 46.3834 38.6667 42.3333Z" clip-rule="evenodd" fill-rule="evenodd"></path>
</svg>
