<svg xmlns="http://www.w3.org/2000/svg" fill="none" viewBox="0 0 180 70" height="70" width="180">
<rect fill="#303030" height="70" width="180"></rect>
<rect fill="#303030" height="70" width="70"></rect>
<path fill="#C3883B" d="M54.1107 37.8325C54.1107 36.4945 56.1486 29.5204 58.1878 27.4825C60.2243 25.4447 58.1878 23.2462 56.1499 23.2462C51.5938 23.2462 43.9213 32.4802 43.9213 37.8325C43.9213 44.5229 51.5924 51.7806 56.1499 51.7806C58.1878 51.7806 60.2257 49.9019 58.1878 47.8627C56.1499 45.8262 54.1107 40.5087 54.1107 37.8325Z"></path>
<path fill="#C3883B" d="M23.1584 24.9656C23.1584 20.8898 25.1615 16.8127 27.1994 16.8127C33.3131 16.8127 45.0252 23.2663 47.0631 33.457C49.1023 43.6478 23.1584 24.9656 23.1584 24.9656ZM29.6534 49.4229C31.6913 51.4607 35.7684 53.5 39.8455 53.5C43.9213 53.5 35.6828 47.8948 37.8076 45.3484C40.7246 41.8467 29.6534 49.4229 29.6534 49.4229Z"></path>
<path fill="black" d="M13.8589 44.1575C14.8771 41.1 14.1131 38.8922 12.3294 36.6857C10.5458 34.4765 17.5105 34.138 19.8026 37.1955C22.0947 40.253 27.447 45.5999 22.6901 45.5183C17.936 45.4313 13.8589 44.1575 13.8589 44.1575Z"></path>
<path fill="#EEAC55" d="M11.3125 37.1474C12.5957 38.3169 20.9774 42.9132 20.8998 44.0211C20.8222 45.129 17.8503 43.9033 16.7451 43.6478C14.758 43.1901 14.196 42.8476 13.6448 42.9439C12.5208 43.3735 12.9035 44.551 13.3209 45.224C15.3254 48.7164 23.0701 51.4621 29.5919 51.4621C40.8477 51.4621 52.0741 41.2727 52.0741 37.1956C52.0741 33.1198 39.5699 22.9277 28.314 22.9277C17.0863 22.9264 11.3286 31.0378 11.3125 37.1474Z"></path>
<path fill="black" d="M20.4542 28.4661C21.9314 28.4661 23.1303 29.6623 23.1303 31.1422C23.1303 32.6208 21.9314 33.8183 20.4542 33.8183C18.9756 33.8183 17.7781 32.6194 17.7781 31.1422C17.7781 29.6623 18.9756 28.4661 20.4542 28.4661Z"></path>
<path fill="#996522" d="M31.2658 45.8341C31.0571 45.8341 30.8457 45.7859 30.6476 45.6829C29.992 45.3403 29.7391 44.5322 30.0816 43.8765C32.2025 39.8168 33.0495 36.1585 30.2877 31.5087C29.9104 30.8731 30.1191 30.0529 30.7547 29.6742C31.3903 29.2955 32.2105 29.5083 32.5892 30.1412C36.1926 36.2094 34.5428 41.1161 32.4527 45.1156C32.2145 45.5732 31.7475 45.8341 31.2658 45.8341Z"></path>
<path fill="white" d="M85.7876 27.6918C85.7415 27.5036 85.6687 27.3384 85.5692 27.1964C85.4698 27.0508 85.3455 26.9283 85.1964 26.8288C85.0508 26.7259 84.8803 26.6495 84.685 26.5998C84.4933 26.5465 84.282 26.5199 84.0511 26.5199C83.554 26.5199 83.1296 26.6388 82.7781 26.8768C82.43 27.1147 82.1637 27.4574 81.979 27.9048C81.7979 28.3523 81.7074 28.892 81.7074 29.5241C81.7074 30.1634 81.7944 30.7102 81.9684 31.1648C82.1424 31.6193 82.4016 31.9673 82.7461 32.2088C83.0906 32.4503 83.5185 32.571 84.0298 32.571C84.4808 32.571 84.8555 32.5053 85.1538 32.3739C85.4556 32.2425 85.6811 32.0561 85.8303 31.8146C85.9794 31.5732 86.054 31.2891 86.054 30.9624L86.5653 31.0156H84.0724V28.9062H88.9091V30.419C88.9091 31.4134 88.6978 32.2638 88.2752 32.9705C87.8562 33.6737 87.2773 34.2134 86.5387 34.5898C85.8036 34.9627 84.9602 35.1491 84.0085 35.1491C82.9467 35.1491 82.0146 34.9237 81.212 34.4727C80.4094 34.0217 79.7827 33.3789 79.3317 32.5444C78.8842 31.7099 78.6605 30.7173 78.6605 29.5668C78.6605 28.6648 78.7972 27.8658 79.0707 27.1697C79.3477 26.4737 79.7312 25.886 80.2212 25.4066C80.7113 24.9237 81.2777 24.5597 81.9205 24.3146C82.5632 24.0661 83.2521 23.9418 83.9872 23.9418C84.6335 23.9418 85.2337 24.0341 85.7876 24.2188C86.3452 24.3999 86.837 24.6591 87.2631 24.9964C87.6928 25.3303 88.0391 25.7262 88.3018 26.1843C88.5646 26.6424 88.7244 27.1449 88.7812 27.6918H85.7876ZM94.2744 35.1491C93.3866 35.1491 92.6267 34.9734 91.9946 34.6218C91.3625 34.2667 90.8778 33.7731 90.5404 33.141C90.203 32.5053 90.0344 31.7685 90.0344 30.9304C90.0344 30.0923 90.203 29.3572 90.5404 28.7251C90.8778 28.0895 91.3625 27.5959 91.9946 27.2443C92.6267 26.8892 93.3866 26.7116 94.2744 26.7116C95.1622 26.7116 95.9221 26.8892 96.5542 27.2443C97.1863 27.5959 97.6711 28.0895 98.0084 28.7251C98.3458 29.3572 98.5145 30.0923 98.5145 30.9304C98.5145 31.7685 98.3458 32.5053 98.0084 33.141C97.6711 33.7731 97.1863 34.2667 96.5542 34.6218C95.9221 34.9734 95.1622 35.1491 94.2744 35.1491ZM94.2957 32.9759C94.5443 32.9759 94.7591 32.8924 94.9403 32.7255C95.1214 32.5586 95.2616 32.3207 95.3611 32.0117C95.4605 31.7028 95.5102 31.3352 95.5102 30.9091C95.5102 30.4794 95.4605 30.1119 95.3611 29.8065C95.2616 29.4975 95.1214 29.2596 94.9403 29.0927C94.7591 28.9258 94.5443 28.8423 94.2957 28.8423C94.0329 28.8423 93.8074 28.9258 93.6192 29.0927C93.431 29.2596 93.2872 29.4975 93.1878 29.8065C93.0883 30.1119 93.0386 30.4794 93.0386 30.9091C93.0386 31.3352 93.0883 31.7028 93.1878 32.0117C93.2872 32.3207 93.431 32.5586 93.6192 32.7255C93.8074 32.8924 94.0329 32.9759 94.2957 32.9759ZM102.648 24.0909V35H99.7077V24.0909H102.648ZM107.108 35.1065C106.525 35.1065 105.989 34.9538 105.499 34.6484C105.013 34.343 104.622 33.8796 104.327 33.2582C104.036 32.6367 103.89 31.8537 103.89 30.9091C103.89 29.9219 104.043 29.1193 104.349 28.5014C104.657 27.8835 105.055 27.4308 105.542 27.1431C106.032 26.8555 106.547 26.7116 107.086 26.7116C107.491 26.7116 107.846 26.7827 108.152 26.9247C108.457 27.0632 108.713 27.2496 108.919 27.484C109.125 27.7148 109.281 27.9687 109.388 28.2457H109.43V24.0909H112.371V35H109.452V33.6577H109.388C109.274 33.9347 109.111 34.1832 108.898 34.4034C108.688 34.62 108.432 34.7923 108.131 34.9201C107.832 35.0444 107.491 35.1065 107.108 35.1065ZM108.194 32.848C108.464 32.848 108.695 32.7699 108.887 32.6136C109.082 32.4538 109.231 32.2301 109.334 31.9425C109.441 31.6513 109.494 31.3068 109.494 30.9091C109.494 30.5043 109.441 30.158 109.334 29.8704C109.231 29.5792 109.082 29.3572 108.887 29.2045C108.695 29.0483 108.464 28.9702 108.194 28.9702C107.925 28.9702 107.694 29.0483 107.502 29.2045C107.314 29.3572 107.168 29.5792 107.065 29.8704C106.966 30.158 106.916 30.5043 106.916 30.9091C106.916 31.3139 106.966 31.6619 107.065 31.9531C107.168 32.2408 107.314 32.4627 107.502 32.619C107.694 32.7717 107.925 32.848 108.194 32.848ZM118.715 26.8182V28.9489H113.239V26.8182H118.715ZM114.283 35V26.5838C114.283 25.9091 114.404 25.3498 114.645 24.9059C114.887 24.462 115.227 24.13 115.668 23.9098C116.108 23.6896 116.627 23.5795 117.223 23.5795C117.596 23.5795 117.958 23.608 118.31 23.6648C118.665 23.7216 118.928 23.7713 119.098 23.8139L118.672 25.9233C118.566 25.8913 118.441 25.8665 118.299 25.8487C118.157 25.8274 118.033 25.8168 117.926 25.8168C117.649 25.8168 117.463 25.8754 117.367 25.9925C117.271 26.1097 117.223 26.2642 117.223 26.456V35H114.283ZM119.849 35V26.8182H122.79V35H119.849ZM121.319 25.9659C120.922 25.9659 120.581 25.8345 120.297 25.5717C120.013 25.3089 119.871 24.9929 119.871 24.6236C119.871 24.2543 120.013 23.9382 120.297 23.6754C120.581 23.4126 120.922 23.2812 121.319 23.2812C121.721 23.2812 122.062 23.4126 122.342 23.6754C122.626 23.9382 122.768 24.2543 122.768 24.6236C122.768 24.9929 122.626 25.3089 122.342 25.5717C122.062 25.8345 121.721 25.9659 121.319 25.9659ZM131.766 29.4815H129.06C129.046 29.3146 128.988 29.1708 128.885 29.0501C128.782 28.9293 128.649 28.837 128.485 28.7731C128.325 28.7056 128.148 28.6719 127.953 28.6719C127.7 28.6719 127.484 28.718 127.303 28.8104C127.122 28.9027 127.033 29.0341 127.036 29.2045C127.033 29.3253 127.084 29.4371 127.191 29.5401C127.301 29.6431 127.512 29.723 127.825 29.7798L129.487 30.0781C130.325 30.2308 130.948 30.4883 131.356 30.8505C131.768 31.2092 131.976 31.6903 131.979 32.294C131.976 32.8764 131.802 33.3825 131.457 33.8121C131.117 34.2383 130.65 34.5685 130.057 34.8029C129.467 35.0337 128.794 35.1491 128.038 35.1491C126.788 35.1491 125.809 34.8935 125.103 34.3821C124.4 33.8707 124.007 33.196 123.926 32.358H126.845C126.884 32.6172 127.011 32.8178 127.228 32.9599C127.448 33.0984 127.725 33.1676 128.059 33.1676C128.329 33.1676 128.551 33.1214 128.725 33.0291C128.902 32.9368 128.993 32.8054 128.997 32.6349C128.993 32.4787 128.915 32.3544 128.762 32.2621C128.613 32.1697 128.379 32.0952 128.059 32.0384L126.61 31.7827C125.776 31.6371 125.151 31.3601 124.735 30.9517C124.32 30.5433 124.114 30.0178 124.117 29.375C124.114 28.8068 124.263 28.3256 124.565 27.9315C124.87 27.5337 125.305 27.2319 125.87 27.0259C126.438 26.8164 127.111 26.7116 127.889 26.7116C129.071 26.7116 130.003 26.9567 130.685 27.4467C131.37 27.9368 131.731 28.6151 131.766 29.4815ZM136.046 30.3977V35H133.106V24.0909H135.94V28.3736H136.025C136.21 27.8516 136.517 27.445 136.947 27.1538C137.376 26.859 137.893 26.7116 138.497 26.7116C139.076 26.7116 139.578 26.843 140.004 27.1058C140.434 27.3686 140.766 27.7308 141 28.1925C141.238 28.6541 141.355 29.1832 141.352 29.7798V35H138.411V30.3977C138.415 29.9929 138.314 29.6751 138.108 29.4442C137.905 29.2134 137.616 29.098 137.24 29.098C137.002 29.098 136.792 29.1513 136.611 29.2578C136.434 29.3608 136.295 29.5099 136.196 29.7053C136.1 29.897 136.05 30.1278 136.046 30.3977Z"></path>
<path fill="white" d="M80.4205 47.0795C80.0871 47.0795 79.7869 47.0133 79.5199 46.8807C79.2528 46.7481 79.0388 46.5663 78.8778 46.3352C78.7169 46.1042 78.6288 45.8409 78.6136 45.5455H79.2955C79.322 45.8087 79.4413 46.0265 79.6534 46.1989C79.8674 46.3693 80.1231 46.4545 80.4205 46.4545C80.6591 46.4545 80.8712 46.3987 81.0568 46.2869C81.2443 46.1752 81.3911 46.0218 81.4972 45.8267C81.6051 45.6297 81.6591 45.4072 81.6591 45.1591C81.6591 44.9053 81.6032 44.679 81.4915 44.4801C81.3816 44.2794 81.2301 44.1212 81.0369 44.0057C80.8438 43.8902 80.6231 43.8314 80.375 43.8295C80.197 43.8277 80.0142 43.8551 79.8267 43.9119C79.6392 43.9669 79.4848 44.0379 79.3636 44.125L78.7045 44.0455L79.0568 41.1818H82.0795V41.8068H79.6477L79.4432 43.5227H79.4773C79.5966 43.428 79.7462 43.3494 79.9261 43.2869C80.1061 43.2244 80.2936 43.1932 80.4886 43.1932C80.8447 43.1932 81.1619 43.2784 81.4403 43.4489C81.7206 43.6174 81.9403 43.8485 82.0994 44.142C82.2604 44.4356 82.3409 44.7708 82.3409 45.1477C82.3409 45.5189 82.2576 45.8504 82.0909 46.142C81.9261 46.4318 81.6989 46.661 81.4091 46.8295C81.1193 46.9962 80.7898 47.0795 80.4205 47.0795ZM87.5604 47.0909C87.1399 47.0909 86.7772 46.9981 86.4723 46.8125C86.1693 46.625 85.9354 46.3636 85.7706 46.0284C85.6077 45.6913 85.5263 45.2992 85.5263 44.8523C85.5263 44.4053 85.6077 44.0114 85.7706 43.6705C85.9354 43.3277 86.1645 43.0606 86.4581 42.8693C86.7536 42.6761 87.0982 42.5795 87.4922 42.5795C87.7195 42.5795 87.9439 42.6174 88.1655 42.6932C88.3871 42.7689 88.5888 42.892 88.7706 43.0625C88.9524 43.2311 89.0973 43.4545 89.2053 43.733C89.3132 44.0114 89.3672 44.3542 89.3672 44.7614V45.0455H86.0036V44.4659H88.6854C88.6854 44.2197 88.6361 44 88.5376 43.8068C88.4411 43.6136 88.3028 43.4612 88.1229 43.3494C87.9448 43.2377 87.7346 43.1818 87.4922 43.1818C87.2251 43.1818 86.9941 43.2481 86.799 43.3807C86.6058 43.5114 86.4571 43.6818 86.353 43.892C86.2488 44.1023 86.1967 44.3277 86.1967 44.5682V44.9545C86.1967 45.2841 86.2536 45.5634 86.3672 45.7926C86.4827 46.0199 86.6428 46.1932 86.8473 46.3125C87.0518 46.4299 87.2895 46.4886 87.5604 46.4886C87.7365 46.4886 87.8956 46.464 88.0376 46.4148C88.1816 46.3636 88.3056 46.2879 88.4098 46.1875C88.514 46.0852 88.5945 45.9583 88.6513 45.8068L89.299 45.9886C89.2308 46.2083 89.1162 46.4015 88.9553 46.5682C88.7943 46.733 88.5954 46.8617 88.3587 46.9545C88.1219 47.0455 87.8558 47.0909 87.5604 47.0909ZM91.0575 44.375V47H90.3871V42.6364H91.0348V43.3182H91.0916C91.1939 43.0966 91.3492 42.9186 91.5575 42.7841C91.7659 42.6477 92.0348 42.5795 92.3643 42.5795C92.6598 42.5795 92.9183 42.6402 93.1399 42.7614C93.3615 42.8807 93.5339 43.0625 93.657 43.3068C93.7801 43.5492 93.8416 43.8561 93.8416 44.2273V47H93.1712V44.2727C93.1712 43.9299 93.0821 43.6629 92.9041 43.4716C92.7261 43.2784 92.4818 43.1818 92.1712 43.1818C91.9571 43.1818 91.7659 43.2282 91.5973 43.321C91.4306 43.4138 91.299 43.5492 91.2024 43.7273C91.1058 43.9053 91.0575 44.1212 91.0575 44.375ZM96.8963 47.0909C96.4759 47.0909 96.1132 46.9981 95.8082 46.8125C95.5052 46.625 95.2713 46.3636 95.1065 46.0284C94.9437 45.6913 94.8622 45.2992 94.8622 44.8523C94.8622 44.4053 94.9437 44.0114 95.1065 43.6705C95.2713 43.3277 95.5005 43.0606 95.794 42.8693C96.0895 42.6761 96.4342 42.5795 96.8281 42.5795C97.0554 42.5795 97.2798 42.6174 97.5014 42.6932C97.723 42.7689 97.9247 42.892 98.1065 43.0625C98.2884 43.2311 98.4332 43.4545 98.5412 43.733C98.6491 44.0114 98.7031 44.3542 98.7031 44.7614V45.0455H95.3395V44.4659H98.0213C98.0213 44.2197 97.9721 44 97.8736 43.8068C97.777 43.6136 97.6387 43.4612 97.4588 43.3494C97.2808 43.2377 97.0705 43.1818 96.8281 43.1818C96.5611 43.1818 96.33 43.2481 96.1349 43.3807C95.9418 43.5114 95.7931 43.6818 95.6889 43.892C95.5848 44.1023 95.5327 44.3277 95.5327 44.5682V44.9545C95.5327 45.2841 95.5895 45.5634 95.7031 45.7926C95.8187 46.0199 95.9787 46.1932 96.1832 46.3125C96.3878 46.4299 96.6255 46.4886 96.8963 46.4886C97.0724 46.4886 97.2315 46.464 97.3736 46.4148C97.5175 46.3636 97.6416 46.2879 97.7457 46.1875C97.8499 46.0852 97.9304 45.9583 97.9872 45.8068L98.6349 45.9886C98.5668 46.2083 98.4522 46.4015 98.2912 46.5682C98.1302 46.733 97.9313 46.8617 97.6946 46.9545C97.4579 47.0455 97.1918 47.0909 96.8963 47.0909ZM99.723 47V42.6364H100.371V43.2955H100.416C100.496 43.0795 100.64 42.9044 100.848 42.7699C101.056 42.6354 101.291 42.5682 101.553 42.5682C101.602 42.5682 101.663 42.5691 101.737 42.571C101.811 42.5729 101.867 42.5758 101.905 42.5795V43.2614C101.882 43.2557 101.83 43.2472 101.749 43.2358C101.669 43.2225 101.585 43.2159 101.496 43.2159C101.284 43.2159 101.094 43.2604 100.928 43.3494C100.763 43.4366 100.632 43.5578 100.536 43.7131C100.441 43.8665 100.393 44.0417 100.393 44.2386V47H99.723ZM104.328 48.7273C104.004 48.7273 103.726 48.6856 103.493 48.6023C103.26 48.5208 103.066 48.4129 102.911 48.2784C102.757 48.1458 102.635 48.0038 102.544 47.8523L103.078 47.4773C103.139 47.5568 103.215 47.6477 103.308 47.75C103.401 47.8542 103.528 47.9441 103.689 48.0199C103.852 48.0975 104.065 48.1364 104.328 48.1364C104.68 48.1364 104.971 48.0511 105.2 47.8807C105.429 47.7102 105.544 47.4432 105.544 47.0795V46.1932H105.487C105.438 46.2727 105.368 46.3712 105.277 46.4886C105.188 46.6042 105.059 46.7074 104.891 46.7983C104.724 46.8873 104.499 46.9318 104.214 46.9318C103.862 46.9318 103.546 46.8485 103.266 46.6818C102.987 46.5152 102.767 46.2727 102.604 45.9545C102.443 45.6364 102.362 45.25 102.362 44.7955C102.362 44.3485 102.441 43.9593 102.598 43.6278C102.755 43.2945 102.974 43.0369 103.254 42.8551C103.535 42.6714 103.858 42.5795 104.226 42.5795C104.51 42.5795 104.735 42.6269 104.902 42.7216C105.071 42.8144 105.199 42.9205 105.288 43.0398C105.379 43.1572 105.449 43.2538 105.499 43.3295H105.567V42.6364H106.214V47.125C106.214 47.5 106.129 47.8049 105.959 48.0398C105.79 48.2765 105.563 48.4498 105.277 48.5597C104.993 48.6714 104.677 48.7273 104.328 48.7273ZM104.305 46.3295C104.574 46.3295 104.802 46.268 104.987 46.1449C105.173 46.0218 105.314 45.8447 105.411 45.6136C105.507 45.3826 105.555 45.1061 105.555 44.7841C105.555 44.4697 105.508 44.1922 105.413 43.9517C105.319 43.7112 105.179 43.5227 104.993 43.3864C104.807 43.25 104.578 43.1818 104.305 43.1818C104.021 43.1818 103.785 43.2538 103.595 43.3977C103.408 43.5417 103.267 43.7348 103.172 43.9773C103.079 44.2197 103.033 44.4886 103.033 44.7841C103.033 45.0871 103.08 45.3551 103.175 45.5881C103.271 45.8191 103.413 46.0009 103.601 46.1335C103.79 46.2642 104.025 46.3295 104.305 46.3295ZM107.874 48.6364C107.76 48.6364 107.659 48.6269 107.57 48.608C107.481 48.5909 107.419 48.5739 107.385 48.5568L107.555 47.9659C107.718 48.0076 107.862 48.0227 107.987 48.0114C108.112 48 108.223 47.9441 108.32 47.8438C108.418 47.7453 108.508 47.5852 108.589 47.3636L108.714 47.0227L107.101 42.6364H107.828L109.033 46.1136H109.078L110.283 42.6364H111.01L109.158 47.6364C109.074 47.8617 108.971 48.0483 108.848 48.196C108.725 48.3456 108.582 48.4564 108.419 48.5284C108.258 48.6004 108.076 48.6364 107.874 48.6364ZM113.499 40.9091L111.624 47.875H111.01L112.885 40.9091H113.499ZM117.384 43.6136L116.782 43.7841C116.744 43.6837 116.688 43.5862 116.614 43.4915C116.542 43.3949 116.444 43.3153 116.319 43.2528C116.194 43.1903 116.034 43.1591 115.839 43.1591C115.572 43.1591 115.349 43.2206 115.171 43.3438C114.995 43.465 114.907 43.6193 114.907 43.8068C114.907 43.9735 114.968 44.1051 115.089 44.2017C115.21 44.2983 115.399 44.3788 115.657 44.4432L116.305 44.6023C116.695 44.697 116.986 44.8419 117.177 45.0369C117.368 45.2301 117.464 45.4792 117.464 45.7841C117.464 46.0341 117.392 46.2576 117.248 46.4545C117.106 46.6515 116.907 46.8068 116.651 46.9205C116.396 47.0341 116.098 47.0909 115.759 47.0909C115.314 47.0909 114.946 46.9943 114.654 46.8011C114.362 46.608 114.178 46.3258 114.1 45.9545L114.737 45.7955C114.797 46.0303 114.912 46.2064 115.08 46.3239C115.251 46.4413 115.473 46.5 115.748 46.5C116.06 46.5 116.308 46.4337 116.492 46.3011C116.678 46.1667 116.771 46.0057 116.771 45.8182C116.771 45.6667 116.718 45.5398 116.612 45.4375C116.505 45.3333 116.343 45.2557 116.123 45.2045L115.396 45.0341C114.996 44.9394 114.702 44.7926 114.515 44.5938C114.329 44.393 114.237 44.142 114.237 43.8409C114.237 43.5947 114.306 43.3769 114.444 43.1875C114.584 42.9981 114.774 42.8494 115.015 42.7415C115.257 42.6335 115.532 42.5795 115.839 42.5795C116.271 42.5795 116.61 42.6742 116.856 42.8636C117.104 43.053 117.28 43.303 117.384 43.6136ZM120.303 47.0909C119.882 47.0909 119.519 46.9981 119.214 46.8125C118.911 46.625 118.678 46.3636 118.513 46.0284C118.35 45.6913 118.268 45.2992 118.268 44.8523C118.268 44.4053 118.35 44.0114 118.513 43.6705C118.678 43.3277 118.907 43.0606 119.2 42.8693C119.496 42.6761 119.84 42.5795 120.234 42.5795C120.462 42.5795 120.686 42.6174 120.908 42.6932C121.129 42.7689 121.331 42.892 121.513 43.0625C121.695 43.2311 121.839 43.4545 121.947 43.733C122.055 44.0114 122.109 44.3542 122.109 44.7614V45.0455H118.746V44.4659H121.428C121.428 44.2197 121.378 44 121.28 43.8068C121.183 43.6136 121.045 43.4612 120.865 43.3494C120.687 43.2377 120.477 43.1818 120.234 43.1818C119.967 43.1818 119.736 43.2481 119.541 43.3807C119.348 43.5114 119.199 43.6818 119.095 43.892C118.991 44.1023 118.939 44.3277 118.939 44.5682V44.9545C118.939 45.2841 118.996 45.5634 119.109 45.7926C119.225 46.0199 119.385 46.1932 119.589 46.3125C119.794 46.4299 120.032 46.4886 120.303 46.4886C120.479 46.4886 120.638 46.464 120.78 46.4148C120.924 46.3636 121.048 46.2879 121.152 46.1875C121.256 46.0852 121.337 45.9583 121.393 45.8068L122.041 45.9886C121.973 46.2083 121.858 46.4015 121.697 46.5682C121.536 46.733 121.338 46.8617 121.101 46.9545C120.864 47.0455 120.598 47.0909 120.303 47.0909ZM124.902 47.0909C124.493 47.0909 124.141 46.9943 123.845 46.8011C123.55 46.608 123.322 46.3419 123.163 46.0028C123.004 45.6638 122.925 45.2765 122.925 44.8409C122.925 44.3977 123.006 44.0066 123.169 43.6676C123.334 43.3267 123.563 43.0606 123.857 42.8693C124.152 42.6761 124.497 42.5795 124.891 42.5795C125.197 42.5795 125.474 42.6364 125.72 42.75C125.966 42.8636 126.168 43.0227 126.325 43.2273C126.482 43.4318 126.58 43.6705 126.618 43.9432H125.947C125.896 43.7443 125.783 43.5682 125.607 43.4148C125.432 43.2595 125.197 43.1818 124.902 43.1818C124.641 43.1818 124.411 43.25 124.214 43.3864C124.019 43.5208 123.867 43.7112 123.757 43.9574C123.649 44.2017 123.595 44.4886 123.595 44.8182C123.595 45.1553 123.648 45.4489 123.754 45.6989C123.862 45.9489 124.014 46.143 124.209 46.2812C124.406 46.4195 124.637 46.4886 124.902 46.4886C125.076 46.4886 125.234 46.4583 125.376 46.3977C125.518 46.3371 125.639 46.25 125.737 46.1364C125.836 46.0227 125.906 45.8864 125.947 45.7273H126.618C126.58 45.9848 126.486 46.2169 126.337 46.4233C126.189 46.6278 125.993 46.7907 125.749 46.9119C125.506 47.0312 125.224 47.0909 124.902 47.0909ZM129.371 47.0909C128.977 47.0909 128.631 46.9972 128.334 46.8097C128.038 46.6222 127.807 46.3598 127.641 46.0227C127.476 45.6856 127.393 45.2917 127.393 44.8409C127.393 44.3864 127.476 43.9896 127.641 43.6506C127.807 43.3116 128.038 43.0483 128.334 42.8608C128.631 42.6733 128.977 42.5795 129.371 42.5795C129.765 42.5795 130.109 42.6733 130.405 42.8608C130.702 43.0483 130.933 43.3116 131.098 43.6506C131.265 43.9896 131.348 44.3864 131.348 44.8409C131.348 45.2917 131.265 45.6856 131.098 46.0227C130.933 46.3598 130.702 46.6222 130.405 46.8097C130.109 46.9972 129.765 47.0909 129.371 47.0909ZM129.371 46.4886C129.67 46.4886 129.916 46.4119 130.109 46.2585C130.303 46.1051 130.446 45.9034 130.538 45.6534C130.631 45.4034 130.678 45.1326 130.678 44.8409C130.678 44.5492 130.631 44.2775 130.538 44.0256C130.446 43.7737 130.303 43.5701 130.109 43.4148C129.916 43.2595 129.67 43.1818 129.371 43.1818C129.071 43.1818 128.825 43.2595 128.632 43.4148C128.439 43.5701 128.296 43.7737 128.203 44.0256C128.11 44.2775 128.064 44.5492 128.064 44.8409C128.064 45.1326 128.11 45.4034 128.203 45.6534C128.296 45.9034 128.439 46.1051 128.632 46.2585C128.825 46.4119 129.071 46.4886 129.371 46.4886ZM133.042 44.375V47H132.371V42.6364H133.019V43.3182H133.076C133.178 43.0966 133.334 42.9186 133.542 42.7841C133.75 42.6477 134.019 42.5795 134.349 42.5795C134.644 42.5795 134.903 42.6402 135.124 42.7614C135.346 42.8807 135.518 43.0625 135.641 43.3068C135.764 43.5492 135.826 43.8561 135.826 44.2273V47H135.156V44.2727C135.156 43.9299 135.067 43.6629 134.888 43.4716C134.71 43.2784 134.466 43.1818 134.156 43.1818C133.942 43.1818 133.75 43.2282 133.582 43.321C133.415 43.4138 133.283 43.5492 133.187 43.7273C133.09 43.9053 133.042 44.1212 133.042 44.375ZM138.699 47.0909C138.335 47.0909 138.014 46.9991 137.736 46.8153C137.457 46.6297 137.24 46.3684 137.082 46.0312C136.925 45.6922 136.847 45.2917 136.847 44.8295C136.847 44.3712 136.925 43.9735 137.082 43.6364C137.24 43.2992 137.458 43.0388 137.739 42.8551C138.019 42.6714 138.343 42.5795 138.71 42.5795C138.994 42.5795 139.219 42.6269 139.384 42.7216C139.55 42.8144 139.677 42.9205 139.764 43.0398C139.853 43.1572 139.922 43.2538 139.972 43.3295H140.028V41.1818H140.699V47H140.051V46.3295H139.972C139.922 46.4091 139.852 46.5095 139.761 46.6307C139.67 46.75 139.541 46.857 139.372 46.9517C139.204 47.0445 138.979 47.0909 138.699 47.0909ZM138.79 46.4886C139.059 46.4886 139.286 46.4186 139.472 46.2784C139.657 46.1364 139.798 45.9403 139.895 45.6903C139.991 45.4384 140.04 45.1477 140.04 44.8182C140.04 44.4924 139.992 44.2074 139.898 43.9631C139.803 43.7169 139.663 43.5256 139.477 43.3892C139.292 43.2509 139.063 43.1818 138.79 43.1818C138.506 43.1818 138.269 43.2547 138.08 43.4006C137.892 43.5445 137.751 43.7405 137.656 43.9886C137.563 44.2348 137.517 44.5114 137.517 44.8182C137.517 45.1288 137.564 45.411 137.659 45.6648C137.756 45.9167 137.898 46.1174 138.085 46.267C138.275 46.4148 138.509 46.4886 138.79 46.4886Z"></path>
</svg>
