<svg xmlns="http://www.w3.org/2000/svg" fill="none" viewBox="0 0 240 70" height="70" width="240">
<path fill="black" d="M78.4048 26.4773V24.0909H87.8864V26.4773H84.6051V35H81.6861V26.4773H78.4048ZM91.9839 30.3977V35H89.0436V24.0909H91.8774V28.3736H91.9626C92.1473 27.8516 92.4545 27.445 92.8841 27.1538C93.3138 26.859 93.8305 26.7116 94.4342 26.7116C95.0131 26.7116 95.5155 26.843 95.9417 27.1058C96.3714 27.3686 96.7034 27.7308 96.9378 28.1925C97.1757 28.6541 97.2929 29.1832 97.2893 29.7798V35H94.349V30.3977C94.3525 29.9929 94.2513 29.6751 94.0454 29.4442C93.843 29.2134 93.5535 29.098 93.1771 29.098C92.9392 29.098 92.7297 29.1513 92.5486 29.2578C92.371 29.3608 92.2325 29.5099 92.1331 29.7053C92.0372 29.897 91.9875 30.1278 91.9839 30.3977ZM102.661 35.1491C101.788 35.1491 101.035 34.9822 100.403 34.6484C99.7742 34.3111 99.2895 33.8281 98.9486 33.1996C98.6112 32.5675 98.4426 31.8111 98.4426 30.9304C98.4426 30.0852 98.613 29.3466 98.9539 28.7145C99.2948 28.0824 99.776 27.5906 100.397 27.239C101.019 26.8874 101.752 26.7116 102.597 26.7116C103.215 26.7116 103.775 26.8075 104.275 26.9993C104.776 27.1911 105.204 27.4698 105.559 27.8356C105.914 28.1978 106.188 28.6381 106.379 29.1566C106.571 29.6751 106.667 30.2592 106.667 30.9091V31.5909H99.3588V29.9716H103.961C103.957 29.7372 103.897 29.5312 103.78 29.3537C103.666 29.1726 103.512 29.0323 103.316 28.9329C103.125 28.8299 102.906 28.7784 102.661 28.7784C102.423 28.7784 102.205 28.8299 102.006 28.9329C101.807 29.0323 101.647 29.1708 101.527 29.3484C101.41 29.5259 101.347 29.7337 101.34 29.9716V31.7188C101.34 31.9815 101.395 32.2159 101.505 32.4219C101.616 32.6278 101.774 32.7894 101.979 32.9066C102.185 33.0238 102.434 33.0824 102.725 33.0824C102.928 33.0824 103.112 33.054 103.279 32.9972C103.45 32.9403 103.595 32.8587 103.716 32.7521C103.837 32.642 103.926 32.5107 103.982 32.358H106.667C106.575 32.9261 106.356 33.4197 106.012 33.8388C105.667 34.2543 105.211 34.5774 104.643 34.8082C104.078 35.0355 103.418 35.1491 102.661 35.1491ZM110.514 26.4773V24.0909H119.996V26.4773H116.714V35H113.795V26.4773H110.514ZM121.153 35V26.8182H124.093V35H121.153ZM122.623 25.9659C122.225 25.9659 121.884 25.8345 121.6 25.5717C121.316 25.3089 121.174 24.9929 121.174 24.6236C121.174 24.2543 121.316 23.9382 121.6 23.6754C121.884 23.4126 122.225 23.2812 122.623 23.2812C123.024 23.2812 123.365 23.4126 123.646 23.6754C123.93 23.9382 124.072 24.2543 124.072 24.6236C124.072 24.9929 123.93 25.3089 123.646 25.5717C123.365 25.8345 123.024 25.9659 122.623 25.9659ZM128.553 35.1065C127.971 35.1065 127.434 34.9538 126.944 34.6484C126.458 34.343 126.067 33.8796 125.773 33.2582C125.481 32.6367 125.336 31.8537 125.336 30.9091C125.336 29.9219 125.488 29.1193 125.794 28.5014C126.103 27.8835 126.501 27.4308 126.987 27.1431C127.477 26.8555 127.992 26.7116 128.532 26.7116C128.937 26.7116 129.292 26.7827 129.597 26.9247C129.903 27.0632 130.158 27.2496 130.364 27.484C130.57 27.7148 130.726 27.9687 130.833 28.2457H130.876V24.0909H133.816V35H130.897V33.6577H130.833C130.719 33.9347 130.556 34.1832 130.343 34.4034C130.133 34.62 129.878 34.7923 129.576 34.9201C129.278 35.0444 128.937 35.1065 128.553 35.1065ZM129.64 32.848C129.91 32.848 130.14 32.7699 130.332 32.6136C130.528 32.4538 130.677 32.2301 130.78 31.9425C130.886 31.6513 130.939 31.3068 130.939 30.9091C130.939 30.5043 130.886 30.158 130.78 29.8704C130.677 29.5792 130.528 29.3572 130.332 29.2045C130.14 29.0483 129.91 28.9702 129.64 28.9702C129.37 28.9702 129.139 29.0483 128.947 29.2045C128.759 29.3572 128.613 29.5792 128.51 29.8704C128.411 30.158 128.361 30.5043 128.361 30.9091C128.361 31.3139 128.411 31.6619 128.51 31.9531C128.613 32.2408 128.759 32.4627 128.947 32.619C129.139 32.7717 129.37 32.848 129.64 32.848ZM139.18 35.1491C138.306 35.1491 137.553 34.9822 136.921 34.6484C136.293 34.3111 135.808 33.8281 135.467 33.1996C135.13 32.5675 134.961 31.8111 134.961 30.9304C134.961 30.0852 135.132 29.3466 135.472 28.7145C135.813 28.0824 136.295 27.5906 136.916 27.239C137.537 26.8874 138.271 26.7116 139.116 26.7116C139.734 26.7116 140.293 26.8075 140.794 26.9993C141.295 27.1911 141.722 27.4698 142.078 27.8356C142.433 28.1978 142.706 28.6381 142.898 29.1566C143.09 29.6751 143.186 30.2592 143.186 30.9091V31.5909H135.877V29.9716H140.48C140.476 29.7372 140.416 29.5312 140.298 29.3537C140.185 29.1726 140.03 29.0323 139.835 28.9329C139.643 28.8299 139.425 28.7784 139.18 28.7784C138.942 28.7784 138.724 28.8299 138.525 28.9329C138.326 29.0323 138.166 29.1708 138.045 29.3484C137.928 29.5259 137.866 29.7337 137.859 29.9716V31.7188C137.859 31.9815 137.914 32.2159 138.024 32.4219C138.134 32.6278 138.292 32.7894 138.498 32.9066C138.704 33.0238 138.953 33.0824 139.244 33.0824C139.446 33.0824 139.631 33.054 139.798 32.9972C139.968 32.9403 140.114 32.8587 140.235 32.7521C140.355 32.642 140.444 32.5107 140.501 32.358H143.186C143.093 32.9261 142.875 33.4197 142.53 33.8388C142.186 34.2543 141.73 34.5774 141.161 34.8082C140.597 35.0355 139.936 35.1491 139.18 35.1491Z"></path>
<path fill="black" d="M83.3182 41.1818V47H82.6364L79.4659 42.4318H79.4091V47H78.7045V41.1818H79.3864L82.5682 45.7614H82.625V41.1818H83.3182ZM89.6371 44.0909C89.6371 44.7045 89.5263 45.2348 89.3047 45.6818C89.0831 46.1288 88.7791 46.4735 88.3928 46.7159C88.0064 46.9583 87.5651 47.0795 87.0689 47.0795C86.5727 47.0795 86.1314 46.9583 85.745 46.7159C85.3587 46.4735 85.0547 46.1288 84.8331 45.6818C84.6115 45.2348 84.5007 44.7045 84.5007 44.0909C84.5007 43.4773 84.6115 42.947 84.8331 42.5C85.0547 42.053 85.3587 41.7083 85.745 41.4659C86.1314 41.2235 86.5727 41.1023 87.0689 41.1023C87.5651 41.1023 88.0064 41.2235 88.3928 41.4659C88.7791 41.7083 89.0831 42.053 89.3047 42.5C89.5263 42.947 89.6371 43.4773 89.6371 44.0909ZM88.9553 44.0909C88.9553 43.5871 88.871 43.1619 88.7024 42.8153C88.5357 42.4688 88.3094 42.2064 88.0234 42.0284C87.7393 41.8504 87.4212 41.7614 87.0689 41.7614C86.7166 41.7614 86.3975 41.8504 86.1115 42.0284C85.8274 42.2064 85.6011 42.4688 85.4325 42.8153C85.2659 43.1619 85.1825 43.5871 85.1825 44.0909C85.1825 44.5947 85.2659 45.0199 85.4325 45.3665C85.6011 45.7131 85.8274 45.9754 86.1115 46.1534C86.3975 46.3314 86.7166 46.4205 87.0689 46.4205C87.4212 46.4205 87.7393 46.3314 88.0234 46.1534C88.3094 45.9754 88.5357 45.7131 88.7024 45.3665C88.871 45.0199 88.9553 44.5947 88.9553 44.0909ZM91.5263 41.1818V47H90.8217V41.1818H91.5263ZM96.1207 42.6364C96.0866 42.3485 95.9484 42.125 95.706 41.9659C95.4635 41.8068 95.1662 41.7273 94.8139 41.7273C94.5563 41.7273 94.331 41.7689 94.1378 41.8523C93.9465 41.9356 93.7969 42.0502 93.6889 42.196C93.5829 42.3419 93.5298 42.5076 93.5298 42.6932C93.5298 42.8485 93.5668 42.982 93.6406 43.0938C93.7164 43.2036 93.813 43.2955 93.9304 43.3693C94.0478 43.4413 94.1709 43.5009 94.2997 43.5483C94.4285 43.5937 94.5469 43.6307 94.6548 43.6591L95.2457 43.8182C95.3973 43.858 95.5658 43.9129 95.7514 43.983C95.9389 44.053 96.1179 44.1487 96.2884 44.2699C96.4607 44.3892 96.6027 44.5426 96.7145 44.7301C96.8262 44.9176 96.8821 45.1477 96.8821 45.4205C96.8821 45.7348 96.7997 46.0189 96.6349 46.2727C96.4721 46.5265 96.2334 46.7282 95.919 46.8778C95.6065 47.0275 95.2268 47.1023 94.7798 47.1023C94.3632 47.1023 94.0024 47.035 93.6974 46.9006C93.3944 46.7661 93.1558 46.5786 92.9815 46.3381C92.8092 46.0975 92.7116 45.8182 92.6889 45.5H93.4162C93.4351 45.7197 93.509 45.9015 93.6378 46.0455C93.7685 46.1875 93.9332 46.2936 94.1321 46.3636C94.3329 46.4318 94.5488 46.4659 94.7798 46.4659C95.0488 46.4659 95.2902 46.4223 95.5043 46.3352C95.7183 46.2462 95.8878 46.1231 96.0128 45.9659C96.1378 45.8068 96.2003 45.6212 96.2003 45.4091C96.2003 45.2159 96.1463 45.0587 96.0384 44.9375C95.9304 44.8163 95.7884 44.7178 95.6122 44.642C95.4361 44.5663 95.2457 44.5 95.0412 44.4432L94.3253 44.2386C93.8707 44.108 93.5109 43.9214 93.2457 43.679C92.9806 43.4366 92.848 43.1193 92.848 42.7273C92.848 42.4015 92.9361 42.1174 93.1122 41.875C93.2902 41.6307 93.5289 41.4413 93.8281 41.3068C94.1293 41.1705 94.4654 41.1023 94.8366 41.1023C95.2116 41.1023 95.545 41.1695 95.8366 41.304C96.1283 41.4366 96.3594 41.6184 96.5298 41.8494C96.7022 42.0805 96.7931 42.3428 96.8026 42.6364H96.1207ZM98.745 41.1818V47H98.0405V41.1818H98.745ZM100.396 47H99.6577L101.794 41.1818H102.521L104.658 47H103.919L102.18 42.1023H102.135L100.396 47ZM100.669 44.7273H103.646V45.3523H100.669V44.7273Z"></path>
<path fill="black" d="M52.685 17.1011C53.0962 17.4494 53.3334 17.9611 53.3334 18.5V42.3333C53.3334 43.3458 52.5125 44.1666 51.5 44.1666C50.4875 44.1666 49.6667 43.3458 49.6667 42.3333V20.6642L31.3334 23.7197V46C31.3334 47.0125 30.5125 47.8333 29.5 47.8333C28.4875 47.8333 27.6667 47.0125 27.6667 46V22.1666C27.6667 21.2704 28.3146 20.5056 29.1986 20.3583L51.1986 16.6916C51.7302 16.603 52.2738 16.7528 52.685 17.1011Z" clip-rule="evenodd" fill-rule="evenodd"></path>
<path fill="black" d="M24 42.3333C21.975 42.3333 20.3334 43.9749 20.3334 46C20.3334 48.025 21.975 49.6666 24 49.6666C26.0251 49.6666 27.6667 48.025 27.6667 46C27.6667 43.9749 26.0251 42.3333 24 42.3333ZM16.6667 46C16.6667 41.9499 19.9499 38.6666 24 38.6666C28.0501 38.6666 31.3334 41.9499 31.3334 46C31.3334 50.05 28.0501 53.3333 24 53.3333C19.9499 53.3333 16.6667 50.05 16.6667 46Z" clip-rule="evenodd" fill-rule="evenodd"></path>
<path fill="black" d="M46 38.6667C43.975 38.6667 42.3334 40.3083 42.3334 42.3333C42.3334 44.3584 43.975 46 46 46C48.0251 46 49.6667 44.3584 49.6667 42.3333C49.6667 40.3083 48.0251 38.6667 46 38.6667ZM38.6667 42.3333C38.6667 38.2832 41.9499 35 46 35C50.0501 35 53.3334 38.2832 53.3334 42.3333C53.3334 46.3834 50.0501 49.6667 46 49.6667C41.9499 49.6667 38.6667 46.3834 38.6667 42.3333Z" clip-rule="evenodd" fill-rule="evenodd"></path>
</svg>
