<svg xmlns="http://www.w3.org/2000/svg" fill="none" viewBox="0 0 80 80" height="80" width="80">
<rect fill="black" height="80" width="80"></rect>
<path fill="white" d="M60 40C60 41.3807 58.8807 42.5 57.5 42.5L22.5 42.5C21.1193 42.5 20 41.3807 20 40C20 38.6193 21.1193 37.5 22.5 37.5L57.5 37.5C58.8807 37.5 60 38.6193 60 40Z" clip-rule="evenodd" fill-rule="evenodd"></path>
<path fill="white" d="M41.7678 59.2678C40.7915 60.2441 39.2085 60.2441 38.2322 59.2678L20.7322 41.7678C19.7559 40.7915 19.7559 39.2085 20.7322 38.2322L38.2322 20.7322C39.2085 19.7559 40.7915 19.7559 41.7678 20.7322C42.7441 21.7085 42.7441 23.2915 41.7678 24.2678L26.0355 40L41.7678 55.7322C42.7441 56.7085 42.7441 58.2915 41.7678 59.2678Z" clip-rule="evenodd" fill-rule="evenodd"></path>
</svg>
