<svg xmlns="http://www.w3.org/2000/svg" fill="none" viewBox="0 0 80 80" height="80" width="80">
<rect fill="black" height="80" width="80"></rect>
<path fill="white" d="M20 40C20 38.6193 21.1193 37.5 22.5 37.5H57.5C58.8807 37.5 60 38.6193 60 40C60 41.3807 58.8807 42.5 57.5 42.5H22.5C21.1193 42.5 20 41.3807 20 40Z" clip-rule="evenodd" fill-rule="evenodd"></path>
<path fill="white" d="M38.2322 20.7322C39.2085 19.7559 40.7915 19.7559 41.7678 20.7322L59.2678 38.2322C60.2441 39.2085 60.2441 40.7915 59.2678 41.7678L41.7678 59.2678C40.7915 60.2441 39.2085 60.2441 38.2322 59.2678C37.2559 58.2915 37.2559 56.7085 38.2322 55.7322L53.9645 40L38.2322 24.2678C37.2559 23.2915 37.2559 21.7085 38.2322 20.7322Z" clip-rule="evenodd" fill-rule="evenodd"></path>
</svg>
