<svg xmlns="http://www.w3.org/2000/svg" fill="none" viewBox="0 0 180 70" height="70" width="180">
<rect fill="#303030" height="70" width="180"></rect>
<rect fill="#303030" height="70" width="70"></rect>
<path fill="white" d="M84.5838 27.5C84.5554 27.1449 84.4222 26.8679 84.1843 26.669C83.9499 26.4702 83.593 26.3707 83.1136 26.3707C82.8082 26.3707 82.5579 26.408 82.3626 26.4826C82.1708 26.5536 82.0288 26.6513 81.9364 26.7756C81.8441 26.8999 81.7962 27.0419 81.7926 27.2017C81.7855 27.3331 81.8086 27.4521 81.8619 27.5586C81.9187 27.6616 82.0075 27.7557 82.1282 27.8409C82.2489 27.9226 82.4034 27.9972 82.5916 28.0646C82.7798 28.1321 83.0036 28.1925 83.2628 28.2457L84.1577 28.4375C84.7614 28.5653 85.2781 28.734 85.7077 28.9435C86.1374 29.1531 86.489 29.3999 86.7624 29.6839C87.0359 29.9645 87.2365 30.2805 87.3643 30.6321C87.4957 30.9837 87.5632 31.3672 87.5668 31.7827C87.5632 32.5 87.3839 33.1072 87.0288 33.6044C86.6737 34.1016 86.1658 34.4798 85.5053 34.739C84.8484 34.9982 84.0582 35.1278 83.1349 35.1278C82.1868 35.1278 81.3594 34.9876 80.6527 34.707C79.9496 34.4265 79.4027 33.995 79.0121 33.4126C78.625 32.8267 78.4297 32.0774 78.4261 31.1648H81.2386C81.2564 31.4986 81.3398 31.7791 81.489 32.0064C81.6381 32.2337 81.8477 32.4059 82.1175 32.5231C82.391 32.6403 82.7159 32.6989 83.0923 32.6989C83.4084 32.6989 83.6729 32.6598 83.886 32.5817C84.0991 32.5036 84.2607 32.3952 84.3707 32.2567C84.4808 32.1183 84.5376 31.9602 84.5412 31.7827C84.5376 31.6158 84.4826 31.4702 84.3761 31.3459C84.2731 31.218 84.1026 31.1044 83.8647 31.005C83.6268 30.902 83.3054 30.8061 82.9006 30.7173L81.8139 30.483C80.848 30.2734 80.0863 29.9237 79.5288 29.4336C78.9748 28.94 78.6996 28.267 78.7031 27.4148C78.6996 26.7223 78.8842 26.1168 79.2571 25.5984C79.6335 25.0763 80.1538 24.6697 80.8178 24.3786C81.4854 24.0874 82.2507 23.9418 83.1136 23.9418C83.9943 23.9418 84.756 24.0891 85.3988 24.3839C86.0415 24.6786 86.5369 25.0941 86.8849 25.6303C87.2365 26.163 87.4141 26.7862 87.4176 27.5H84.5838ZM94.0414 31.4205V26.8182H96.9817V35H94.1905V33.4446H94.1053C93.9277 33.9666 93.617 34.375 93.1731 34.6697C92.7292 34.9609 92.2019 35.1065 91.5911 35.1065C91.0194 35.1065 90.5186 34.9751 90.089 34.7124C89.6628 34.4496 89.3308 34.0874 89.0929 33.6257C88.8585 33.1641 88.7395 32.6349 88.736 32.0384V26.8182H91.6763V31.4205C91.6799 31.8253 91.7828 32.1431 91.9853 32.3739C92.1912 32.6048 92.4789 32.7202 92.8482 32.7202C93.0932 32.7202 93.3045 32.6687 93.4821 32.5657C93.6632 32.4592 93.8017 32.31 93.8975 32.1183C93.997 31.9229 94.0449 31.6903 94.0414 31.4205ZM98.4772 38.0682V26.8182H101.396V28.2457H101.46C101.567 27.9687 101.723 27.7148 101.929 27.484C102.135 27.2496 102.391 27.0632 102.696 26.9247C103.001 26.7827 103.356 26.7116 103.761 26.7116C104.301 26.7116 104.814 26.8555 105.301 27.1431C105.791 27.4308 106.188 27.8835 106.494 28.5014C106.803 29.1193 106.957 29.9219 106.957 30.9091C106.957 31.8537 106.81 32.6367 106.515 33.2582C106.224 33.8796 105.833 34.343 105.343 34.6484C104.857 34.9538 104.322 35.1065 103.74 35.1065C103.356 35.1065 103.014 35.0444 102.712 34.9201C102.414 34.7923 102.158 34.62 101.945 34.4034C101.735 34.1832 101.574 33.9347 101.46 33.6577H101.418V38.0682H98.4772ZM101.354 30.9091C101.354 31.3068 101.405 31.6513 101.508 31.9425C101.615 32.2301 101.764 32.4538 101.956 32.6136C102.151 32.7699 102.383 32.848 102.653 32.848C102.923 32.848 103.152 32.7717 103.34 32.619C103.532 32.4627 103.678 32.2408 103.777 31.9531C103.88 31.6619 103.932 31.3139 103.932 30.9091C103.932 30.5043 103.88 30.158 103.777 29.8704C103.678 29.5792 103.532 29.3572 103.34 29.2045C103.152 29.0483 102.923 28.9702 102.653 28.9702C102.383 28.9702 102.151 29.0483 101.956 29.2045C101.764 29.3572 101.615 29.5792 101.508 29.8704C101.405 30.158 101.354 30.5043 101.354 30.9091ZM112.11 35.1491C111.236 35.1491 110.483 34.9822 109.851 34.6484C109.222 34.3111 108.738 33.8281 108.397 33.1996C108.059 32.5675 107.891 31.8111 107.891 30.9304C107.891 30.0852 108.061 29.3466 108.402 28.7145C108.743 28.0824 109.224 27.5906 109.846 27.239C110.467 26.8874 111.2 26.7116 112.046 26.7116C112.664 26.7116 113.223 26.8075 113.724 26.9993C114.224 27.1911 114.652 27.4698 115.007 27.8356C115.362 28.1978 115.636 28.6381 115.828 29.1566C116.019 29.6751 116.115 30.2592 116.115 30.9091V31.5909H108.807V29.9716H113.409C113.406 29.7372 113.345 29.5312 113.228 29.3537C113.115 29.1726 112.96 29.0323 112.765 28.9329C112.573 28.8299 112.355 28.7784 112.11 28.7784C111.872 28.7784 111.653 28.8299 111.454 28.9329C111.256 29.0323 111.096 29.1708 110.975 29.3484C110.858 29.5259 110.796 29.7337 110.789 29.9716V31.7188C110.789 31.9815 110.844 32.2159 110.954 32.4219C111.064 32.6278 111.222 32.7894 111.428 32.9066C111.634 33.0238 111.882 33.0824 112.173 33.0824C112.376 33.0824 112.561 33.054 112.727 32.9972C112.898 32.9403 113.044 32.8587 113.164 32.7521C113.285 32.642 113.374 32.5107 113.431 32.358H116.115C116.023 32.9261 115.805 33.4197 115.46 33.8388C115.116 34.2543 114.659 34.5774 114.091 34.8082C113.526 35.0355 112.866 35.1491 112.11 35.1491ZM117.315 35V26.8182H120.17V28.3736H120.255C120.405 27.7983 120.641 27.3775 120.964 27.1112C121.291 26.8448 121.672 26.7116 122.109 26.7116C122.237 26.7116 122.363 26.7223 122.487 26.7436C122.615 26.7614 122.738 26.788 122.855 26.8235V29.3324C122.709 29.2827 122.53 29.2454 122.317 29.2205C122.104 29.1957 121.921 29.1832 121.768 29.1832C121.481 29.1832 121.221 29.2489 120.991 29.3803C120.763 29.5082 120.584 29.6893 120.453 29.9237C120.321 30.1545 120.255 30.4261 120.255 30.7386V35H117.315ZM129.056 26.8182V28.9489H123.581V26.8182H129.056ZM124.625 35V26.5838C124.625 25.9091 124.745 25.3498 124.987 24.9059C125.228 24.462 125.569 24.13 126.01 23.9098C126.45 23.6896 126.968 23.5795 127.565 23.5795C127.938 23.5795 128.3 23.608 128.652 23.6648C129.007 23.7216 129.27 23.7713 129.44 23.8139L129.014 25.9233C128.907 25.8913 128.783 25.8665 128.641 25.8487C128.499 25.8274 128.375 25.8168 128.268 25.8168C127.991 25.8168 127.805 25.8754 127.709 25.9925C127.613 26.1097 127.565 26.2642 127.565 26.456V35H124.625ZM130.191 35V26.8182H133.131V35H130.191ZM131.661 25.9659C131.263 25.9659 130.923 25.8345 130.638 25.5717C130.354 25.3089 130.212 24.9929 130.212 24.6236C130.212 24.2543 130.354 23.9382 130.638 23.6754C130.923 23.4126 131.263 23.2812 131.661 23.2812C132.063 23.2812 132.403 23.4126 132.684 23.6754C132.968 23.9382 133.11 24.2543 133.11 24.6236C133.11 24.9929 132.968 25.3089 132.684 25.5717C132.403 25.8345 132.063 25.9659 131.661 25.9659ZM142.108 29.4815H139.402C139.388 29.3146 139.329 29.1708 139.226 29.0501C139.123 28.9293 138.99 28.837 138.827 28.7731C138.667 28.7056 138.49 28.6719 138.294 28.6719C138.042 28.6719 137.826 28.718 137.644 28.8104C137.463 28.9027 137.375 29.0341 137.378 29.2045C137.375 29.3253 137.426 29.4371 137.533 29.5401C137.643 29.6431 137.854 29.723 138.166 29.7798L139.828 30.0781C140.666 30.2308 141.29 30.4883 141.698 30.8505C142.11 31.2092 142.318 31.6903 142.321 32.294C142.318 32.8764 142.144 33.3825 141.799 33.8121C141.458 34.2383 140.991 34.5685 140.398 34.8029C139.809 35.0337 139.136 35.1491 138.38 35.1491C137.13 35.1491 136.151 34.8935 135.445 34.3821C134.741 33.8707 134.349 33.196 134.267 32.358H137.186C137.225 32.6172 137.353 32.8178 137.57 32.9599C137.79 33.0984 138.067 33.1676 138.401 33.1676C138.671 33.1676 138.893 33.1214 139.067 33.0291C139.244 32.9368 139.335 32.8054 139.338 32.6349C139.335 32.4787 139.257 32.3544 139.104 32.2621C138.955 32.1697 138.72 32.0952 138.401 32.0384L136.952 31.7827C136.117 31.6371 135.492 31.3601 135.077 30.9517C134.661 30.5433 134.456 30.0178 134.459 29.375C134.456 28.8068 134.605 28.3256 134.907 27.9315C135.212 27.5337 135.647 27.2319 136.212 27.0259C136.78 26.8164 137.453 26.7116 138.23 26.7116C139.413 26.7116 140.345 26.9567 141.027 27.4467C141.712 27.9368 142.073 28.6151 142.108 29.4815ZM146.388 30.3977V35H143.448V24.0909H146.282V28.3736H146.367C146.552 27.8516 146.859 27.445 147.288 27.1538C147.718 26.859 148.235 26.7116 148.839 26.7116C149.417 26.7116 149.92 26.843 150.346 27.1058C150.776 27.3686 151.108 27.7308 151.342 28.1925C151.58 28.6541 151.697 29.1832 151.694 29.7798V35H148.753V30.3977C148.757 29.9929 148.656 29.6751 148.45 29.4442C148.247 29.2134 147.958 29.098 147.581 29.098C147.343 29.098 147.134 29.1513 146.953 29.2578C146.775 29.3608 146.637 29.5099 146.537 29.7053C146.441 29.897 146.392 30.1278 146.388 30.3977ZM157.066 35.1491C156.192 35.1491 155.439 34.9822 154.807 34.6484C154.179 34.3111 153.694 33.8281 153.353 33.1996C153.016 32.5675 152.847 31.8111 152.847 30.9304C152.847 30.0852 153.017 29.3466 153.358 28.7145C153.699 28.0824 154.18 27.5906 154.802 27.239C155.423 26.8874 156.157 26.7116 157.002 26.7116C157.62 26.7116 158.179 26.8075 158.68 26.9993C159.18 27.1911 159.608 27.4698 159.963 27.8356C160.318 28.1978 160.592 28.6381 160.784 29.1566C160.975 29.6751 161.071 30.2592 161.071 30.9091V31.5909H153.763V29.9716H158.365C158.362 29.7372 158.301 29.5312 158.184 29.3537C158.071 29.1726 157.916 29.0323 157.721 28.9329C157.529 28.8299 157.311 28.7784 157.066 28.7784C156.828 28.7784 156.609 28.8299 156.41 28.9329C156.212 29.0323 156.052 29.1708 155.931 29.3484C155.814 29.5259 155.752 29.7337 155.745 29.9716V31.7188C155.745 31.9815 155.8 32.2159 155.91 32.4219C156.02 32.6278 156.178 32.7894 156.384 32.9066C156.59 33.0238 156.838 33.0824 157.13 33.0824C157.332 33.0824 157.517 33.054 157.684 32.9972C157.854 32.9403 158 32.8587 158.12 32.7521C158.241 32.642 158.33 32.5107 158.387 32.358H161.071C160.979 32.9261 160.761 33.4197 160.416 33.8388C160.072 34.2543 159.615 34.5774 159.047 34.8082C158.483 35.0355 157.822 35.1491 157.066 35.1491ZM162.271 35V26.8182H165.126V28.3736H165.211C165.361 27.7983 165.597 27.3775 165.92 27.1112C166.247 26.8448 166.628 26.7116 167.065 26.7116C167.193 26.7116 167.319 26.7223 167.443 26.7436C167.571 26.7614 167.694 26.788 167.811 26.8235V29.3324C167.665 29.2827 167.486 29.2454 167.273 29.2205C167.06 29.1957 166.877 29.1832 166.724 29.1832C166.437 29.1832 166.177 29.2489 165.947 29.3803C165.719 29.5082 165.54 29.6893 165.409 29.9237C165.277 30.1545 165.211 30.4261 165.211 30.7386V35H162.271Z"></path>
<path fill="white" d="M80.5682 47.0795C80.1932 47.0795 79.8589 47.0152 79.5653 46.8864C79.2737 46.7576 79.0417 46.5786 78.8693 46.3494C78.6989 46.1184 78.6061 45.8504 78.5909 45.5455H79.3068C79.322 45.733 79.3864 45.8949 79.5 46.0312C79.6136 46.1657 79.7623 46.2699 79.946 46.3438C80.1297 46.4176 80.3333 46.4545 80.5568 46.4545C80.8068 46.4545 81.0284 46.411 81.2216 46.3239C81.4148 46.2367 81.5663 46.1155 81.6761 45.9602C81.786 45.8049 81.8409 45.625 81.8409 45.4205C81.8409 45.2064 81.7879 45.018 81.6818 44.8551C81.5758 44.6903 81.4205 44.5616 81.2159 44.4688C81.0114 44.3759 80.7614 44.3295 80.4659 44.3295H80V43.7045H80.4659C80.697 43.7045 80.8996 43.6629 81.0739 43.5795C81.25 43.4962 81.3873 43.3788 81.4858 43.2273C81.5862 43.0758 81.6364 42.8977 81.6364 42.6932C81.6364 42.4962 81.5928 42.3248 81.5057 42.179C81.4186 42.0331 81.2955 41.9195 81.1364 41.8381C80.9792 41.7566 80.7936 41.7159 80.5795 41.7159C80.3788 41.7159 80.1894 41.7528 80.0114 41.8267C79.8352 41.8987 79.6913 42.0038 79.5795 42.142C79.4678 42.2784 79.4072 42.4432 79.3977 42.6364H78.7159C78.7273 42.3314 78.8191 42.0644 78.9915 41.8352C79.1638 41.6042 79.3892 41.4242 79.6676 41.2955C79.9479 41.1667 80.2557 41.1023 80.5909 41.1023C80.9508 41.1023 81.2595 41.1752 81.517 41.321C81.7746 41.465 81.9725 41.6553 82.1108 41.892C82.2491 42.1288 82.3182 42.3845 82.3182 42.6591C82.3182 42.9867 82.232 43.2661 82.0597 43.4972C81.8892 43.7282 81.6572 43.8883 81.3636 43.9773V44.0227C81.7311 44.0833 82.018 44.2396 82.2244 44.4915C82.4309 44.7415 82.5341 45.0511 82.5341 45.4205C82.5341 45.7367 82.4479 46.0208 82.2756 46.2727C82.1051 46.5227 81.8722 46.7197 81.5767 46.8636C81.2813 47.0076 80.9451 47.0795 80.5682 47.0795ZM87.7869 47.0909C87.3665 47.0909 87.0038 46.9981 86.6989 46.8125C86.3958 46.625 86.1619 46.3636 85.9972 46.0284C85.8343 45.6913 85.7528 45.2992 85.7528 44.8523C85.7528 44.4053 85.8343 44.0114 85.9972 43.6705C86.1619 43.3277 86.3911 43.0606 86.6847 42.8693C86.9801 42.6761 87.3248 42.5795 87.7188 42.5795C87.946 42.5795 88.1705 42.6174 88.392 42.6932C88.6136 42.7689 88.8153 42.892 88.9972 43.0625C89.179 43.2311 89.3239 43.4545 89.4318 43.733C89.5398 44.0114 89.5938 44.3542 89.5938 44.7614V45.0455H86.2301V44.4659H88.9119C88.9119 44.2197 88.8627 44 88.7642 43.8068C88.6676 43.6136 88.5294 43.4612 88.3494 43.3494C88.1714 43.2377 87.9612 43.1818 87.7188 43.1818C87.4517 43.1818 87.2206 43.2481 87.0256 43.3807C86.8324 43.5114 86.6837 43.6818 86.5795 43.892C86.4754 44.1023 86.4233 44.3277 86.4233 44.5682V44.9545C86.4233 45.2841 86.4801 45.5634 86.5938 45.7926C86.7093 46.0199 86.8693 46.1932 87.0739 46.3125C87.2784 46.4299 87.5161 46.4886 87.7869 46.4886C87.9631 46.4886 88.1222 46.464 88.2642 46.4148C88.4081 46.3636 88.5322 46.2879 88.6364 46.1875C88.7405 46.0852 88.821 45.9583 88.8778 45.8068L89.5256 45.9886C89.4574 46.2083 89.3428 46.4015 89.1818 46.5682C89.0208 46.733 88.822 46.8617 88.5852 46.9545C88.3485 47.0455 88.0824 47.0909 87.7869 47.0909ZM91.2841 44.375V47H90.6136V42.6364H91.2614V43.3182H91.3182C91.4205 43.0966 91.5758 42.9186 91.7841 42.7841C91.9924 42.6477 92.2614 42.5795 92.5909 42.5795C92.8864 42.5795 93.1449 42.6402 93.3665 42.7614C93.5881 42.8807 93.7604 43.0625 93.8835 43.3068C94.0066 43.5492 94.0682 43.8561 94.0682 44.2273V47H93.3977V44.2727C93.3977 43.9299 93.3087 43.6629 93.1307 43.4716C92.9527 43.2784 92.7083 43.1818 92.3977 43.1818C92.1837 43.1818 91.9924 43.2282 91.8239 43.321C91.6572 43.4138 91.5256 43.5492 91.429 43.7273C91.3324 43.9053 91.2841 44.1212 91.2841 44.375ZM97.1229 47.0909C96.7024 47.0909 96.3397 46.9981 96.0348 46.8125C95.7318 46.625 95.4979 46.3636 95.3331 46.0284C95.1702 45.6913 95.0888 45.2992 95.0888 44.8523C95.0888 44.4053 95.1702 44.0114 95.3331 43.6705C95.4979 43.3277 95.727 43.0606 96.0206 42.8693C96.3161 42.6761 96.6607 42.5795 97.0547 42.5795C97.282 42.5795 97.5064 42.6174 97.728 42.6932C97.9496 42.7689 98.1513 42.892 98.3331 43.0625C98.5149 43.2311 98.6598 43.4545 98.7678 43.733C98.8757 44.0114 98.9297 44.3542 98.9297 44.7614V45.0455H95.5661V44.4659H98.2479C98.2479 44.2197 98.1986 44 98.1001 43.8068C98.0036 43.6136 97.8653 43.4612 97.6854 43.3494C97.5073 43.2377 97.2971 43.1818 97.0547 43.1818C96.7876 43.1818 96.5566 43.2481 96.3615 43.3807C96.1683 43.5114 96.0196 43.6818 95.9155 43.892C95.8113 44.1023 95.7592 44.3277 95.7592 44.5682V44.9545C95.7592 45.2841 95.8161 45.5634 95.9297 45.7926C96.0452 46.0199 96.2053 46.1932 96.4098 46.3125C96.6143 46.4299 96.852 46.4886 97.1229 46.4886C97.299 46.4886 97.4581 46.464 97.6001 46.4148C97.7441 46.3636 97.8681 46.2879 97.9723 46.1875C98.0765 46.0852 98.157 45.9583 98.2138 45.8068L98.8615 45.9886C98.7933 46.2083 98.6787 46.4015 98.5178 46.5682C98.3568 46.733 98.1579 46.8617 97.9212 46.9545C97.6844 47.0455 97.4183 47.0909 97.1229 47.0909ZM99.9496 47V42.6364H100.597V43.2955H100.643C100.722 43.0795 100.866 42.9044 101.075 42.7699C101.283 42.6354 101.518 42.5682 101.779 42.5682C101.828 42.5682 101.89 42.5691 101.964 42.571C102.038 42.5729 102.094 42.5758 102.131 42.5795V43.2614C102.109 43.2557 102.057 43.2472 101.975 43.2358C101.896 43.2225 101.811 43.2159 101.722 43.2159C101.51 43.2159 101.321 43.2604 101.154 43.3494C100.989 43.4366 100.859 43.5578 100.762 43.7131C100.667 43.8665 100.62 44.0417 100.62 44.2386V47H99.9496ZM104.555 48.7273C104.231 48.7273 103.952 48.6856 103.719 48.6023C103.487 48.5208 103.292 48.4129 103.137 48.2784C102.984 48.1458 102.862 48.0038 102.771 47.8523L103.305 47.4773C103.365 47.5568 103.442 47.6477 103.535 47.75C103.628 47.8542 103.754 47.9441 103.915 48.0199C104.078 48.0975 104.291 48.1364 104.555 48.1364C104.907 48.1364 105.198 48.0511 105.427 47.8807C105.656 47.7102 105.771 47.4432 105.771 47.0795V46.1932H105.714C105.665 46.2727 105.594 46.3712 105.504 46.4886C105.415 46.6042 105.286 46.7074 105.117 46.7983C104.951 46.8873 104.725 46.9318 104.441 46.9318C104.089 46.9318 103.772 46.8485 103.492 46.6818C103.214 46.5152 102.993 46.2727 102.83 45.9545C102.669 45.6364 102.589 45.25 102.589 44.7955C102.589 44.3485 102.667 43.9593 102.825 43.6278C102.982 43.2945 103.201 43.0369 103.481 42.8551C103.761 42.6714 104.085 42.5795 104.452 42.5795C104.737 42.5795 104.962 42.6269 105.129 42.7216C105.297 42.8144 105.426 42.9205 105.515 43.0398C105.606 43.1572 105.676 43.2538 105.725 43.3295H105.793V42.6364H106.441V47.125C106.441 47.5 106.356 47.8049 106.185 48.0398C106.017 48.2765 105.79 48.4498 105.504 48.5597C105.219 48.6714 104.903 48.7273 104.555 48.7273ZM104.532 46.3295C104.801 46.3295 105.028 46.268 105.214 46.1449C105.399 46.0218 105.54 45.8447 105.637 45.6136C105.734 45.3826 105.782 45.1061 105.782 44.7841C105.782 44.4697 105.735 44.1922 105.64 43.9517C105.545 43.7112 105.405 43.5227 105.219 43.3864C105.034 43.25 104.805 43.1818 104.532 43.1818C104.248 43.1818 104.011 43.2538 103.822 43.3977C103.634 43.5417 103.493 43.7348 103.398 43.9773C103.306 44.2197 103.259 44.4886 103.259 44.7841C103.259 45.0871 103.307 45.3551 103.401 45.5881C103.498 45.8191 103.64 46.0009 103.827 46.1335C104.017 46.2642 104.252 46.3295 104.532 46.3295ZM108.1 48.6364C107.987 48.6364 107.885 48.6269 107.796 48.608C107.707 48.5909 107.646 48.5739 107.612 48.5568L107.782 47.9659C107.945 48.0076 108.089 48.0227 108.214 48.0114C108.339 48 108.45 47.9441 108.546 47.8438C108.645 47.7453 108.735 47.5852 108.816 47.3636L108.941 47.0227L107.327 42.6364H108.055L109.259 46.1136H109.305L110.509 42.6364H111.237L109.384 47.6364C109.301 47.8617 109.198 48.0483 109.075 48.196C108.951 48.3456 108.808 48.4564 108.646 48.5284C108.485 48.6004 108.303 48.6364 108.1 48.6364ZM113.725 40.9091L111.85 47.875H111.237L113.112 40.9091H113.725ZM116.293 47.0909C115.884 47.0909 115.531 46.9943 115.236 46.8011C114.94 46.608 114.713 46.3419 114.554 46.0028C114.395 45.6638 114.315 45.2765 114.315 44.8409C114.315 44.3977 114.397 44.0066 114.56 43.6676C114.724 43.3267 114.954 43.0606 115.247 42.8693C115.543 42.6761 115.887 42.5795 116.281 42.5795C116.588 42.5795 116.865 42.6364 117.111 42.75C117.357 42.8636 117.559 43.0227 117.716 43.2273C117.873 43.4318 117.971 43.6705 118.009 43.9432H117.338C117.287 43.7443 117.173 43.5682 116.997 43.4148C116.823 43.2595 116.588 43.1818 116.293 43.1818C116.031 43.1818 115.802 43.25 115.605 43.3864C115.41 43.5208 115.258 43.7112 115.148 43.9574C115.04 44.2017 114.986 44.4886 114.986 44.8182C114.986 45.1553 115.039 45.4489 115.145 45.6989C115.253 45.9489 115.404 46.143 115.599 46.2812C115.796 46.4195 116.027 46.4886 116.293 46.4886C116.467 46.4886 116.625 46.4583 116.767 46.3977C116.909 46.3371 117.029 46.25 117.128 46.1364C117.226 46.0227 117.296 45.8864 117.338 45.7273H118.009C117.971 45.9848 117.877 46.2169 117.727 46.4233C117.58 46.6278 117.384 46.7907 117.139 46.9119C116.897 47.0312 116.615 47.0909 116.293 47.0909ZM119.659 41.1818V47H118.989V41.1818H119.659ZM120.887 47V42.6364H121.558V47H120.887ZM121.228 41.9091C121.097 41.9091 120.985 41.8646 120.89 41.7756C120.797 41.6866 120.751 41.5795 120.751 41.4545C120.751 41.3295 120.797 41.2225 120.89 41.1335C120.985 41.0445 121.097 41 121.228 41C121.359 41 121.47 41.0445 121.563 41.1335C121.658 41.2225 121.705 41.3295 121.705 41.4545C121.705 41.5795 121.658 41.6866 121.563 41.7756C121.47 41.8646 121.359 41.9091 121.228 41.9091ZM124.558 47.0909C124.149 47.0909 123.797 46.9943 123.501 46.8011C123.206 46.608 122.979 46.3419 122.82 46.0028C122.661 45.6638 122.581 45.2765 122.581 44.8409C122.581 44.3977 122.662 44.0066 122.825 43.6676C122.99 43.3267 123.219 43.0606 123.513 42.8693C123.808 42.6761 124.153 42.5795 124.547 42.5795C124.854 42.5795 125.13 42.6364 125.376 42.75C125.623 42.8636 125.824 43.0227 125.982 43.2273C126.139 43.4318 126.236 43.6705 126.274 43.9432H125.604C125.553 43.7443 125.439 43.5682 125.263 43.4148C125.089 43.2595 124.854 43.1818 124.558 43.1818C124.297 43.1818 124.068 43.25 123.871 43.3864C123.676 43.5208 123.523 43.7112 123.413 43.9574C123.305 44.2017 123.251 44.4886 123.251 44.8182C123.251 45.1553 123.304 45.4489 123.411 45.6989C123.518 45.9489 123.67 46.143 123.865 46.2812C124.062 46.4195 124.293 46.4886 124.558 46.4886C124.732 46.4886 124.891 46.4583 125.033 46.3977C125.175 46.3371 125.295 46.25 125.393 46.1364C125.492 46.0227 125.562 45.8864 125.604 45.7273H126.274C126.236 45.9848 126.143 46.2169 125.993 46.4233C125.845 46.6278 125.649 46.7907 125.405 46.9119C125.162 47.0312 124.88 47.0909 124.558 47.0909ZM127.879 45.4091L127.868 44.5795H128.004L129.913 42.6364H130.743L128.709 44.6932H128.652L127.879 45.4091ZM127.254 47V41.1818H127.925V47H127.254ZM130.027 47L128.322 44.8409L128.8 44.375L130.879 47H130.027Z"></path>
<g clip-path="url(#clip0_3139_2)">
<path fill="#CCD6DD" d="M21.1111 32.2223C20.7428 32.2223 20.3895 32.076 20.129 31.8155C19.8686 31.555 19.7222 31.2018 19.7222 30.8334V15.5556C19.7222 15.1873 19.8686 14.834 20.129 14.5735C20.3895 14.3131 20.7428 14.1667 21.1111 14.1667C21.4795 14.1667 21.8327 14.3131 22.0932 14.5735C22.3537 14.834 22.5 15.1873 22.5 15.5556V30.8334C22.5 31.2018 22.3537 31.555 22.0932 31.8155C21.8327 32.076 21.4795 32.2223 21.1111 32.2223Z"></path>
<path fill="#3B88C3" d="M12.7778 55.8333C12.7778 52.7278 18.3333 47.5 22.5 47.5V54.4444C21.1111 54.4444 16.9444 55.8333 15.5555 57.2222C14.1667 58.6111 12.7778 57.2222 12.7778 55.8333ZM32.2222 55.8333C32.2222 52.7278 26.6667 47.5 22.5 47.5V54.4444C23.8889 54.4444 28.0555 55.8333 29.4444 57.2222C30.8333 58.6111 32.2222 57.2222 32.2222 55.8333Z"></path>
<path fill="#3B88C3" d="M30.8333 29.4443C33.6111 29.4443 36.3889 30.8332 36.3889 32.2221C36.3889 36.3888 31.9903 48.2527 25.0458 49.6416C18.1014 51.0304 30.8333 29.4443 30.8333 29.4443ZM14.1667 37.7777C12.7778 39.1666 11.3889 41.9443 11.3889 44.7221C11.3889 47.4999 15.2083 41.886 16.9444 43.3332C19.3306 45.3221 14.1667 37.7777 14.1667 37.7777Z"></path>
<path fill="black" d="M17.7542 27.0139C19.8375 27.7084 21.3417 27.1875 22.8472 25.9722C24.3528 24.757 24.5833 29.5028 22.5 31.0653C20.4167 32.6278 16.7708 36.2736 16.8292 33.0334C16.8861 29.7917 17.7542 27.0139 17.7542 27.0139Z"></path>
<path fill="#55ACEE" d="M22.5319 25.2791C21.7347 26.1541 19.9542 28.5179 19.0861 31.411C17.8708 32.1054 17.9292 29.7332 18.1028 28.9804C18.4153 27.6263 18.8055 27.6235 18.5833 26.8679C18.2917 26.1027 17.4875 26.3624 17.0292 26.6471C14.65 28.0138 12.7778 30.5554 12.7778 34.9999C12.7778 42.6693 19.7222 53.0554 22.5 53.0554C25.2778 53.0554 32.2222 42.6693 32.2222 34.9999C32.2222 27.3485 26.6958 25.2888 22.5319 25.2791Z"></path>
<path fill="black" d="M25.9722 33.611C27.1228 33.611 28.0556 32.6783 28.0556 31.5277C28.0556 30.3771 27.1228 29.4443 25.9722 29.4443C24.8216 29.4443 23.8889 30.3771 23.8889 31.5277C23.8889 32.6783 24.8216 33.611 25.9722 33.611Z"></path>
<path fill="#226699" d="M22.4361 41.7043C20.3472 41.7043 18.5069 40.9571 16.8806 40.1084C16.5538 39.9379 16.3082 39.6445 16.1978 39.2929C16.0873 38.9413 16.1211 38.5602 16.2917 38.2334C16.4622 37.9067 16.7556 37.6611 17.1072 37.5507C17.4588 37.4402 17.8399 37.474 18.1667 37.6446C20.7931 39.0168 23.1528 39.5682 26.1319 37.7973C26.448 37.6258 26.8182 37.5835 27.1649 37.6792C27.5115 37.7749 27.8076 38.0012 27.9909 38.3105C28.1743 38.6199 28.2306 38.9882 28.1481 39.3382C28.0657 39.6882 27.8508 39.9927 27.5486 40.1876C25.6958 41.2876 23.9958 41.7043 22.4361 41.7043Z"></path>
<path fill="#CCD6DD" d="M26.0641 31.3946C25.7083 31.4899 25.3292 31.44 25.0102 31.2558C24.6912 31.0716 24.4584 30.7683 24.363 30.4125L20.4089 15.6553C20.3135 15.2995 20.3634 14.9204 20.5476 14.6014C20.7318 14.2824 21.0352 14.0496 21.391 13.9542C21.7468 13.8589 22.1259 13.9088 22.4449 14.093C22.7639 14.2772 22.9967 14.5805 23.092 14.9363L27.0462 29.6935C27.1415 30.0493 27.0916 30.4285 26.9074 30.7475C26.7232 31.0665 26.4199 31.2992 26.0641 31.3946Z"></path>
<path fill="#3B88C3" d="M24.1257 56.3577C23.3219 53.358 27.3351 46.8705 31.3598 45.7921L33.1571 52.4999C31.8156 52.8593 28.1504 55.2793 27.1683 56.9804C26.1862 58.6814 24.4851 57.6993 24.1257 56.3577ZM42.9076 51.3251C42.1038 48.3254 35.3845 44.7136 31.3598 45.7921L33.1571 52.4999C34.4987 52.1404 38.8829 52.4036 40.5839 53.3856C42.2849 54.3677 43.267 52.6667 42.9076 51.3251Z"></path>
<path fill="#3B88C3" d="M34.736 26.1949C37.4191 25.476 40.4617 26.0986 40.8212 27.4402C41.8996 31.4649 40.7215 44.063 34.3732 47.2019C28.0248 50.3408 34.736 26.1949 34.736 26.1949ZM20.7941 38.558C19.812 40.259 19.1894 43.3016 19.9083 45.9847C20.6273 48.6679 22.8636 42.2567 24.9151 43.2053C27.7347 44.5088 20.7941 38.558 20.7941 38.558Z"></path>
<path fill="black" d="M21.4735 27.2324C23.6656 27.3639 24.9837 26.4716 26.1234 24.908C27.2631 23.3445 28.7141 27.8689 27.1062 29.9174C25.4982 31.9659 22.9202 36.4311 22.1379 33.2861C21.3539 30.1402 21.4735 27.2324 21.4735 27.2324Z"></path>
<path fill="#55ACEE" d="M25.6394 24.3202C25.0958 25.3717 23.9878 28.1159 23.8981 31.135C22.9039 32.1203 22.3463 29.8138 22.3192 29.0418C22.2705 27.6529 22.6468 27.5492 22.2366 26.8769C21.7568 26.2132 21.0473 26.6722 20.6782 27.0658C18.7339 29.0017 17.5833 31.9413 18.7336 36.2343C20.7186 43.6424 30.1145 51.8773 32.7976 51.1584C35.4808 50.4394 39.5005 38.6099 37.5155 31.2017C35.5351 23.8111 29.664 23.2519 25.6394 24.3202Z"></path>
<path fill="black" d="M31.119 31.4777C32.2303 31.1799 32.8899 30.0375 32.5921 28.9261C32.2943 27.8147 31.1519 27.1552 30.0405 27.453C28.9292 27.7508 28.2696 28.8931 28.5674 30.0045C28.8652 31.1159 30.0076 31.7755 31.119 31.4777Z"></path>
<path fill="#226699" d="M29.798 40.2104C27.7803 40.7511 25.8094 40.5056 24.0187 40.1069C23.659 40.0267 23.3458 39.8069 23.1482 39.4958C22.9505 39.1848 22.8845 38.8079 22.9646 38.4482C23.0448 38.0884 23.2646 37.7753 23.5757 37.5776C23.8867 37.3799 24.2636 37.3139 24.6233 37.3941C27.5154 38.0398 29.9374 37.9616 32.3567 35.4801C32.6177 35.2326 32.9643 35.0959 33.3239 35.0986C33.6835 35.1013 34.028 35.2433 34.2852 35.4946C34.5424 35.746 34.6921 36.0872 34.703 36.4466C34.714 36.8061 34.5852 37.1557 34.3438 37.4223C32.8388 38.9643 31.3046 39.8068 29.798 40.2104Z"></path>
<path fill="#CCD6DD" d="M29.4475 29.2754C29.1285 29.4596 28.7494 29.5095 28.3936 29.4141C28.0378 29.3188 27.7344 29.086 27.5502 28.767L19.9113 15.5361C19.7272 15.2171 19.6772 14.838 19.7726 14.4821C19.8679 14.1263 20.1007 13.823 20.4197 13.6388C20.7387 13.4546 21.1178 13.4047 21.4736 13.5001C21.8294 13.5954 22.1328 13.8282 22.317 14.1472L29.9558 27.3781C30.14 27.6971 30.1899 28.0762 30.0946 28.432C29.9993 28.7878 29.7665 29.0912 29.4475 29.2754Z"></path>
<path fill="#3B88C3" d="M34.0361 53.89C32.4833 51.2005 34.6807 43.8953 38.2891 41.812L41.7613 47.8261C40.5585 48.5205 37.6445 51.8066 37.1362 53.7039C36.6278 55.6012 34.7305 55.0928 34.0361 53.89ZM50.8755 44.1678C49.3227 41.4783 41.8976 39.7287 38.2891 41.812L41.7613 47.8261C42.9642 47.1316 47.267 46.2511 49.1643 46.7595C51.0616 47.2678 51.5699 45.3706 50.8755 44.1678Z"></path>
<path fill="#3B88C3" d="M36.4782 22.0085C38.8838 20.6196 41.9839 20.4335 42.6783 21.6363C44.7616 25.2448 46.8843 37.7185 41.5647 42.3935C36.245 47.0686 36.4782 22.0085 36.4782 22.0085ZM26.2111 37.5587C25.7027 39.456 25.8888 42.556 27.2777 44.9617C28.6666 47.3673 29.1674 40.5958 31.3945 40.9811C34.4554 41.5104 26.2111 37.5587 26.2111 37.5587Z"></path>
<path fill="black" d="M23.9361 26.4432C26.0875 26.003 27.1298 24.7998 27.826 22.9946C28.5222 21.1894 31.0948 25.1841 30.0718 27.5789C29.0488 29.9738 27.7144 34.9541 26.1447 32.1187C24.5732 29.2829 23.9361 26.4432 23.9361 26.4432Z"></path>
<path fill="#55ACEE" d="M27.2063 22.5521C26.9534 23.7085 26.5933 26.646 27.2881 29.5855C26.5829 30.7945 25.4473 28.7109 25.2212 27.9722C24.8148 26.6432 25.1514 26.4457 24.5812 25.9024C23.9459 25.3855 23.3794 26.0125 23.1248 26.4883C21.7477 28.8614 21.3972 31.9987 23.6194 35.8477C27.4541 42.4896 38.6612 48.012 41.0668 46.6231C43.4725 45.2343 44.2935 32.7674 40.4588 26.1255C36.6331 19.4992 30.8172 20.4786 27.2063 22.5521Z"></path>
<path fill="black" d="M34.3517 28.0475C35.3481 27.4722 35.6895 26.198 35.1142 25.2016C34.5389 24.2052 33.2648 23.8637 32.2683 24.439C31.2719 25.0143 30.9305 26.2885 31.5058 27.2849C32.0811 28.2814 33.3552 28.6228 34.3517 28.0475Z"></path>
<path fill="#226699" d="M35.3359 36.8246C33.5269 37.869 31.5596 38.142 29.7268 38.2203C29.3585 38.236 28.9992 38.1047 28.7277 37.8554C28.4562 37.6061 28.2949 37.2592 28.2793 36.891C28.2636 36.5227 28.3949 36.1634 28.6442 35.8919C28.8935 35.6204 29.2404 35.4591 29.6086 35.4435C32.5693 35.3187 34.8885 34.6163 36.5832 31.5931C36.7711 31.2866 37.0706 31.0648 37.4186 30.9744C37.7667 30.8839 38.1362 30.9318 38.4497 31.1081C38.7631 31.2843 38.9961 31.5751 39.0997 31.9195C39.2033 32.2639 39.1694 32.6349 39.0052 32.9549C37.9506 34.8339 36.6867 36.0447 35.3359 36.8246Z"></path>
<path fill="#662113" d="M51.4361 58.9584C50.75 58.6153 49.9889 57.6278 50.4236 56.6015C52.2764 52.232 56.3653 33.1292 52.6514 22.2112C51.9556 20.1667 49.7097 17.1292 46.9847 15.457C38.1833 10.0584 25.032 13.0153 23.1945 13.9348C22.507 14.2792 20.3556 14.9681 20.0111 14.282C19.6681 13.5959 20.8292 12.8889 21.5153 12.5459C23.9542 11.3278 37.1597 7.15978 48.8306 13.6445C50.9139 14.8015 53.8167 16.9445 55.3625 21.0098C59.8861 32.9084 56.8167 53.532 54.2695 58.2626C53.4611 59.7681 51.6361 59.057 51.4361 58.9584Z"></path>
<path fill="#99AAB5" d="M48.8889 50.2779C51.9571 50.2779 54.4444 47.7906 54.4444 44.7223C54.4444 41.6541 51.9571 39.1667 48.8889 39.1667C45.8206 39.1667 43.3333 41.6541 43.3333 44.7223C43.3333 47.7906 45.8206 50.2779 48.8889 50.2779Z"></path>
<path fill="#66757F" d="M48.8889 47.4999C50.423 47.4999 51.6667 46.2562 51.6667 44.7221C51.6667 43.188 50.423 41.9443 48.8889 41.9443C47.3548 41.9443 46.1111 43.188 46.1111 44.7221C46.1111 46.2562 47.3548 47.4999 48.8889 47.4999Z"></path>
</g>
<defs>
<clipPath id="clip0_3139_2">
<rect transform="translate(10 10)" fill="white" height="50" width="50"></rect>
</clipPath>
</defs>
</svg>
