<svg xmlns="http://www.w3.org/2000/svg" fill="none" viewBox="0 0 240 70" height="70" width="240">
<path fill="black" d="M78.7031 35V24.0909H83.4119C84.2216 24.0909 84.93 24.2383 85.5373 24.533C86.1445 24.8278 86.6168 25.2521 86.9542 25.8061C87.2915 26.3601 87.4602 27.0241 87.4602 27.7983C87.4602 28.5795 87.2862 29.2383 86.9382 29.7745C86.5938 30.3107 86.109 30.7156 85.484 30.989C84.8626 31.2624 84.1364 31.3991 83.3054 31.3991H80.4929V29.098H82.7088C83.0568 29.098 83.3533 29.0554 83.5984 28.9702C83.8469 28.8814 84.0369 28.7411 84.1683 28.5494C84.3033 28.3576 84.3707 28.1072 84.3707 27.7983C84.3707 27.4858 84.3033 27.2319 84.1683 27.0366C84.0369 26.8377 83.8469 26.6921 83.5984 26.5998C83.3533 26.5039 83.0568 26.456 82.7088 26.456H81.6648V35H78.7031ZM85.0952 29.9929L87.8224 35H84.6051L81.9418 29.9929H85.0952ZM92.5312 35.1491C91.6435 35.1491 90.8835 34.9734 90.2514 34.6218C89.6193 34.2667 89.1346 33.7731 88.7972 33.141C88.4599 32.5053 88.2912 31.7685 88.2912 30.9304C88.2912 30.0923 88.4599 29.3572 88.7972 28.7251C89.1346 28.0895 89.6193 27.5959 90.2514 27.2443C90.8835 26.8892 91.6435 26.7116 92.5312 26.7116C93.419 26.7116 94.179 26.8892 94.8111 27.2443C95.4432 27.5959 95.9279 28.0895 96.2653 28.7251C96.6026 29.3572 96.7713 30.0923 96.7713 30.9304C96.7713 31.7685 96.6026 32.5053 96.2653 33.141C95.9279 33.7731 95.4432 34.2667 94.8111 34.6218C94.179 34.9734 93.419 35.1491 92.5312 35.1491ZM92.5526 32.9759C92.8011 32.9759 93.016 32.8924 93.1971 32.7255C93.3782 32.5586 93.5185 32.3207 93.6179 32.0117C93.7173 31.7028 93.767 31.3352 93.767 30.9091C93.767 30.4794 93.7173 30.1119 93.6179 29.8065C93.5185 29.4975 93.3782 29.2596 93.1971 29.0927C93.016 28.9258 92.8011 28.8423 92.5526 28.8423C92.2898 28.8423 92.0643 28.9258 91.8761 29.0927C91.6879 29.2596 91.544 29.4975 91.4446 29.8065C91.3452 30.1119 91.2955 30.4794 91.2955 30.9091C91.2955 31.3352 91.3452 31.7028 91.4446 32.0117C91.544 32.3207 91.6879 32.5586 91.8761 32.7255C92.0643 32.8924 92.2898 32.9759 92.5526 32.9759ZM101.906 35.1491C101.018 35.1491 100.259 34.9734 99.6264 34.6218C98.9943 34.2667 98.5096 33.7731 98.1722 33.141C97.8349 32.5053 97.6662 31.7685 97.6662 30.9304C97.6662 30.0923 97.8349 29.3572 98.1722 28.7251C98.5096 28.0895 98.9943 27.5959 99.6264 27.2443C100.259 26.8892 101.018 26.7116 101.906 26.7116C102.709 26.7116 103.403 26.8572 103.989 27.1484C104.578 27.4361 105.035 27.8445 105.358 28.3736C105.681 28.8991 105.844 29.517 105.848 30.2273H103.121C103.082 29.7976 102.957 29.4709 102.748 29.2472C102.542 29.0199 102.276 28.9062 101.949 28.9062C101.693 28.9062 101.469 28.9808 101.278 29.13C101.086 29.2756 100.937 29.4975 100.83 29.7958C100.724 30.0906 100.67 30.4616 100.67 30.9091C100.67 31.3565 100.724 31.7294 100.83 32.0277C100.937 32.3224 101.086 32.5444 101.278 32.6935C101.469 32.8391 101.693 32.9119 101.949 32.9119C102.165 32.9119 102.357 32.8622 102.524 32.7628C102.691 32.6598 102.826 32.5107 102.929 32.3153C103.036 32.1165 103.099 31.875 103.121 31.5909H105.848C105.837 32.3118 105.672 32.9403 105.353 33.4766C105.033 34.0092 104.58 34.4212 103.994 34.7124C103.412 35.0036 102.716 35.1491 101.906 35.1491ZM109.703 33.0611L109.725 29.5668H110.108L112.09 26.8182H115.392L112.068 31.1009H111.237L109.703 33.0611ZM107.061 35V24.0909H110.002V35H107.061ZM112.111 35L110.236 31.7614L112.153 29.6733L115.477 35H112.111ZM116.158 35V26.8182H119.098V35H116.158ZM117.628 25.9659C117.23 25.9659 116.889 25.8345 116.605 25.5717C116.321 25.3089 116.179 24.9929 116.179 24.6236C116.179 24.2543 116.321 23.9382 116.605 23.6754C116.889 23.4126 117.23 23.2812 117.628 23.2812C118.029 23.2812 118.37 23.4126 118.651 23.6754C118.935 23.9382 119.077 24.2543 119.077 24.6236C119.077 24.9929 118.935 25.3089 118.651 25.5717C118.37 25.8345 118.029 25.9659 117.628 25.9659ZM123.537 30.3977V35H120.596V26.8182H123.388V28.3736H123.473C123.65 27.8551 123.963 27.4485 124.41 27.1538C124.861 26.859 125.387 26.7116 125.987 26.7116C126.566 26.7116 127.068 26.8448 127.494 27.1112C127.924 27.3739 128.256 27.7362 128.491 28.1978C128.728 28.6594 128.846 29.1868 128.842 29.7798V35H125.902V30.3977C125.905 29.9929 125.802 29.6751 125.593 29.4442C125.387 29.2134 125.099 29.098 124.73 29.098C124.488 29.098 124.277 29.1513 124.096 29.2578C123.918 29.3608 123.782 29.5099 123.686 29.7053C123.59 29.897 123.54 30.1278 123.537 30.3977ZM132.723 24.0909V25.3693C132.723 25.7173 132.652 26.0653 132.509 26.4134C132.371 26.7578 132.193 27.0792 131.977 27.3775C131.764 27.6722 131.544 27.919 131.316 28.1179L130.102 27.5C130.251 27.2443 130.384 26.9478 130.501 26.6104C130.619 26.2731 130.677 25.8594 130.677 25.3693V24.0909H132.723ZM142.972 27.5C142.944 27.1449 142.811 26.8679 142.573 26.669C142.339 26.4702 141.982 26.3707 141.502 26.3707C141.197 26.3707 140.947 26.408 140.751 26.4826C140.559 26.5536 140.417 26.6513 140.325 26.7756C140.233 26.8999 140.185 27.0419 140.181 27.2017C140.174 27.3331 140.197 27.4521 140.251 27.5586C140.307 27.6616 140.396 27.7557 140.517 27.8409C140.638 27.9226 140.792 27.9972 140.98 28.0646C141.169 28.1321 141.392 28.1925 141.651 28.2457L142.546 28.4375C143.15 28.5653 143.667 28.734 144.096 28.9435C144.526 29.1531 144.878 29.3999 145.151 29.6839C145.425 29.9645 145.625 30.2805 145.753 30.6321C145.884 30.9837 145.952 31.3672 145.955 31.7827C145.952 32.5 145.773 33.1072 145.417 33.6044C145.062 34.1016 144.555 34.4798 143.894 34.739C143.237 34.9982 142.447 35.1278 141.524 35.1278C140.575 35.1278 139.748 34.9876 139.041 34.707C138.338 34.4265 137.791 33.995 137.401 33.4126C137.014 32.8267 136.818 32.0774 136.815 31.1648H139.627C139.645 31.4986 139.729 31.7791 139.878 32.0064C140.027 32.2337 140.236 32.4059 140.506 32.5231C140.78 32.6403 141.105 32.6989 141.481 32.6989C141.797 32.6989 142.062 32.6598 142.275 32.5817C142.488 32.5036 142.649 32.3952 142.759 32.2567C142.869 32.1183 142.926 31.9602 142.93 31.7827C142.926 31.6158 142.871 31.4702 142.765 31.3459C142.662 31.218 142.491 31.1044 142.253 31.005C142.015 30.902 141.694 30.8061 141.289 30.7173L140.203 30.483C139.237 30.2734 138.475 29.9237 137.917 29.4336C137.363 28.94 137.088 28.267 137.092 27.4148C137.088 26.7223 137.273 26.1168 137.646 25.5984C138.022 25.0763 138.542 24.6697 139.206 24.3786C139.874 24.0874 140.639 23.9418 141.502 23.9418C142.383 23.9418 143.145 24.0891 143.787 24.3839C144.43 24.6786 144.926 25.0941 145.274 25.6303C145.625 26.163 145.803 26.7862 145.806 27.5H142.972ZM152.004 26.8182V28.9489H146.613V26.8182H152.004ZM147.657 24.858H150.598V32.3686C150.598 32.4822 150.617 32.5781 150.656 32.6562C150.695 32.7308 150.756 32.7876 150.837 32.8267C150.919 32.8622 151.024 32.88 151.152 32.88C151.24 32.88 151.343 32.8693 151.461 32.848C151.581 32.8267 151.67 32.8089 151.727 32.7947L152.153 34.8615C152.022 34.9006 151.833 34.9485 151.588 35.0053C151.347 35.0621 151.059 35.0994 150.725 35.1172C150.051 35.1527 149.484 35.0835 149.026 34.9094C148.568 34.7319 148.224 34.4531 147.993 34.0732C147.762 33.6932 147.65 33.2173 147.657 32.6456V24.858ZM157.036 35.1491C156.163 35.1491 155.41 34.9822 154.778 34.6484C154.149 34.3111 153.665 33.8281 153.324 33.1996C152.986 32.5675 152.818 31.8111 152.818 30.9304C152.818 30.0852 152.988 29.3466 153.329 28.7145C153.67 28.0824 154.151 27.5906 154.772 27.239C155.394 26.8874 156.127 26.7116 156.972 26.7116C157.59 26.7116 158.15 26.8075 158.65 26.9993C159.151 27.1911 159.579 27.4698 159.934 27.8356C160.289 28.1978 160.563 28.6381 160.754 29.1566C160.946 29.6751 161.042 30.2592 161.042 30.9091V31.5909H153.734V29.9716H158.336C158.332 29.7372 158.272 29.5312 158.155 29.3537C158.041 29.1726 157.887 29.0323 157.691 28.9329C157.5 28.8299 157.281 28.7784 157.036 28.7784C156.798 28.7784 156.58 28.8299 156.381 28.9329C156.182 29.0323 156.022 29.1708 155.902 29.3484C155.785 29.5259 155.722 29.7337 155.715 29.9716V31.7188C155.715 31.9815 155.77 32.2159 155.88 32.4219C155.991 32.6278 156.149 32.7894 156.354 32.9066C156.56 33.0238 156.809 33.0824 157.1 33.0824C157.303 33.0824 157.487 33.054 157.654 32.9972C157.825 32.9403 157.97 32.8587 158.091 32.7521C158.212 32.642 158.301 32.5107 158.357 32.358H161.042C160.95 32.9261 160.731 33.4197 160.387 33.8388C160.042 34.2543 159.586 34.5774 159.018 34.8082C158.453 35.0355 157.793 35.1491 157.036 35.1491ZM164.522 35.1278C164 35.1278 163.538 35.0426 163.137 34.8722C162.739 34.6982 162.426 34.4354 162.199 34.0838C161.972 33.7322 161.858 33.2848 161.858 32.7415C161.858 32.294 161.935 31.9123 162.087 31.5962C162.24 31.2766 162.453 31.0156 162.727 30.8132C163 30.6108 163.318 30.4563 163.68 30.3498C164.046 30.2433 164.44 30.174 164.863 30.142C165.321 30.1065 165.688 30.0639 165.965 30.0142C166.246 29.9609 166.448 29.8881 166.572 29.7958C166.697 29.6999 166.759 29.5739 166.759 29.4176V29.3963C166.759 29.1832 166.677 29.0199 166.514 28.9062C166.35 28.7926 166.141 28.7358 165.885 28.7358C165.605 28.7358 165.376 28.7979 165.198 28.9222C165.024 29.043 164.919 29.2294 164.884 29.4815H162.178C162.213 28.9844 162.371 28.5263 162.652 28.1072C162.936 27.6847 163.35 27.3473 163.893 27.0952C164.436 26.8395 165.115 26.7116 165.928 26.7116C166.514 26.7116 167.039 26.7809 167.505 26.9194C167.97 27.0543 168.366 27.2443 168.692 27.4893C169.019 27.7308 169.268 28.0149 169.438 28.3416C169.612 28.6648 169.699 29.0163 169.699 29.3963V35H166.951V33.8494H166.887C166.723 34.1548 166.525 34.4016 166.29 34.5898C166.059 34.7781 165.795 34.9148 165.496 35C165.202 35.0852 164.877 35.1278 164.522 35.1278ZM165.48 33.2741C165.704 33.2741 165.914 33.228 166.109 33.1357C166.308 33.0433 166.469 32.9102 166.594 32.7362C166.718 32.5621 166.78 32.3509 166.78 32.1023V31.4205C166.702 31.4524 166.619 31.4826 166.53 31.511C166.445 31.5394 166.352 31.5661 166.253 31.5909C166.157 31.6158 166.054 31.6388 165.944 31.6602C165.837 31.6815 165.725 31.701 165.608 31.7188C165.381 31.7543 165.195 31.8129 165.049 31.8945C164.907 31.9727 164.8 32.0703 164.729 32.1875C164.662 32.3011 164.628 32.429 164.628 32.571C164.628 32.7983 164.708 32.9723 164.868 33.093C165.028 33.2138 165.232 33.2741 165.48 33.2741ZM174.066 35.1065C173.483 35.1065 172.947 34.9538 172.457 34.6484C171.971 34.343 171.58 33.8796 171.285 33.2582C170.994 32.6367 170.848 31.8537 170.848 30.9091C170.848 29.9219 171.001 29.1193 171.307 28.5014C171.616 27.8835 172.013 27.4308 172.5 27.1431C172.99 26.8555 173.505 26.7116 174.044 26.7116C174.449 26.7116 174.804 26.7827 175.11 26.9247C175.415 27.0632 175.671 27.2496 175.877 27.484C176.083 27.7148 176.239 27.9687 176.346 28.2457H176.388V24.0909H179.329V35H176.41V33.6577H176.346C176.232 33.9347 176.069 34.1832 175.856 34.4034C175.646 34.62 175.39 34.7923 175.089 34.9201C174.79 35.0444 174.449 35.1065 174.066 35.1065ZM175.152 32.848C175.422 32.848 175.653 32.7699 175.845 32.6136C176.04 32.4538 176.189 32.2301 176.292 31.9425C176.399 31.6513 176.452 31.3068 176.452 30.9091C176.452 30.5043 176.399 30.158 176.292 29.8704C176.189 29.5792 176.04 29.3572 175.845 29.2045C175.653 29.0483 175.422 28.9702 175.152 28.9702C174.883 28.9702 174.652 29.0483 174.46 29.2045C174.272 29.3572 174.126 29.5792 174.023 29.8704C173.924 30.158 173.874 30.5043 173.874 30.9091C173.874 31.3139 173.924 31.6619 174.023 31.9531C174.126 32.2408 174.272 32.4627 174.46 32.619C174.652 32.7717 174.883 32.848 175.152 32.848ZM182.562 38.0682C182.225 38.0682 181.903 38.0415 181.598 37.9883C181.292 37.9386 181.024 37.8693 180.793 37.7805L181.433 35.6925C181.674 35.7777 181.894 35.8327 182.093 35.8576C182.296 35.8825 182.468 35.8683 182.61 35.815C182.755 35.7617 182.86 35.6605 182.924 35.5114L182.988 35.3622L180.112 26.8182H183.18L184.501 32.4858H184.586L185.928 26.8182H189.018L186.035 35.6818C185.886 36.1328 185.669 36.5376 185.385 36.8963C185.104 37.2585 184.735 37.5444 184.277 37.7539C183.819 37.9634 183.247 38.0682 182.562 38.0682Z"></path>
<path fill="black" d="M78.7045 47V41.1818H80.7386C81.1439 41.1818 81.4782 41.2519 81.7415 41.392C82.0047 41.5303 82.2008 41.7169 82.3295 41.9517C82.4583 42.1847 82.5227 42.4432 82.5227 42.7273C82.5227 42.9773 82.4782 43.1837 82.3892 43.3466C82.3021 43.5095 82.1866 43.6383 82.0426 43.733C81.9006 43.8277 81.7462 43.8977 81.5795 43.9432V44C81.7576 44.0114 81.9366 44.0739 82.1165 44.1875C82.2964 44.3011 82.447 44.464 82.5682 44.6761C82.6894 44.8883 82.75 45.1477 82.75 45.4545C82.75 45.7462 82.6837 46.0085 82.5511 46.2415C82.4186 46.4744 82.2093 46.6591 81.9233 46.7955C81.6373 46.9318 81.2652 47 80.8068 47H78.7045ZM79.4091 46.375H80.8068C81.267 46.375 81.5938 46.286 81.7869 46.108C81.982 45.928 82.0795 45.7102 82.0795 45.4545C82.0795 45.2576 82.0294 45.0758 81.929 44.9091C81.8286 44.7405 81.6856 44.6061 81.5 44.5057C81.3144 44.4034 81.0947 44.3523 80.8409 44.3523H79.4091V46.375ZM79.4091 43.7386H80.7159C80.928 43.7386 81.1193 43.697 81.2898 43.6136C81.4621 43.5303 81.5985 43.4129 81.6989 43.2614C81.8011 43.1098 81.8523 42.9318 81.8523 42.7273C81.8523 42.4716 81.7633 42.2547 81.5852 42.0767C81.4072 41.8968 81.125 41.8068 80.7386 41.8068H79.4091V43.7386ZM85.1009 47.1023C84.8243 47.1023 84.5734 47.0502 84.348 46.946C84.1226 46.84 83.9437 46.6875 83.8111 46.4886C83.6785 46.2879 83.6122 46.0455 83.6122 45.7614C83.6122 45.5114 83.6615 45.3087 83.7599 45.1534C83.8584 44.9962 83.9901 44.8731 84.1548 44.7841C84.3196 44.6951 84.5014 44.6288 84.7003 44.5852C84.901 44.5398 85.1027 44.5038 85.3054 44.4773C85.5705 44.4432 85.7855 44.4176 85.9503 44.4006C86.117 44.3816 86.2382 44.3504 86.3139 44.3068C86.3916 44.2633 86.4304 44.1875 86.4304 44.0795V44.0568C86.4304 43.7765 86.3537 43.5587 86.2003 43.4034C86.0488 43.2481 85.8187 43.1705 85.5099 43.1705C85.1899 43.1705 84.9389 43.2405 84.7571 43.3807C84.5753 43.5208 84.4474 43.6705 84.3736 43.8295L83.7372 43.6023C83.8509 43.3371 84.0024 43.1307 84.1918 42.983C84.383 42.8333 84.5914 42.7292 84.8168 42.6705C85.044 42.6098 85.2675 42.5795 85.4872 42.5795C85.6274 42.5795 85.7884 42.5966 85.9702 42.6307C86.1539 42.6629 86.331 42.7301 86.5014 42.8324C86.6738 42.9347 86.8168 43.089 86.9304 43.2955C87.044 43.5019 87.1009 43.7784 87.1009 44.125V47H86.4304V46.4091H86.3963C86.3509 46.5038 86.2751 46.6051 86.169 46.7131C86.063 46.821 85.9219 46.9129 85.7457 46.9886C85.5696 47.0644 85.3546 47.1023 85.1009 47.1023ZM85.2031 46.5C85.4683 46.5 85.6918 46.4479 85.8736 46.3438C86.0573 46.2396 86.1955 46.1051 86.2884 45.9403C86.383 45.7756 86.4304 45.6023 86.4304 45.4205V44.8068C86.402 44.8409 86.3395 44.8722 86.2429 44.9006C86.1482 44.9271 86.0384 44.9508 85.9134 44.9716C85.7902 44.9905 85.67 45.0076 85.5526 45.0227C85.437 45.036 85.3433 45.0473 85.2713 45.0568C85.0971 45.0795 84.9342 45.1165 84.7827 45.1676C84.633 45.2169 84.5118 45.2917 84.419 45.392C84.3281 45.4905 84.2827 45.625 84.2827 45.7955C84.2827 46.0284 84.3688 46.2045 84.5412 46.3239C84.7154 46.4413 84.9361 46.5 85.2031 46.5ZM88.6001 48.6364C88.4865 48.6364 88.3852 48.6269 88.2962 48.608C88.2071 48.5909 88.1456 48.5739 88.1115 48.5568L88.282 47.9659C88.4448 48.0076 88.5888 48.0227 88.7138 48.0114C88.8388 48 88.9496 47.9441 89.0462 47.8438C89.1446 47.7453 89.2346 47.5852 89.3161 47.3636L89.4411 47.0227L87.8274 42.6364H88.5547L89.7592 46.1136H89.8047L91.0092 42.6364H91.7365L89.8842 47.6364C89.8009 47.8617 89.6977 48.0483 89.5746 48.196C89.4515 48.3456 89.3085 48.4564 89.1456 48.5284C88.9846 48.6004 88.8028 48.6364 88.6001 48.6364ZM94.6442 41.8068V41.1818H99.0078V41.8068H97.1783V47H96.4737V41.8068H94.6442ZM99.5511 47V42.6364H100.199V43.2955H100.244C100.324 43.0795 100.468 42.9044 100.676 42.7699C100.884 42.6354 101.119 42.5682 101.381 42.5682C101.43 42.5682 101.491 42.5691 101.565 42.571C101.639 42.5729 101.695 42.5758 101.733 42.5795V43.2614C101.71 43.2557 101.658 43.2472 101.577 43.2358C101.497 43.2225 101.413 43.2159 101.324 43.2159C101.112 43.2159 100.922 43.2604 100.756 43.3494C100.591 43.4366 100.46 43.5578 100.364 43.7131C100.269 43.8665 100.222 44.0417 100.222 44.2386V47H99.5511ZM104.224 47.0909C103.804 47.0909 103.441 46.9981 103.136 46.8125C102.833 46.625 102.599 46.3636 102.435 46.0284C102.272 45.6913 102.19 45.2992 102.19 44.8523C102.19 44.4053 102.272 44.0114 102.435 43.6705C102.599 43.3277 102.829 43.0606 103.122 42.8693C103.418 42.6761 103.762 42.5795 104.156 42.5795C104.384 42.5795 104.608 42.6174 104.83 42.6932C105.051 42.7689 105.253 42.892 105.435 43.0625C105.616 43.2311 105.761 43.4545 105.869 43.733C105.977 44.0114 106.031 44.3542 106.031 44.7614V45.0455H102.668V44.4659H105.349C105.349 44.2197 105.3 44 105.202 43.8068C105.105 43.6136 104.967 43.4612 104.787 43.3494C104.609 43.2377 104.399 43.1818 104.156 43.1818C103.889 43.1818 103.658 43.2481 103.463 43.3807C103.27 43.5114 103.121 43.6818 103.017 43.892C102.913 44.1023 102.861 44.3277 102.861 44.5682V44.9545C102.861 45.2841 102.918 45.5634 103.031 45.7926C103.147 46.0199 103.307 46.1932 103.511 46.3125C103.716 46.4299 103.954 46.4886 104.224 46.4886C104.401 46.4886 104.56 46.464 104.702 46.4148C104.846 46.3636 104.97 46.2879 105.074 46.1875C105.178 46.0852 105.259 45.9583 105.315 45.8068L105.963 45.9886C105.895 46.2083 105.78 46.4015 105.619 46.5682C105.458 46.733 105.259 46.8617 105.023 46.9545C104.786 47.0455 104.52 47.0909 104.224 47.0909ZM107.051 47V42.6364H107.699V43.3182H107.756C107.847 43.0852 107.993 42.9044 108.196 42.7756C108.399 42.6449 108.642 42.5795 108.926 42.5795C109.214 42.5795 109.454 42.6449 109.645 42.7756C109.838 42.9044 109.989 43.0852 110.097 43.3182H110.142C110.254 43.0928 110.421 42.9138 110.645 42.7812C110.868 42.6468 111.136 42.5795 111.449 42.5795C111.839 42.5795 112.158 42.7017 112.406 42.946C112.654 43.1884 112.778 43.5663 112.778 44.0795V47H112.108V44.0795C112.108 43.7576 112.02 43.5275 111.844 43.3892C111.668 43.2509 111.46 43.1818 111.222 43.1818C110.915 43.1818 110.677 43.2746 110.509 43.4602C110.34 43.6439 110.256 43.8769 110.256 44.1591V47H109.574V44.0114C109.574 43.7633 109.493 43.5634 109.332 43.4119C109.171 43.2585 108.964 43.1818 108.71 43.1818C108.536 43.1818 108.373 43.2282 108.222 43.321C108.072 43.4138 107.951 43.5426 107.858 43.7074C107.767 43.8703 107.722 44.0587 107.722 44.2727V47H107.051ZM115.777 47.0909C115.383 47.0909 115.037 46.9972 114.74 46.8097C114.445 46.6222 114.214 46.3598 114.047 46.0227C113.882 45.6856 113.8 45.2917 113.8 44.8409C113.8 44.3864 113.882 43.9896 114.047 43.6506C114.214 43.3116 114.445 43.0483 114.74 42.8608C115.037 42.6733 115.383 42.5795 115.777 42.5795C116.171 42.5795 116.516 42.6733 116.811 42.8608C117.108 43.0483 117.339 43.3116 117.504 43.6506C117.671 43.9896 117.754 44.3864 117.754 44.8409C117.754 45.2917 117.671 45.6856 117.504 46.0227C117.339 46.3598 117.108 46.6222 116.811 46.8097C116.516 46.9972 116.171 47.0909 115.777 47.0909ZM115.777 46.4886C116.076 46.4886 116.322 46.4119 116.516 46.2585C116.709 46.1051 116.852 45.9034 116.945 45.6534C117.037 45.4034 117.084 45.1326 117.084 44.8409C117.084 44.5492 117.037 44.2775 116.945 44.0256C116.852 43.7737 116.709 43.5701 116.516 43.4148C116.322 43.2595 116.076 43.1818 115.777 43.1818C115.478 43.1818 115.232 43.2595 115.038 43.4148C114.845 43.5701 114.702 43.7737 114.609 44.0256C114.517 44.2775 114.47 44.5492 114.47 44.8409C114.47 45.1326 114.517 45.4034 114.609 45.6534C114.702 45.9034 114.845 46.1051 115.038 46.2585C115.232 46.4119 115.478 46.4886 115.777 46.4886ZM118.778 47V42.6364H119.425V43.2955H119.471C119.55 43.0795 119.694 42.9044 119.903 42.7699C120.111 42.6354 120.346 42.5682 120.607 42.5682C120.656 42.5682 120.718 42.5691 120.792 42.571C120.866 42.5729 120.922 42.5758 120.96 42.5795V43.2614C120.937 43.2557 120.885 43.2472 120.803 43.2358C120.724 43.2225 120.639 43.2159 120.55 43.2159C120.338 43.2159 120.149 43.2604 119.982 43.3494C119.817 43.4366 119.687 43.5578 119.59 43.7131C119.496 43.8665 119.448 44.0417 119.448 44.2386V47H118.778ZM123.451 47.0909C123.031 47.0909 122.668 46.9981 122.363 46.8125C122.06 46.625 121.826 46.3636 121.661 46.0284C121.498 45.6913 121.417 45.2992 121.417 44.8523C121.417 44.4053 121.498 44.0114 121.661 43.6705C121.826 43.3277 122.055 43.0606 122.349 42.8693C122.644 42.6761 122.989 42.5795 123.383 42.5795C123.61 42.5795 123.835 42.6174 124.056 42.6932C124.278 42.7689 124.479 42.892 124.661 43.0625C124.843 43.2311 124.988 43.4545 125.096 43.733C125.204 44.0114 125.258 44.3542 125.258 44.7614V45.0455H121.894V44.4659H124.576C124.576 44.2197 124.527 44 124.428 43.8068C124.332 43.6136 124.193 43.4612 124.013 43.3494C123.835 43.2377 123.625 43.1818 123.383 43.1818C123.116 43.1818 122.885 43.2481 122.69 43.3807C122.496 43.5114 122.348 43.6818 122.244 43.892C122.139 44.1023 122.087 44.3277 122.087 44.5682V44.9545C122.087 45.2841 122.144 45.5634 122.258 45.7926C122.373 46.0199 122.533 46.1932 122.738 46.3125C122.942 46.4299 123.18 46.4886 123.451 46.4886C123.627 46.4886 123.786 46.464 123.928 46.4148C124.072 46.3636 124.196 46.2879 124.3 46.1875C124.405 46.0852 124.485 45.9583 124.542 45.8068L125.19 45.9886C125.121 46.2083 125.007 46.4015 124.846 46.5682C124.685 46.733 124.486 46.8617 124.249 46.9545C124.013 47.0455 123.746 47.0909 123.451 47.0909Z"></path>
<path fill="black" d="M52.685 17.1011C53.0962 17.4494 53.3334 17.9611 53.3334 18.5V42.3333C53.3334 43.3458 52.5125 44.1666 51.5 44.1666C50.4875 44.1666 49.6667 43.3458 49.6667 42.3333V20.6642L31.3334 23.7197V46C31.3334 47.0125 30.5125 47.8333 29.5 47.8333C28.4875 47.8333 27.6667 47.0125 27.6667 46V22.1666C27.6667 21.2704 28.3146 20.5056 29.1986 20.3583L51.1986 16.6916C51.7302 16.603 52.2738 16.7528 52.685 17.1011Z" clip-rule="evenodd" fill-rule="evenodd"></path>
<path fill="black" d="M24 42.3333C21.975 42.3333 20.3334 43.9749 20.3334 46C20.3334 48.025 21.975 49.6666 24 49.6666C26.0251 49.6666 27.6667 48.025 27.6667 46C27.6667 43.9749 26.0251 42.3333 24 42.3333ZM16.6667 46C16.6667 41.9499 19.9499 38.6666 24 38.6666C28.0501 38.6666 31.3334 41.9499 31.3334 46C31.3334 50.05 28.0501 53.3333 24 53.3333C19.9499 53.3333 16.6667 50.05 16.6667 46Z" clip-rule="evenodd" fill-rule="evenodd"></path>
<path fill="black" d="M46 38.6667C43.975 38.6667 42.3334 40.3083 42.3334 42.3333C42.3334 44.3584 43.975 46 46 46C48.0251 46 49.6667 44.3584 49.6667 42.3333C49.6667 40.3083 48.0251 38.6667 46 38.6667ZM38.6667 42.3333C38.6667 38.2832 41.9499 35 46 35C50.0501 35 53.3334 38.2832 53.3334 42.3333C53.3334 46.3834 50.0501 49.6667 46 49.6667C41.9499 49.6667 38.6667 46.3834 38.6667 42.3333Z" clip-rule="evenodd" fill-rule="evenodd"></path>
</svg>
