<svg xmlns="http://www.w3.org/2000/svg" fill="none" viewBox="0 0 140 140" height="140" width="140">
<g clip-path="url(#clip0_3125_3)">
<circle fill="black" r="70" cy="70" cx="70"></circle>
<path fill="#3B88C3" d="M108.221 75.665C108.221 72.9889 112.297 59.0409 116.376 54.9651C120.449 50.8893 116.376 46.4924 112.3 46.4924C103.188 46.4924 87.8426 64.9605 87.8426 75.665C87.8426 89.0458 103.185 103.561 112.3 103.561C116.376 103.561 120.451 99.8038 116.376 95.7254C112.3 91.6523 108.221 81.0173 108.221 75.665Z"></path>
<path fill="#3B88C3" d="M46.3169 49.9313C46.3169 41.7798 50.3231 33.6256 54.3988 33.6256C66.6261 33.6256 90.0504 46.5326 94.1262 66.9141C98.2046 87.2956 46.3169 49.9313 46.3169 49.9313ZM59.3069 98.8459C63.3826 102.922 71.5369 107 79.6911 107C87.8426 107 71.3656 95.7897 75.6153 90.697C81.4493 83.6935 59.3069 98.8459 59.3069 98.8459Z"></path>
<path fill="black" d="M27.7177 88.3152C29.7542 82.2002 28.2262 77.7846 24.6589 73.3716C21.0916 68.9533 35.0209 68.2763 39.6051 74.3913C44.1893 80.5062 54.8939 91.2001 45.3802 91.0369C35.8719 90.8629 27.7177 88.3152 27.7177 88.3152Z"></path>
<path fill="#55ACEE" d="M22.625 74.2949C25.1914 76.6339 41.9548 85.8264 41.7996 88.0423C41.6443 90.2581 35.7006 87.8068 33.4901 87.2956C29.5161 86.3804 28.3921 85.6953 27.2895 85.888C25.0416 86.747 25.8069 89.102 26.6419 90.4481C30.6507 97.4329 46.1403 102.924 59.1838 102.924C81.6955 102.924 104.148 82.5455 104.148 74.3913C104.148 66.2398 79.1397 45.8556 56.628 45.8556C34.1725 45.8529 22.6571 62.0757 22.625 74.2949Z"></path>
<path fill="black" d="M40.9084 56.9321C43.8629 56.9321 46.2607 59.3246 46.2607 62.2844C46.2607 65.2415 43.8629 67.6367 40.9084 67.6367C37.9513 67.6367 35.5561 65.2389 35.5561 62.2844C35.5561 59.3246 37.9513 56.9321 40.9084 56.9321Z"></path>
<path fill="#226699" d="M62.5316 91.6684C62.1142 91.6684 61.6913 91.5721 61.2953 91.366C59.984 90.6809 59.4782 89.0646 60.1633 87.7532C64.4049 79.6338 66.0989 72.3173 60.5754 63.0177C59.8207 61.7465 60.2382 60.106 61.5094 59.3487C62.7805 58.5913 64.421 59.0168 65.1783 60.2827C72.3852 72.419 69.0855 82.2324 64.9054 90.2314C64.429 91.1466 63.4951 91.6684 62.5316 91.6684Z"></path>
</g>
<defs>
<clipPath id="clip0_3125_3">
<rect fill="white" height="140" width="140"></rect>
</clipPath>
</defs>
</svg>
