<svg xmlns="http://www.w3.org/2000/svg" fill="none" viewBox="0 0 180 70" height="70" width="180">
<rect fill="#303030" height="70" width="180"></rect>
<rect fill="#303030" height="70" width="70"></rect>
<path fill="white" d="M78.7031 19.0909H82.3892L84.9247 25.2699H85.0526L87.5881 19.0909H91.2741V30H88.3764V23.6932H88.2912L85.8622 29.9148H84.1151L81.6861 23.6506H81.6009V30H78.7031V19.0909ZM93.9502 30.1278C93.4282 30.1278 92.9665 30.0426 92.5652 29.8722C92.1675 29.6982 91.855 29.4354 91.6277 29.0838C91.4005 28.7322 91.2868 28.2848 91.2868 27.7415C91.2868 27.294 91.3632 26.9123 91.5159 26.5962C91.6686 26.2766 91.8816 26.0156 92.1551 25.8132C92.4285 25.6108 92.7463 25.4563 93.1086 25.3498C93.4743 25.2433 93.8685 25.174 94.2911 25.142C94.7492 25.1065 95.1167 25.0639 95.3937 25.0142C95.6743 24.9609 95.8767 24.8881 96.001 24.7958C96.1252 24.6999 96.1874 24.5739 96.1874 24.4176V24.3963C96.1874 24.1832 96.1057 24.0199 95.9424 23.9062C95.779 23.7926 95.5695 23.7358 95.3138 23.7358C95.0333 23.7358 94.8042 23.7979 94.6267 23.9222C94.4527 24.043 94.3479 24.2294 94.3124 24.4815H91.6064C91.6419 23.9844 91.8 23.5263 92.0805 23.1072C92.3646 22.6847 92.7783 22.3473 93.3216 22.0952C93.865 21.8395 94.5432 21.7116 95.3564 21.7116C95.9424 21.7116 96.4679 21.7809 96.9331 21.9194C97.3983 22.0543 97.7943 22.2443 98.121 22.4893C98.4477 22.7308 98.6963 23.0149 98.8667 23.3416C99.0407 23.6648 99.1277 24.0163 99.1277 24.3963V30H96.3792V28.8494H96.3152C96.1519 29.1548 95.953 29.4016 95.7186 29.5898C95.4878 29.7781 95.2233 29.9148 94.925 30C94.6302 30.0852 94.3053 30.1278 93.9502 30.1278ZM94.909 28.2741C95.1327 28.2741 95.3422 28.228 95.5375 28.1357C95.7364 28.0433 95.898 27.9102 96.0223 27.7362C96.1466 27.5621 96.2087 27.3509 96.2087 27.1023V26.4205C96.1306 26.4524 96.0471 26.4826 95.9583 26.511C95.8731 26.5394 95.7808 26.5661 95.6814 26.5909C95.5855 26.6158 95.4825 26.6388 95.3724 26.6602C95.2659 26.6815 95.154 26.701 95.0368 26.7188C94.8096 26.7543 94.6231 26.8129 94.4775 26.8945C94.3355 26.9727 94.2289 27.0703 94.1579 27.1875C94.0904 27.3011 94.0567 27.429 94.0567 27.571C94.0567 27.7983 94.1366 27.9723 94.2964 28.093C94.4562 28.2138 94.6604 28.2741 94.909 28.2741ZM106.961 24.4815H104.255C104.241 24.3146 104.183 24.1708 104.08 24.0501C103.977 23.9293 103.843 23.837 103.68 23.7731C103.52 23.7056 103.343 23.6719 103.147 23.6719C102.895 23.6719 102.679 23.718 102.498 23.8104C102.316 23.9027 102.228 24.0341 102.231 24.2045C102.228 24.3253 102.279 24.4371 102.386 24.5401C102.496 24.6431 102.707 24.723 103.02 24.7798L104.682 25.0781C105.52 25.2308 106.143 25.4883 106.551 25.8505C106.963 26.2092 107.171 26.6903 107.174 27.294C107.171 27.8764 106.997 28.3825 106.652 28.8121C106.311 29.2383 105.845 29.5685 105.251 29.8029C104.662 30.0337 103.989 30.1491 103.233 30.1491C101.983 30.1491 101.004 29.8935 100.298 29.3821C99.5945 28.8707 99.2021 28.196 99.1204 27.358H102.039C102.079 27.6172 102.206 27.8178 102.423 27.9599C102.643 28.0984 102.92 28.1676 103.254 28.1676C103.524 28.1676 103.746 28.1214 103.92 28.0291C104.097 27.9368 104.188 27.8054 104.191 27.6349C104.188 27.4787 104.11 27.3544 103.957 27.2621C103.808 27.1697 103.574 27.0952 103.254 27.0384L101.805 26.7827C100.971 26.6371 100.346 26.3601 99.9301 25.9517C99.5146 25.5433 99.3086 25.0178 99.3122 24.375C99.3086 23.8068 99.4578 23.3256 99.7596 22.9315C100.065 22.5337 100.5 22.2319 101.065 22.0259C101.633 21.8164 102.306 21.7116 103.084 21.7116C104.266 21.7116 105.198 21.9567 105.88 22.4467C106.565 22.9368 106.926 23.6151 106.961 24.4815ZM112.13 21.8182V23.9489H106.74V21.8182H112.13ZM107.784 19.858H110.724V27.3686C110.724 27.4822 110.744 27.5781 110.783 27.6562C110.822 27.7308 110.882 27.7876 110.964 27.8267C111.045 27.8622 111.15 27.88 111.278 27.88C111.367 27.88 111.47 27.8693 111.587 27.848C111.708 27.8267 111.796 27.8089 111.853 27.7947L112.279 29.8615C112.148 29.9006 111.96 29.9485 111.715 30.0053C111.473 30.0621 111.186 30.0994 110.852 30.1172C110.177 30.1527 109.611 30.0835 109.153 29.9094C108.695 29.7319 108.35 29.4531 108.119 29.0732C107.888 28.6932 107.777 28.2173 107.784 27.6456V19.858ZM116.113 30.1491C115.239 30.1491 114.486 29.9822 113.854 29.6484C113.226 29.3111 112.741 28.8281 112.4 28.1996C112.063 27.5675 111.894 26.8111 111.894 25.9304C111.894 25.0852 112.064 24.3466 112.405 23.7145C112.746 23.0824 113.227 22.5906 113.849 22.239C114.47 21.8874 115.204 21.7116 116.049 21.7116C116.667 21.7116 117.226 21.8075 117.727 21.9993C118.227 22.1911 118.655 22.4698 119.01 22.8356C119.366 23.1978 119.639 23.6381 119.831 24.1566C120.022 24.6751 120.118 25.2592 120.118 25.9091V26.5909H112.81V24.9716H117.412C117.409 24.7372 117.348 24.5312 117.231 24.3537C117.118 24.1726 116.963 24.0323 116.768 23.9329C116.576 23.8299 116.358 23.7784 116.113 23.7784C115.875 23.7784 115.656 23.8299 115.457 23.9329C115.259 24.0323 115.099 24.1708 114.978 24.3484C114.861 24.5259 114.799 24.7337 114.792 24.9716V26.7188C114.792 26.9815 114.847 27.2159 114.957 27.4219C115.067 27.6278 115.225 27.7894 115.431 27.9066C115.637 28.0238 115.885 28.0824 116.177 28.0824C116.379 28.0824 116.564 28.054 116.731 27.9972C116.901 27.9403 117.047 27.8587 117.167 27.7521C117.288 27.642 117.377 27.5107 117.434 27.358H120.118C120.026 27.9261 119.808 28.4197 119.463 28.8388C119.119 29.2543 118.662 29.5774 118.094 29.8082C117.53 30.0355 116.869 30.1491 116.113 30.1491ZM120.268 30V21.8182H123.123V23.3736H123.209C123.358 22.7983 123.594 22.3775 123.917 22.1112C124.244 21.8448 124.625 21.7116 125.062 21.7116C125.19 21.7116 125.316 21.7223 125.44 21.7436C125.568 21.7614 125.691 21.788 125.808 21.8235V24.3324C125.662 24.2827 125.483 24.2454 125.27 24.2205C125.057 24.1957 124.874 24.1832 124.721 24.1832C124.434 24.1832 124.174 24.2489 123.944 24.3803C123.716 24.5082 123.537 24.6893 123.406 24.9237C123.274 25.1545 123.209 25.4261 123.209 25.7386V30H120.268ZM130.96 21.8182V23.9489H125.484V21.8182H130.96ZM126.528 30V21.5838C126.528 20.9091 126.649 20.3498 126.89 19.9059C127.131 19.462 127.472 19.13 127.913 18.9098C128.353 18.6896 128.872 18.5795 129.468 18.5795C129.841 18.5795 130.203 18.608 130.555 18.6648C130.91 18.7216 131.173 18.7713 131.343 18.8139L130.917 20.9233C130.81 20.8913 130.686 20.8665 130.544 20.8487C130.402 20.8274 130.278 20.8168 130.171 20.8168C129.894 20.8168 129.708 20.8754 129.612 20.9925C129.516 21.1097 129.468 21.2642 129.468 21.456V30H126.528ZM131.044 30V21.8182H133.985V30H131.044ZM132.514 20.9659C132.117 20.9659 131.776 20.8345 131.492 20.5717C131.208 20.3089 131.065 19.9929 131.065 19.6236C131.065 19.2543 131.208 18.9382 131.492 18.6754C131.776 18.4126 132.117 18.2812 132.514 18.2812C132.916 18.2812 133.257 18.4126 133.537 18.6754C133.821 18.9382 133.963 19.2543 133.963 19.6236C133.963 19.9929 133.821 20.3089 133.537 20.5717C133.257 20.8345 132.916 20.9659 132.514 20.9659ZM141.911 24.4815H139.205C139.191 24.3146 139.133 24.1708 139.03 24.0501C138.927 23.9293 138.793 23.837 138.63 23.7731C138.47 23.7056 138.293 23.6719 138.097 23.6719C137.845 23.6719 137.629 23.718 137.448 23.8104C137.266 23.9027 137.178 24.0341 137.181 24.2045C137.178 24.3253 137.229 24.4371 137.336 24.5401C137.446 24.6431 137.657 24.723 137.97 24.7798L139.632 25.0781C140.47 25.2308 141.093 25.4883 141.501 25.8505C141.913 26.2092 142.121 26.6903 142.124 27.294C142.121 27.8764 141.947 28.3825 141.602 28.8121C141.261 29.2383 140.795 29.5685 140.201 29.8029C139.612 30.0337 138.939 30.1491 138.183 30.1491C136.933 30.1491 135.954 29.8935 135.248 29.3821C134.545 28.8707 134.152 28.196 134.07 27.358H136.989C137.029 27.6172 137.156 27.8178 137.373 27.9599C137.593 28.0984 137.87 28.1676 138.204 28.1676C138.474 28.1676 138.696 28.1214 138.87 28.0291C139.047 27.9368 139.138 27.8054 139.141 27.6349C139.138 27.4787 139.06 27.3544 138.907 27.2621C138.758 27.1697 138.524 27.0952 138.204 27.0384L136.755 26.7827C135.921 26.6371 135.296 26.3601 134.88 25.9517C134.465 25.5433 134.259 25.0178 134.262 24.375C134.259 23.8068 134.408 23.3256 134.71 22.9315C135.015 22.5337 135.45 22.2319 136.015 22.0259C136.583 21.8164 137.256 21.7116 138.034 21.7116C139.216 21.7116 140.148 21.9567 140.83 22.4467C141.515 22.9368 141.876 23.6151 141.911 24.4815ZM145.141 25.3977V30H142.201V19.0909H145.035V23.3736H145.12C145.305 22.8516 145.612 22.445 146.042 22.1538C146.471 21.859 146.988 21.7116 147.592 21.7116C148.17 21.7116 148.673 21.843 149.099 22.1058C149.529 22.3686 149.861 22.7308 150.095 23.1925C150.333 23.6541 150.45 24.1832 150.447 24.7798V30H147.506V25.3977C147.51 24.9929 147.409 24.6751 147.203 24.4442C147 24.2134 146.711 24.098 146.335 24.098C146.097 24.098 145.887 24.1513 145.706 24.2578C145.528 24.3608 145.39 24.5099 145.29 24.7053C145.195 24.897 145.145 25.1278 145.141 25.3977ZM154.769 30.1491C153.895 30.1491 153.142 29.9822 152.51 29.6484C151.882 29.3111 151.397 28.8281 151.056 28.1996C150.719 27.5675 150.55 26.8111 150.55 25.9304C150.55 25.0852 150.72 24.3466 151.061 23.7145C151.402 23.0824 151.883 22.5906 152.505 22.239C153.126 21.8874 153.86 21.7116 154.705 21.7116C155.323 21.7116 155.882 21.8075 156.383 21.9993C156.883 22.1911 157.311 22.4698 157.666 22.8356C158.022 23.1978 158.295 23.6381 158.487 24.1566C158.679 24.6751 158.774 25.2592 158.774 25.9091V26.5909H151.466V24.9716H156.068C156.065 24.7372 156.005 24.5312 155.887 24.3537C155.774 24.1726 155.619 24.0323 155.424 23.9329C155.232 23.8299 155.014 23.7784 154.769 23.7784C154.531 23.7784 154.312 23.8299 154.114 23.9329C153.915 24.0323 153.755 24.1708 153.634 24.3484C153.517 24.5259 153.455 24.7337 153.448 24.9716V26.7188C153.448 26.9815 153.503 27.2159 153.613 27.4219C153.723 27.6278 153.881 27.7894 154.087 27.9066C154.293 28.0238 154.541 28.0824 154.833 28.0824C155.035 28.0824 155.22 28.054 155.387 27.9972C155.557 27.9403 155.703 27.8587 155.823 27.7521C155.944 27.642 156.033 27.5107 156.09 27.358H158.774C158.682 27.9261 158.464 28.4197 158.119 28.8388C157.775 29.2543 157.318 29.5774 156.75 29.8082C156.186 30.0355 155.525 30.1491 154.769 30.1491ZM158.924 30V21.8182H161.779V23.3736H161.865C162.014 22.7983 162.25 22.3775 162.573 22.1112C162.9 21.8448 163.281 21.7116 163.718 21.7116C163.846 21.7116 163.972 21.7223 164.096 21.7436C164.224 21.7614 164.347 21.788 164.464 21.8235V24.3324C164.318 24.2827 164.139 24.2454 163.926 24.2205C163.713 24.1957 163.53 24.1832 163.377 24.1832C163.09 24.1832 162.831 24.2489 162.6 24.3803C162.372 24.5082 162.193 24.6893 162.062 24.9237C161.93 25.1545 161.865 25.4261 161.865 25.7386V30H158.924Z"></path>
<path fill="white" d="M80.6477 36.1818V42H79.9432V36.9205H79.9091L78.4886 37.8636V37.1477L79.9432 36.1818H80.6477ZM84.1392 42.0795C83.8059 42.0795 83.5057 42.0133 83.2386 41.8807C82.9716 41.7481 82.7576 41.5663 82.5966 41.3352C82.4356 41.1042 82.3475 40.8409 82.3324 40.5455H83.0142C83.0407 40.8087 83.16 41.0265 83.3722 41.1989C83.5862 41.3693 83.8419 41.4545 84.1392 41.4545C84.3778 41.4545 84.59 41.3987 84.7756 41.2869C84.9631 41.1752 85.1098 41.0218 85.2159 40.8267C85.3239 40.6297 85.3778 40.4072 85.3778 40.1591C85.3778 39.9053 85.322 39.679 85.2102 39.4801C85.1004 39.2794 84.9489 39.1212 84.7557 39.0057C84.5625 38.8902 84.3419 38.8314 84.0938 38.8295C83.9157 38.8277 83.733 38.8551 83.5455 38.9119C83.358 38.9669 83.2036 39.0379 83.0824 39.125L82.4233 39.0455L82.7756 36.1818H85.7983V36.8068H83.3665L83.1619 38.5227H83.196C83.3153 38.428 83.465 38.3494 83.6449 38.2869C83.8248 38.2244 84.0123 38.1932 84.2074 38.1932C84.5634 38.1932 84.8807 38.2784 85.1591 38.4489C85.4394 38.6174 85.6591 38.8485 85.8182 39.142C85.9792 39.4356 86.0597 39.7708 86.0597 40.1477C86.0597 40.5189 85.9763 40.8504 85.8097 41.142C85.6449 41.4318 85.4176 41.661 85.1278 41.8295C84.8381 41.9962 84.5085 42.0795 84.1392 42.0795ZM91.2791 42.0909C90.8587 42.0909 90.496 41.9981 90.1911 41.8125C89.888 41.625 89.6541 41.3636 89.4893 41.0284C89.3265 40.6913 89.245 40.2992 89.245 39.8523C89.245 39.4053 89.3265 39.0114 89.4893 38.6705C89.6541 38.3277 89.8833 38.0606 90.1768 37.8693C90.4723 37.6761 90.817 37.5795 91.2109 37.5795C91.4382 37.5795 91.6626 37.6174 91.8842 37.6932C92.1058 37.7689 92.3075 37.892 92.4893 38.0625C92.6712 38.2311 92.8161 38.4545 92.924 38.733C93.032 39.0114 93.0859 39.3542 93.0859 39.7614V40.0455H89.7223V39.4659H92.4041C92.4041 39.2197 92.3549 39 92.2564 38.8068C92.1598 38.6136 92.0215 38.4612 91.8416 38.3494C91.6636 38.2377 91.4534 38.1818 91.2109 38.1818C90.9439 38.1818 90.7128 38.2481 90.5178 38.3807C90.3246 38.5114 90.1759 38.6818 90.0717 38.892C89.9676 39.1023 89.9155 39.3277 89.9155 39.5682V39.9545C89.9155 40.2841 89.9723 40.5634 90.0859 40.7926C90.2015 41.0199 90.3615 41.1932 90.5661 41.3125C90.7706 41.4299 91.0083 41.4886 91.2791 41.4886C91.4553 41.4886 91.6143 41.464 91.7564 41.4148C91.9003 41.3636 92.0244 41.2879 92.1286 41.1875C92.2327 41.0852 92.3132 40.9583 92.37 40.8068L93.0178 40.9886C92.9496 41.2083 92.835 41.4015 92.674 41.5682C92.513 41.733 92.3142 41.8617 92.0774 41.9545C91.8407 42.0455 91.5746 42.0909 91.2791 42.0909ZM94.7763 39.375V42H94.1058V37.6364H94.7536V38.3182H94.8104C94.9126 38.0966 95.0679 37.9186 95.2763 37.7841C95.4846 37.6477 95.7536 37.5795 96.0831 37.5795C96.3786 37.5795 96.6371 37.6402 96.8587 37.7614C97.0803 37.8807 97.2526 38.0625 97.3757 38.3068C97.4988 38.5492 97.5604 38.8561 97.5604 39.2273V42H96.8899V39.2727C96.8899 38.9299 96.8009 38.6629 96.6229 38.4716C96.4448 38.2784 96.2005 38.1818 95.8899 38.1818C95.6759 38.1818 95.4846 38.2282 95.3161 38.321C95.1494 38.4138 95.0178 38.5492 94.9212 38.7273C94.8246 38.9053 94.7763 39.1212 94.7763 39.375ZM100.615 42.0909C100.195 42.0909 99.8319 41.9981 99.527 41.8125C99.224 41.625 98.9901 41.3636 98.8253 41.0284C98.6624 40.6913 98.581 40.2992 98.581 39.8523C98.581 39.4053 98.6624 39.0114 98.8253 38.6705C98.9901 38.3277 99.2192 38.0606 99.5128 37.8693C99.8082 37.6761 100.153 37.5795 100.547 37.5795C100.774 37.5795 100.999 37.6174 101.22 37.6932C101.442 37.7689 101.643 37.892 101.825 38.0625C102.007 38.2311 102.152 38.4545 102.26 38.733C102.368 39.0114 102.422 39.3542 102.422 39.7614V40.0455H99.0582V39.4659H101.74C101.74 39.2197 101.691 39 101.592 38.8068C101.496 38.6136 101.357 38.4612 101.178 38.3494C101 38.2377 100.789 38.1818 100.547 38.1818C100.28 38.1818 100.049 38.2481 99.8537 38.3807C99.6605 38.5114 99.5118 38.6818 99.4077 38.892C99.3035 39.1023 99.2514 39.3277 99.2514 39.5682V39.9545C99.2514 40.2841 99.3082 40.5634 99.4219 40.7926C99.5374 41.0199 99.6974 41.1932 99.902 41.3125C100.107 41.4299 100.344 41.4886 100.615 41.4886C100.791 41.4886 100.95 41.464 101.092 41.4148C101.236 41.3636 101.36 41.2879 101.464 41.1875C101.569 41.0852 101.649 40.9583 101.706 40.8068L102.354 40.9886C102.286 41.2083 102.171 41.4015 102.01 41.5682C101.849 41.733 101.65 41.8617 101.413 41.9545C101.177 42.0455 100.911 42.0909 100.615 42.0909ZM103.442 42V37.6364H104.089V38.2955H104.135C104.214 38.0795 104.358 37.9044 104.567 37.7699C104.775 37.6354 105.01 37.5682 105.271 37.5682C105.321 37.5682 105.382 37.5691 105.456 37.571C105.53 37.5729 105.586 37.5758 105.624 37.5795V38.2614C105.601 38.2557 105.549 38.2472 105.467 38.2358C105.388 38.2225 105.304 38.2159 105.214 38.2159C105.002 38.2159 104.813 38.2604 104.646 38.3494C104.482 38.4366 104.351 38.5578 104.254 38.7131C104.16 38.8665 104.112 39.0417 104.112 39.2386V42H103.442ZM108.047 43.7273C107.723 43.7273 107.445 43.6856 107.212 43.6023C106.979 43.5208 106.785 43.4129 106.629 43.2784C106.476 43.1458 106.354 43.0038 106.263 42.8523L106.797 42.4773C106.857 42.5568 106.934 42.6477 107.027 42.75C107.12 42.8542 107.247 42.9441 107.408 43.0199C107.571 43.0975 107.784 43.1364 108.047 43.1364C108.399 43.1364 108.69 43.0511 108.919 42.8807C109.148 42.7102 109.263 42.4432 109.263 42.0795V41.1932H109.206C109.157 41.2727 109.087 41.3712 108.996 41.4886C108.907 41.6042 108.778 41.7074 108.609 41.7983C108.443 41.8873 108.217 41.9318 107.933 41.9318C107.581 41.9318 107.265 41.8485 106.984 41.6818C106.706 41.5152 106.485 41.2727 106.322 40.9545C106.161 40.6364 106.081 40.25 106.081 39.7955C106.081 39.3485 106.16 38.9593 106.317 38.6278C106.474 38.2945 106.693 38.0369 106.973 37.8551C107.253 37.6714 107.577 37.5795 107.945 37.5795C108.229 37.5795 108.454 37.6269 108.621 37.7216C108.789 37.8144 108.918 37.9205 109.007 38.0398C109.098 38.1572 109.168 38.2538 109.217 38.3295H109.286V37.6364H109.933V42.125C109.933 42.5 109.848 42.8049 109.678 43.0398C109.509 43.2765 109.282 43.4498 108.996 43.5597C108.712 43.6714 108.395 43.7273 108.047 43.7273ZM108.024 41.3295C108.293 41.3295 108.52 41.268 108.706 41.1449C108.892 41.0218 109.033 40.8447 109.129 40.6136C109.226 40.3826 109.274 40.1061 109.274 39.7841C109.274 39.4697 109.227 39.1922 109.132 38.9517C109.037 38.7112 108.897 38.5227 108.712 38.3864C108.526 38.25 108.297 38.1818 108.024 38.1818C107.74 38.1818 107.503 38.2538 107.314 38.3977C107.126 38.5417 106.985 38.7348 106.891 38.9773C106.798 39.2197 106.751 39.4886 106.751 39.7841C106.751 40.0871 106.799 40.3551 106.893 40.5881C106.99 40.8191 107.132 41.0009 107.32 41.1335C107.509 41.2642 107.744 41.3295 108.024 41.3295ZM111.592 43.6364C111.479 43.6364 111.377 43.6269 111.288 43.608C111.199 43.5909 111.138 43.5739 111.104 43.5568L111.274 42.9659C111.437 43.0076 111.581 43.0227 111.706 43.0114C111.831 43 111.942 42.9441 112.038 42.8438C112.137 42.7453 112.227 42.5852 112.308 42.3636L112.433 42.0227L110.82 37.6364H111.547L112.751 41.1136H112.797L114.001 37.6364H114.729L112.876 42.6364C112.793 42.8617 112.69 43.0483 112.567 43.196C112.444 43.3456 112.301 43.4564 112.138 43.5284C111.977 43.6004 111.795 43.6364 111.592 43.6364ZM117.217 35.9091L115.342 42.875H114.729L116.604 35.9091H117.217ZM121.103 38.6136L120.501 38.7841C120.463 38.6837 120.407 38.5862 120.333 38.4915C120.261 38.3949 120.163 38.3153 120.038 38.2528C119.913 38.1903 119.753 38.1591 119.558 38.1591C119.29 38.1591 119.068 38.2206 118.89 38.3438C118.714 38.465 118.626 38.6193 118.626 38.8068C118.626 38.9735 118.686 39.1051 118.808 39.2017C118.929 39.2983 119.118 39.3788 119.376 39.4432L120.023 39.6023C120.414 39.697 120.704 39.8419 120.896 40.0369C121.087 40.2301 121.183 40.4792 121.183 40.7841C121.183 41.0341 121.111 41.2576 120.967 41.4545C120.825 41.6515 120.626 41.8068 120.37 41.9205C120.114 42.0341 119.817 42.0909 119.478 42.0909C119.033 42.0909 118.665 41.9943 118.373 41.8011C118.081 41.608 117.897 41.3258 117.819 40.9545L118.455 40.7955C118.516 41.0303 118.63 41.2064 118.799 41.3239C118.969 41.4413 119.192 41.5 119.467 41.5C119.779 41.5 120.027 41.4337 120.211 41.3011C120.397 41.1667 120.489 41.0057 120.489 40.8182C120.489 40.6667 120.436 40.5398 120.33 40.4375C120.224 40.3333 120.061 40.2557 119.842 40.2045L119.114 40.0341C118.715 39.9394 118.421 39.7926 118.234 39.5938C118.048 39.393 117.955 39.142 117.955 38.8409C117.955 38.5947 118.024 38.3769 118.163 38.1875C118.303 37.9981 118.493 37.8494 118.734 37.7415C118.976 37.6335 119.251 37.5795 119.558 37.5795C119.989 37.5795 120.328 37.6742 120.575 37.8636C120.823 38.053 120.999 38.303 121.103 38.6136ZM124.021 42.0909C123.601 42.0909 123.238 41.9981 122.933 41.8125C122.63 41.625 122.396 41.3636 122.232 41.0284C122.069 40.6913 121.987 40.2992 121.987 39.8523C121.987 39.4053 122.069 39.0114 122.232 38.6705C122.396 38.3277 122.625 38.0606 122.919 37.8693C123.214 37.6761 123.559 37.5795 123.953 37.5795C124.18 37.5795 124.405 37.6174 124.626 37.6932C124.848 37.7689 125.05 37.892 125.232 38.0625C125.413 38.2311 125.558 38.4545 125.666 38.733C125.774 39.0114 125.828 39.3542 125.828 39.7614V40.0455H122.464V39.4659H125.146C125.146 39.2197 125.097 39 124.999 38.8068C124.902 38.6136 124.764 38.4612 124.584 38.3494C124.406 38.2377 124.196 38.1818 123.953 38.1818C123.686 38.1818 123.455 38.2481 123.26 38.3807C123.067 38.5114 122.918 38.6818 122.814 38.892C122.71 39.1023 122.658 39.3277 122.658 39.5682V39.9545C122.658 40.2841 122.714 40.5634 122.828 40.7926C122.944 41.0199 123.104 41.1932 123.308 41.3125C123.513 41.4299 123.75 41.4886 124.021 41.4886C124.197 41.4886 124.357 41.464 124.499 41.4148C124.643 41.3636 124.767 41.2879 124.871 41.1875C124.975 41.0852 125.055 40.9583 125.112 40.8068L125.76 40.9886C125.692 41.2083 125.577 41.4015 125.416 41.5682C125.255 41.733 125.056 41.8617 124.82 41.9545C124.583 42.0455 124.317 42.0909 124.021 42.0909ZM128.621 42.0909C128.212 42.0909 127.859 41.9943 127.564 41.8011C127.268 41.608 127.041 41.3419 126.882 41.0028C126.723 40.6638 126.643 40.2765 126.643 39.8409C126.643 39.3977 126.725 39.0066 126.888 38.6676C127.053 38.3267 127.282 38.0606 127.575 37.8693C127.871 37.6761 128.215 37.5795 128.609 37.5795C128.916 37.5795 129.193 37.6364 129.439 37.75C129.685 37.8636 129.887 38.0227 130.044 38.2273C130.201 38.4318 130.299 38.6705 130.337 38.9432H129.666C129.615 38.7443 129.501 38.5682 129.325 38.4148C129.151 38.2595 128.916 38.1818 128.621 38.1818C128.359 38.1818 128.13 38.25 127.933 38.3864C127.738 38.5208 127.586 38.7112 127.476 38.9574C127.368 39.2017 127.314 39.4886 127.314 39.8182C127.314 40.1553 127.367 40.4489 127.473 40.6989C127.581 40.9489 127.732 41.143 127.928 41.2812C128.125 41.4195 128.356 41.4886 128.621 41.4886C128.795 41.4886 128.953 41.4583 129.095 41.3977C129.237 41.3371 129.357 41.25 129.456 41.1364C129.554 41.0227 129.625 40.8864 129.666 40.7273H130.337C130.299 40.9848 130.205 41.2169 130.055 41.4233C129.908 41.6278 129.712 41.7907 129.467 41.9119C129.225 42.0312 128.943 42.0909 128.621 42.0909ZM133.089 42.0909C132.696 42.0909 132.35 41.9972 132.053 41.8097C131.757 41.6222 131.526 41.3598 131.359 41.0227C131.195 40.6856 131.112 40.2917 131.112 39.8409C131.112 39.3864 131.195 38.9896 131.359 38.6506C131.526 38.3116 131.757 38.0483 132.053 37.8608C132.35 37.6733 132.696 37.5795 133.089 37.5795C133.483 37.5795 133.828 37.6733 134.124 37.8608C134.421 38.0483 134.652 38.3116 134.817 38.6506C134.983 38.9896 135.067 39.3864 135.067 39.8409C135.067 40.2917 134.983 40.6856 134.817 41.0227C134.652 41.3598 134.421 41.6222 134.124 41.8097C133.828 41.9972 133.483 42.0909 133.089 42.0909ZM133.089 41.4886C133.389 41.4886 133.635 41.4119 133.828 41.2585C134.021 41.1051 134.164 40.9034 134.257 40.6534C134.35 40.4034 134.396 40.1326 134.396 39.8409C134.396 39.5492 134.35 39.2775 134.257 39.0256C134.164 38.7737 134.021 38.5701 133.828 38.4148C133.635 38.2595 133.389 38.1818 133.089 38.1818C132.79 38.1818 132.544 38.2595 132.351 38.4148C132.158 38.5701 132.015 38.7737 131.922 39.0256C131.829 39.2775 131.783 39.5492 131.783 39.8409C131.783 40.1326 131.829 40.4034 131.922 40.6534C132.015 40.9034 132.158 41.1051 132.351 41.2585C132.544 41.4119 132.79 41.4886 133.089 41.4886ZM136.761 39.375V42H136.09V37.6364H136.738V38.3182H136.795C136.897 38.0966 137.052 37.9186 137.261 37.7841C137.469 37.6477 137.738 37.5795 138.067 37.5795C138.363 37.5795 138.621 37.6402 138.843 37.7614C139.065 37.8807 139.237 38.0625 139.36 38.3068C139.483 38.5492 139.545 38.8561 139.545 39.2273V42H138.874V39.2727C138.874 38.9299 138.785 38.6629 138.607 38.4716C138.429 38.2784 138.185 38.1818 137.874 38.1818C137.66 38.1818 137.469 38.2282 137.3 38.321C137.134 38.4138 137.002 38.5492 136.906 38.7273C136.809 38.9053 136.761 39.1212 136.761 39.375ZM142.418 42.0909C142.054 42.0909 141.733 41.9991 141.455 41.8153C141.176 41.6297 140.958 41.3684 140.801 41.0312C140.644 40.6922 140.565 40.2917 140.565 39.8295C140.565 39.3712 140.644 38.9735 140.801 38.6364C140.958 38.2992 141.177 38.0388 141.457 37.8551C141.738 37.6714 142.062 37.5795 142.429 37.5795C142.713 37.5795 142.938 37.6269 143.102 37.7216C143.269 37.8144 143.396 37.9205 143.483 38.0398C143.572 38.1572 143.641 38.2538 143.69 38.3295H143.747V36.1818H144.418V42H143.77V41.3295H143.69C143.641 41.4091 143.571 41.5095 143.48 41.6307C143.389 41.75 143.259 41.857 143.091 41.9517C142.922 42.0445 142.698 42.0909 142.418 42.0909ZM142.509 41.4886C142.777 41.4886 143.005 41.4186 143.19 41.2784C143.376 41.1364 143.517 40.9403 143.614 40.6903C143.71 40.4384 143.759 40.1477 143.759 39.8182C143.759 39.4924 143.711 39.2074 143.616 38.9631C143.522 38.7169 143.382 38.5256 143.196 38.3892C143.01 38.2509 142.781 38.1818 142.509 38.1818C142.224 38.1818 141.988 38.2547 141.798 38.4006C141.611 38.5445 141.47 38.7405 141.375 38.9886C141.282 39.2348 141.236 39.5114 141.236 39.8182C141.236 40.1288 141.283 40.411 141.378 40.6648C141.474 40.9167 141.616 41.1174 141.804 41.267C141.993 41.4148 142.228 41.4886 142.509 41.4886ZM80.4205 52.0795C80.0871 52.0795 79.7869 52.0133 79.5199 51.8807C79.2528 51.7481 79.0388 51.5663 78.8778 51.3352C78.7169 51.1042 78.6288 50.8409 78.6136 50.5455H79.2955C79.322 50.8087 79.4413 51.0265 79.6534 51.1989C79.8674 51.3693 80.1231 51.4545 80.4205 51.4545C80.6591 51.4545 80.8712 51.3987 81.0568 51.2869C81.2443 51.1752 81.3911 51.0218 81.4972 50.8267C81.6051 50.6297 81.6591 50.4072 81.6591 50.1591C81.6591 49.9053 81.6032 49.679 81.4915 49.4801C81.3816 49.2794 81.2301 49.1212 81.0369 49.0057C80.8438 48.8902 80.6231 48.8314 80.375 48.8295C80.197 48.8277 80.0142 48.8551 79.8267 48.9119C79.6392 48.9669 79.4848 49.0379 79.3636 49.125L78.7045 49.0455L79.0568 46.1818H82.0795V46.8068H79.6477L79.4432 48.5227H79.4773C79.5966 48.428 79.7462 48.3494 79.9261 48.2869C80.1061 48.2244 80.2936 48.1932 80.4886 48.1932C80.8447 48.1932 81.1619 48.2784 81.4403 48.4489C81.7206 48.6174 81.9403 48.8485 82.0994 49.142C82.2604 49.4356 82.3409 49.7708 82.3409 50.1477C82.3409 50.5189 82.2576 50.8504 82.0909 51.142C81.9261 51.4318 81.6989 51.661 81.4091 51.8295C81.1193 51.9962 80.7898 52.0795 80.4205 52.0795ZM87.5604 52.0909C87.1399 52.0909 86.7772 51.9981 86.4723 51.8125C86.1693 51.625 85.9354 51.3636 85.7706 51.0284C85.6077 50.6913 85.5263 50.2992 85.5263 49.8523C85.5263 49.4053 85.6077 49.0114 85.7706 48.6705C85.9354 48.3277 86.1645 48.0606 86.4581 47.8693C86.7536 47.6761 87.0982 47.5795 87.4922 47.5795C87.7195 47.5795 87.9439 47.6174 88.1655 47.6932C88.3871 47.7689 88.5888 47.892 88.7706 48.0625C88.9524 48.2311 89.0973 48.4545 89.2053 48.733C89.3132 49.0114 89.3672 49.3542 89.3672 49.7614V50.0455H86.0036V49.4659H88.6854C88.6854 49.2197 88.6361 49 88.5376 48.8068C88.4411 48.6136 88.3028 48.4612 88.1229 48.3494C87.9448 48.2377 87.7346 48.1818 87.4922 48.1818C87.2251 48.1818 86.9941 48.2481 86.799 48.3807C86.6058 48.5114 86.4571 48.6818 86.353 48.892C86.2488 49.1023 86.1967 49.3277 86.1967 49.5682V49.9545C86.1967 50.2841 86.2536 50.5634 86.3672 50.7926C86.4827 51.0199 86.6428 51.1932 86.8473 51.3125C87.0518 51.4299 87.2895 51.4886 87.5604 51.4886C87.7365 51.4886 87.8956 51.464 88.0376 51.4148C88.1816 51.3636 88.3056 51.2879 88.4098 51.1875C88.514 51.0852 88.5945 50.9583 88.6513 50.8068L89.299 50.9886C89.2308 51.2083 89.1162 51.4015 88.9553 51.5682C88.7943 51.733 88.5954 51.8617 88.3587 51.9545C88.1219 52.0455 87.8558 52.0909 87.5604 52.0909ZM91.0575 49.375V52H90.3871V47.6364H91.0348V48.3182H91.0916C91.1939 48.0966 91.3492 47.9186 91.5575 47.7841C91.7659 47.6477 92.0348 47.5795 92.3643 47.5795C92.6598 47.5795 92.9183 47.6402 93.1399 47.7614C93.3615 47.8807 93.5339 48.0625 93.657 48.3068C93.7801 48.5492 93.8416 48.8561 93.8416 49.2273V52H93.1712V49.2727C93.1712 48.9299 93.0821 48.6629 92.9041 48.4716C92.7261 48.2784 92.4818 48.1818 92.1712 48.1818C91.9571 48.1818 91.7659 48.2282 91.5973 48.321C91.4306 48.4138 91.299 48.5492 91.2024 48.7273C91.1058 48.9053 91.0575 49.1212 91.0575 49.375ZM96.8963 52.0909C96.4759 52.0909 96.1132 51.9981 95.8082 51.8125C95.5052 51.625 95.2713 51.3636 95.1065 51.0284C94.9437 50.6913 94.8622 50.2992 94.8622 49.8523C94.8622 49.4053 94.9437 49.0114 95.1065 48.6705C95.2713 48.3277 95.5005 48.0606 95.794 47.8693C96.0895 47.6761 96.4342 47.5795 96.8281 47.5795C97.0554 47.5795 97.2798 47.6174 97.5014 47.6932C97.723 47.7689 97.9247 47.892 98.1065 48.0625C98.2884 48.2311 98.4332 48.4545 98.5412 48.733C98.6491 49.0114 98.7031 49.3542 98.7031 49.7614V50.0455H95.3395V49.4659H98.0213C98.0213 49.2197 97.9721 49 97.8736 48.8068C97.777 48.6136 97.6387 48.4612 97.4588 48.3494C97.2808 48.2377 97.0705 48.1818 96.8281 48.1818C96.5611 48.1818 96.33 48.2481 96.1349 48.3807C95.9418 48.5114 95.7931 48.6818 95.6889 48.892C95.5848 49.1023 95.5327 49.3277 95.5327 49.5682V49.9545C95.5327 50.2841 95.5895 50.5634 95.7031 50.7926C95.8187 51.0199 95.9787 51.1932 96.1832 51.3125C96.3878 51.4299 96.6255 51.4886 96.8963 51.4886C97.0724 51.4886 97.2315 51.464 97.3736 51.4148C97.5175 51.3636 97.6416 51.2879 97.7457 51.1875C97.8499 51.0852 97.9304 50.9583 97.9872 50.8068L98.6349 50.9886C98.5668 51.2083 98.4522 51.4015 98.2912 51.5682C98.1302 51.733 97.9313 51.8617 97.6946 51.9545C97.4579 52.0455 97.1918 52.0909 96.8963 52.0909ZM99.723 52V47.6364H100.371V48.2955H100.416C100.496 48.0795 100.64 47.9044 100.848 47.7699C101.056 47.6354 101.291 47.5682 101.553 47.5682C101.602 47.5682 101.663 47.5691 101.737 47.571C101.811 47.5729 101.867 47.5758 101.905 47.5795V48.2614C101.882 48.2557 101.83 48.2472 101.749 48.2358C101.669 48.2225 101.585 48.2159 101.496 48.2159C101.284 48.2159 101.094 48.2604 100.928 48.3494C100.763 48.4366 100.632 48.5578 100.536 48.7131C100.441 48.8665 100.393 49.0417 100.393 49.2386V52H99.723ZM104.328 53.7273C104.004 53.7273 103.726 53.6856 103.493 53.6023C103.26 53.5208 103.066 53.4129 102.911 53.2784C102.757 53.1458 102.635 53.0038 102.544 52.8523L103.078 52.4773C103.139 52.5568 103.215 52.6477 103.308 52.75C103.401 52.8542 103.528 52.9441 103.689 53.0199C103.852 53.0975 104.065 53.1364 104.328 53.1364C104.68 53.1364 104.971 53.0511 105.2 52.8807C105.429 52.7102 105.544 52.4432 105.544 52.0795V51.1932H105.487C105.438 51.2727 105.368 51.3712 105.277 51.4886C105.188 51.6042 105.059 51.7074 104.891 51.7983C104.724 51.8873 104.499 51.9318 104.214 51.9318C103.862 51.9318 103.546 51.8485 103.266 51.6818C102.987 51.5152 102.767 51.2727 102.604 50.9545C102.443 50.6364 102.362 50.25 102.362 49.7955C102.362 49.3485 102.441 48.9593 102.598 48.6278C102.755 48.2945 102.974 48.0369 103.254 47.8551C103.535 47.6714 103.858 47.5795 104.226 47.5795C104.51 47.5795 104.735 47.6269 104.902 47.7216C105.071 47.8144 105.199 47.9205 105.288 48.0398C105.379 48.1572 105.449 48.2538 105.499 48.3295H105.567V47.6364H106.214V52.125C106.214 52.5 106.129 52.8049 105.959 53.0398C105.79 53.2765 105.563 53.4498 105.277 53.5597C104.993 53.6714 104.677 53.7273 104.328 53.7273ZM104.305 51.3295C104.574 51.3295 104.802 51.268 104.987 51.1449C105.173 51.0218 105.314 50.8447 105.411 50.6136C105.507 50.3826 105.555 50.1061 105.555 49.7841C105.555 49.4697 105.508 49.1922 105.413 48.9517C105.319 48.7112 105.179 48.5227 104.993 48.3864C104.807 48.25 104.578 48.1818 104.305 48.1818C104.021 48.1818 103.785 48.2538 103.595 48.3977C103.408 48.5417 103.267 48.7348 103.172 48.9773C103.079 49.2197 103.033 49.4886 103.033 49.7841C103.033 50.0871 103.08 50.3551 103.175 50.5881C103.271 50.8191 103.413 51.0009 103.601 51.1335C103.79 51.2642 104.025 51.3295 104.305 51.3295ZM107.874 53.6364C107.76 53.6364 107.659 53.6269 107.57 53.608C107.481 53.5909 107.419 53.5739 107.385 53.5568L107.555 52.9659C107.718 53.0076 107.862 53.0227 107.987 53.0114C108.112 53 108.223 52.9441 108.32 52.8438C108.418 52.7453 108.508 52.5852 108.589 52.3636L108.714 52.0227L107.101 47.6364H107.828L109.033 51.1136H109.078L110.283 47.6364H111.01L109.158 52.6364C109.074 52.8617 108.971 53.0483 108.848 53.196C108.725 53.3456 108.582 53.4564 108.419 53.5284C108.258 53.6004 108.076 53.6364 107.874 53.6364ZM113.499 45.9091L111.624 52.875H111.01L112.885 45.9091H113.499ZM116.066 52.0909C115.657 52.0909 115.305 51.9943 115.009 51.8011C114.714 51.608 114.487 51.3419 114.327 51.0028C114.168 50.6638 114.089 50.2765 114.089 49.8409C114.089 49.3977 114.17 49.0066 114.333 48.6676C114.498 48.3267 114.727 48.0606 115.021 47.8693C115.316 47.6761 115.661 47.5795 116.055 47.5795C116.362 47.5795 116.638 47.6364 116.884 47.75C117.13 47.8636 117.332 48.0227 117.489 48.2273C117.647 48.4318 117.744 48.6705 117.782 48.9432H117.112C117.06 48.7443 116.947 48.5682 116.771 48.4148C116.596 48.2595 116.362 48.1818 116.066 48.1818C115.805 48.1818 115.576 48.25 115.379 48.3864C115.183 48.5208 115.031 48.7112 114.921 48.9574C114.813 49.2017 114.759 49.4886 114.759 49.8182C114.759 50.1553 114.812 50.4489 114.918 50.6989C115.026 50.9489 115.178 51.143 115.373 51.2812C115.57 51.4195 115.801 51.4886 116.066 51.4886C116.24 51.4886 116.398 51.4583 116.54 51.3977C116.683 51.3371 116.803 51.25 116.901 51.1364C117 51.0227 117.07 50.8864 117.112 50.7273H117.782C117.744 50.9848 117.65 51.2169 117.501 51.4233C117.353 51.6278 117.157 51.7907 116.913 51.9119C116.67 52.0312 116.388 52.0909 116.066 52.0909ZM119.433 46.1818V52H118.762V46.1818H119.433ZM120.661 52V47.6364H121.331V52H120.661ZM121.001 46.9091C120.871 46.9091 120.758 46.8646 120.663 46.7756C120.571 46.6866 120.524 46.5795 120.524 46.4545C120.524 46.3295 120.571 46.2225 120.663 46.1335C120.758 46.0445 120.871 46 121.001 46C121.132 46 121.244 46.0445 121.337 46.1335C121.431 46.2225 121.479 46.3295 121.479 46.4545C121.479 46.5795 121.431 46.6866 121.337 46.7756C121.244 46.8646 121.132 46.9091 121.001 46.9091ZM124.332 52.0909C123.923 52.0909 123.57 51.9943 123.275 51.8011C122.979 51.608 122.752 51.3419 122.593 51.0028C122.434 50.6638 122.354 50.2765 122.354 49.8409C122.354 49.3977 122.436 49.0066 122.599 48.6676C122.763 48.3267 122.993 48.0606 123.286 47.8693C123.582 47.6761 123.926 47.5795 124.32 47.5795C124.627 47.5795 124.904 47.6364 125.15 47.75C125.396 47.8636 125.598 48.0227 125.755 48.2273C125.912 48.4318 126.01 48.6705 126.048 48.9432H125.377C125.326 48.7443 125.212 48.5682 125.036 48.4148C124.862 48.2595 124.627 48.1818 124.332 48.1818C124.07 48.1818 123.841 48.25 123.644 48.3864C123.449 48.5208 123.297 48.7112 123.187 48.9574C123.079 49.2017 123.025 49.4886 123.025 49.8182C123.025 50.1553 123.078 50.4489 123.184 50.6989C123.292 50.9489 123.443 51.143 123.638 51.2812C123.835 51.4195 124.067 51.4886 124.332 51.4886C124.506 51.4886 124.664 51.4583 124.806 51.3977C124.948 51.3371 125.068 51.25 125.167 51.1364C125.265 51.0227 125.335 50.8864 125.377 50.7273H126.048C126.01 50.9848 125.916 51.2169 125.766 51.4233C125.619 51.6278 125.423 51.7907 125.178 51.9119C124.936 52.0312 124.654 52.0909 124.332 52.0909ZM127.653 50.4091L127.641 49.5795H127.778L129.687 47.6364H130.516L128.482 49.6932H128.425L127.653 50.4091ZM127.028 52V46.1818H127.698V52H127.028ZM129.8 52L128.096 49.8409L128.573 49.375L130.653 52H129.8Z"></path>
<g clip-path="url(#clip0_3140_46)">
<path fill="#DDD6CC" d="M21.1111 32.2223C20.7428 32.2223 20.3895 32.076 20.129 31.8155C19.8686 31.555 19.7222 31.2018 19.7222 30.8334V15.5556C19.7222 15.1873 19.8686 14.834 20.129 14.5735C20.3895 14.3131 20.7428 14.1667 21.1111 14.1667C21.4795 14.1667 21.8327 14.3131 22.0932 14.5735C22.3537 14.834 22.5 15.1873 22.5 15.5556V30.8334C22.5 31.2018 22.3537 31.555 22.0932 31.8155C21.8327 32.076 21.4795 32.2223 21.1111 32.2223Z"></path>
<path fill="#C3883B" d="M12.7778 55.8333C12.7778 52.7278 18.3333 47.5 22.5 47.5V54.4444C21.1111 54.4444 16.9444 55.8333 15.5555 57.2222C14.1667 58.6111 12.7778 57.2222 12.7778 55.8333ZM32.2222 55.8333C32.2222 52.7278 26.6667 47.5 22.5 47.5V54.4444C23.8889 54.4444 28.0555 55.8333 29.4444 57.2222C30.8333 58.6111 32.2222 57.2222 32.2222 55.8333Z"></path>
<path fill="#C3883B" d="M30.8333 29.4443C33.6111 29.4443 36.3889 30.8332 36.3889 32.2221C36.3889 36.3888 31.9903 48.2527 25.0458 49.6416C18.1014 51.0304 30.8333 29.4443 30.8333 29.4443ZM14.1667 37.7777C12.7778 39.1666 11.3889 41.9443 11.3889 44.7221C11.3889 47.4999 15.2083 41.886 16.9444 43.3332C19.3306 45.3221 14.1667 37.7777 14.1667 37.7777Z"></path>
<path fill="black" d="M17.7542 27.0139C19.8375 27.7084 21.3417 27.1875 22.8472 25.9722C24.3528 24.757 24.5833 29.5028 22.5 31.0653C20.4167 32.6278 16.7708 36.2736 16.8292 33.0334C16.8861 29.7917 17.7542 27.0139 17.7542 27.0139Z"></path>
<path fill="#EEAC55" d="M22.5319 25.2791C21.7347 26.1541 19.9542 28.5179 19.0861 31.411C17.8708 32.1054 17.9292 29.7332 18.1028 28.9804C18.4153 27.6263 18.8055 27.6235 18.5833 26.8679C18.2917 26.1027 17.4875 26.3624 17.0292 26.6471C14.65 28.0138 12.7778 30.5554 12.7778 34.9999C12.7778 42.6693 19.7222 53.0554 22.5 53.0554C25.2778 53.0554 32.2222 42.6693 32.2222 34.9999C32.2222 27.3485 26.6958 25.2888 22.5319 25.2791Z"></path>
<path fill="black" d="M25.9722 33.611C27.1228 33.611 28.0556 32.6783 28.0556 31.5277C28.0556 30.3771 27.1228 29.4443 25.9722 29.4443C24.8216 29.4443 23.8889 30.3771 23.8889 31.5277C23.8889 32.6783 24.8216 33.611 25.9722 33.611Z"></path>
<path fill="#996522" d="M22.4361 41.7043C20.3472 41.7043 18.5069 40.9571 16.8806 40.1084C16.5538 39.9379 16.3082 39.6445 16.1978 39.2929C16.0873 38.9413 16.1211 38.5602 16.2917 38.2334C16.4622 37.9067 16.7556 37.6611 17.1072 37.5507C17.4588 37.4402 17.8399 37.474 18.1667 37.6446C20.7931 39.0168 23.1528 39.5682 26.1319 37.7973C26.448 37.6258 26.8182 37.5835 27.1649 37.6792C27.5115 37.7749 27.8076 38.0012 27.9909 38.3105C28.1743 38.6199 28.2306 38.9882 28.1481 39.3382C28.0657 39.6882 27.8508 39.9927 27.5486 40.1876C25.6958 41.2876 23.9958 41.7043 22.4361 41.7043Z"></path>
<path fill="#DDD6CC" d="M26.0641 31.3946C25.7083 31.4899 25.3292 31.44 25.0102 31.2558C24.6912 31.0716 24.4584 30.7683 24.363 30.4125L20.4089 15.6553C20.3135 15.2995 20.3634 14.9204 20.5476 14.6014C20.7318 14.2824 21.0352 14.0496 21.391 13.9542C21.7468 13.8589 22.1259 13.9088 22.4449 14.093C22.7639 14.2772 22.9967 14.5805 23.092 14.9363L27.0462 29.6935C27.1415 30.0493 27.0916 30.4285 26.9074 30.7475C26.7232 31.0665 26.4199 31.2992 26.0641 31.3946Z"></path>
<path fill="#C3883B" d="M24.1257 56.3577C23.3219 53.358 27.3351 46.8705 31.3598 45.7921L33.1571 52.4999C31.8156 52.8593 28.1504 55.2793 27.1683 56.9804C26.1862 58.6814 24.4851 57.6993 24.1257 56.3577ZM42.9076 51.3251C42.1038 48.3254 35.3845 44.7136 31.3598 45.7921L33.1571 52.4999C34.4987 52.1404 38.8829 52.4036 40.5839 53.3856C42.2849 54.3677 43.267 52.6667 42.9076 51.3251Z"></path>
<path fill="#C3883B" d="M34.736 26.1949C37.4191 25.476 40.4617 26.0986 40.8212 27.4402C41.8996 31.4649 40.7215 44.063 34.3732 47.2019C28.0248 50.3408 34.736 26.1949 34.736 26.1949ZM20.7941 38.558C19.812 40.259 19.1894 43.3016 19.9083 45.9847C20.6273 48.6679 22.8636 42.2567 24.9151 43.2053C27.7347 44.5088 20.7941 38.558 20.7941 38.558Z"></path>
<path fill="black" d="M21.4735 27.2324C23.6656 27.3639 24.9837 26.4716 26.1234 24.908C27.2631 23.3445 28.7141 27.8689 27.1062 29.9174C25.4982 31.9659 22.9202 36.4311 22.1379 33.2861C21.3539 30.1402 21.4735 27.2324 21.4735 27.2324Z"></path>
<path fill="#EEAC55" d="M25.6394 24.3202C25.0958 25.3717 23.9878 28.1159 23.8981 31.135C22.9039 32.1203 22.3463 29.8138 22.3192 29.0418C22.2705 27.6529 22.6468 27.5492 22.2366 26.8769C21.7568 26.2132 21.0473 26.6722 20.6782 27.0658C18.7339 29.0017 17.5833 31.9413 18.7336 36.2343C20.7186 43.6424 30.1145 51.8773 32.7976 51.1584C35.4808 50.4394 39.5005 38.6099 37.5155 31.2017C35.5351 23.8111 29.664 23.2519 25.6394 24.3202Z"></path>
<path fill="black" d="M31.119 31.4777C32.2303 31.1799 32.8899 30.0375 32.5921 28.9261C32.2943 27.8147 31.1519 27.1552 30.0405 27.453C28.9292 27.7508 28.2696 28.8931 28.5674 30.0045C28.8652 31.1159 30.0076 31.7755 31.119 31.4777Z"></path>
<path fill="#996522" d="M29.798 40.2104C27.7803 40.7511 25.8094 40.5056 24.0187 40.1069C23.659 40.0267 23.3458 39.8069 23.1482 39.4958C22.9505 39.1848 22.8845 38.8079 22.9646 38.4482C23.0448 38.0884 23.2646 37.7753 23.5757 37.5776C23.8867 37.3799 24.2636 37.3139 24.6233 37.3941C27.5154 38.0398 29.9374 37.9616 32.3567 35.4801C32.6177 35.2326 32.9643 35.0959 33.3239 35.0986C33.6835 35.1013 34.028 35.2433 34.2852 35.4946C34.5424 35.746 34.6921 36.0872 34.703 36.4466C34.714 36.8061 34.5852 37.1557 34.3438 37.4223C32.8388 38.9643 31.3046 39.8068 29.798 40.2104Z"></path>
<path fill="#DDD6CC" d="M29.4475 29.2754C29.1285 29.4596 28.7494 29.5095 28.3936 29.4141C28.0378 29.3188 27.7344 29.086 27.5502 28.767L19.9113 15.5361C19.7272 15.2171 19.6772 14.838 19.7726 14.4821C19.8679 14.1263 20.1007 13.823 20.4197 13.6388C20.7387 13.4546 21.1178 13.4047 21.4736 13.5001C21.8294 13.5954 22.1328 13.8282 22.317 14.1472L29.9558 27.3781C30.14 27.6971 30.1899 28.0762 30.0946 28.432C29.9993 28.7878 29.7665 29.0912 29.4475 29.2754Z"></path>
<path fill="#C3883B" d="M34.0361 53.89C32.4833 51.2005 34.6807 43.8953 38.2891 41.812L41.7613 47.8261C40.5585 48.5205 37.6445 51.8066 37.1362 53.7039C36.6278 55.6012 34.7305 55.0928 34.0361 53.89ZM50.8755 44.1678C49.3227 41.4783 41.8976 39.7287 38.2891 41.812L41.7613 47.8261C42.9642 47.1316 47.267 46.2511 49.1643 46.7595C51.0616 47.2678 51.5699 45.3706 50.8755 44.1678Z"></path>
<path fill="#C3883B" d="M36.4782 22.0085C38.8838 20.6196 41.9839 20.4335 42.6783 21.6363C44.7616 25.2448 46.8843 37.7185 41.5647 42.3935C36.245 47.0686 36.4782 22.0085 36.4782 22.0085ZM26.2111 37.5587C25.7027 39.456 25.8888 42.556 27.2777 44.9617C28.6666 47.3673 29.1674 40.5958 31.3945 40.9811C34.4554 41.5104 26.2111 37.5587 26.2111 37.5587Z"></path>
<path fill="black" d="M23.9361 26.4432C26.0875 26.003 27.1298 24.7998 27.826 22.9946C28.5222 21.1894 31.0948 25.1841 30.0718 27.5789C29.0488 29.9738 27.7144 34.9541 26.1447 32.1187C24.5732 29.2829 23.9361 26.4432 23.9361 26.4432Z"></path>
<path fill="#EEAC55" d="M27.2063 22.5521C26.9534 23.7085 26.5933 26.646 27.2881 29.5855C26.5829 30.7945 25.4473 28.7109 25.2212 27.9722C24.8148 26.6432 25.1514 26.4457 24.5812 25.9024C23.9459 25.3855 23.3794 26.0125 23.1248 26.4883C21.7477 28.8614 21.3972 31.9987 23.6194 35.8477C27.4541 42.4896 38.6612 48.012 41.0668 46.6231C43.4725 45.2343 44.2935 32.7674 40.4588 26.1255C36.6331 19.4992 30.8172 20.4786 27.2063 22.5521Z"></path>
<path fill="black" d="M34.3517 28.0475C35.3481 27.4722 35.6895 26.198 35.1142 25.2016C34.5389 24.2052 33.2648 23.8637 32.2683 24.439C31.2719 25.0143 30.9305 26.2885 31.5058 27.2849C32.0811 28.2814 33.3552 28.6228 34.3517 28.0475Z"></path>
<path fill="#996522" d="M35.3359 36.8246C33.5269 37.869 31.5596 38.142 29.7268 38.2203C29.3585 38.236 28.9992 38.1047 28.7277 37.8554C28.4562 37.6061 28.2949 37.2592 28.2793 36.891C28.2636 36.5227 28.3949 36.1634 28.6442 35.8919C28.8935 35.6204 29.2404 35.4591 29.6086 35.4435C32.5693 35.3187 34.8885 34.6163 36.5832 31.5931C36.7711 31.2866 37.0706 31.0648 37.4186 30.9744C37.7667 30.8839 38.1362 30.9318 38.4497 31.1081C38.7631 31.2843 38.9961 31.5751 39.0997 31.9195C39.2033 32.2639 39.1694 32.6349 39.0052 32.9549C37.9506 34.8339 36.6867 36.0447 35.3359 36.8246Z"></path>
<path fill="#662113" d="M51.4361 58.9584C50.75 58.6153 49.9889 57.6278 50.4236 56.6015C52.2764 52.232 56.3653 33.1292 52.6514 22.2112C51.9556 20.1667 49.7097 17.1292 46.9847 15.457C38.1833 10.0584 25.032 13.0153 23.1945 13.9348C22.507 14.2792 20.3556 14.9681 20.0111 14.282C19.6681 13.5959 20.8292 12.8889 21.5153 12.5459C23.9542 11.3278 37.1597 7.15978 48.8306 13.6445C50.9139 14.8015 53.8167 16.9445 55.3625 21.0098C59.8861 32.9084 56.8167 53.532 54.2695 58.2626C53.4611 59.7681 51.6361 59.057 51.4361 58.9584Z"></path>
<path fill="#99AAB5" d="M48.8889 50.2779C51.9571 50.2779 54.4444 47.7906 54.4444 44.7223C54.4444 41.6541 51.9571 39.1667 48.8889 39.1667C45.8206 39.1667 43.3333 41.6541 43.3333 44.7223C43.3333 47.7906 45.8206 50.2779 48.8889 50.2779Z"></path>
<path fill="#66757F" d="M48.8889 47.4999C50.423 47.4999 51.6667 46.2562 51.6667 44.7221C51.6667 43.188 50.423 41.9443 48.8889 41.9443C47.3548 41.9443 46.1111 43.188 46.1111 44.7221C46.1111 46.2562 47.3548 47.4999 48.8889 47.4999Z"></path>
</g>
<defs>
<clipPath id="clip0_3140_46">
<rect transform="translate(10 10)" fill="white" height="50" width="50"></rect>
</clipPath>
</defs>
</svg>
